<svg xmlns="http://www.w3.org/2000/svg" viewBox="4675 1411 88.24 85.94">
  <defs>
    <style>
      .cls-1, .cls-2 {
        fill: none;
        stroke-linecap: round;
        stroke-linejoin: round;
        stroke-width: 4px;
      }

      .cls-1 {
        stroke: #6e34b1;
      }

      .cls-2 {
        stroke: #a88eff;
      }
    </style>
  </defs>
  <g id="d-i-3" transform="translate(4669.06 1402.47)">
    <rect id="Rectangle_45" data-name="Rectangle 45" class="cls-1" width="84.24" height="55.47" rx="5" transform="translate(7.94 10.53)"/>
    <rect id="Rectangle_46" data-name="Rectangle 46" class="cls-1" width="62.94" height="19" rx="5" transform="translate(7.94 73.47)"/>
    <rect id="Rectangle_47" data-name="Rectangle 47" class="cls-1" width="13.88" height="19" rx="5" transform="translate(78.29 73.47)"/>
    <line id="Line_8" data-name="Line 8" class="cls-2" x2="5.89" transform="translate(79.35 81.24)"/>
    <line id="Line_9" data-name="Line 9" class="cls-2" x2="12.85" transform="translate(49.21 80.98)"/>
    <line id="Line_10" data-name="Line 10" class="cls-2" x2="3.2" transform="translate(8.74 81.03)"/>
    <line id="Line_11" data-name="Line 11" class="cls-2" x2="3.21" transform="translate(19.32 81.03)"/>
    <line id="Line_12" data-name="Line 12" class="cls-2" x2="3.21" transform="translate(29.53 81.03)"/>
    <line id="Line_13" data-name="Line 13" class="cls-2" x2="3.21" transform="translate(39.76 81.03)"/>
    <line id="Line_14" data-name="Line 14" class="cls-2" y2="13.12" transform="translate(18.12 73.47)"/>
    <line id="Line_15" data-name="Line 15" class="cls-2" y2="13.12" transform="translate(28.53 73.47)"/>
    <line id="Line_16" data-name="Line 16" class="cls-2" y2="13.12" transform="translate(38.76 73.47)"/>
    <line id="Line_17" data-name="Line 17" class="cls-2" y2="13.12" transform="translate(49.21 73.47)"/>
    <path id="Path_603" data-name="Path 603" class="cls-2" d="M34.82,28.11,21.59,38.69,34.82,49"/>
    <path id="Path_604" data-name="Path 604" class="cls-2" d="M65.59,28.11,78.82,38.69,65.59,49"/>
    <line id="Line_18" data-name="Line 18" class="cls-2" x1="9.12" y2="21.62" transform="translate(45.5 27.88)"/>
  </g>
</svg>
