<svg id="Group_482" data-name="Group 482" xmlns="http://www.w3.org/2000/svg" xmlns:xlink="http://www.w3.org/1999/xlink" width="445.282" height="594.396" viewBox="0 0 445.282 594.396">
  <defs>
    <clipPath id="clip-path">
      <path id="Path_594" data-name="Path 594" d="M0-723.772H445.282v594.4H0Z" transform="translate(0 723.772)" fill="none"/>
    </clipPath>
    <clipPath id="clip-path-2">
      <rect id="Rectangle_37" data-name="Rectangle 37" width="137.752" height="83.515" fill="none"/>
    </clipPath>
    <clipPath id="clip-path-3">
      <rect id="Rectangle_38" data-name="Rectangle 38" width="13.658" height="16.63" fill="none"/>
    </clipPath>
    <clipPath id="clip-path-4">
      <rect id="Rectangle_39" data-name="Rectangle 39" width="15.008" height="15.997" fill="none"/>
    </clipPath>
    <clipPath id="clip-path-5">
      <rect id="Rectangle_40" data-name="Rectangle 40" width="22.966" height="56.862" fill="none"/>
    </clipPath>
  </defs>
  <g id="Group_481" data-name="Group 481" clip-path="url(#clip-path)">
    <g id="Group_364" data-name="Group 364" transform="translate(145.24 168.659)">
      <path id="Path_489" data-name="Path 489" d="M0-4.94s.5-.206,1.488-.579c10.434-3.954,74.871-26.668,165.37-21.3,0,0-64.249,59.632-166.858,21.883" transform="translate(0 27.639)" fill="#953092"/>
    </g>
    <g id="Group_365" data-name="Group 365" transform="translate(158.483 470.223)">
      <path id="Path_490" data-name="Path 490" d="M-6.392-.767s3.285-4.275,6.182-3.4S6.457-2,6.893,1.191,26.748,8.727,26.748,8.727s10,1.3,10.289,3.333-3.622,40.435-3.622,40.435,3.768,34.637-21.884,48.84c0,0-11.6,2.9-15.219-4.2s-4.638-38.55-4.638-38.55l-17.97-9.155s-3.334.915-9.131-.617c0,0-1.955-2.764,3.624-10.88s25.41-38.7,25.41-38.7" transform="translate(35.758 4.288)" fill="#953092"/>
    </g>
    <g id="Group_366" data-name="Group 366" transform="translate(249.395 479.808)">
      <path id="Path_491" data-name="Path 491" d="M-7.087,0S10.136,1.4,45.1,36.111c0,0,5.11,5.9-4.312,7.408S20.063,55.6,19.773,58.791s5.361,36.232,5.361,36.232a14.225,14.225,0,0,1-2.027,11.594c-3.914,5.507-18.7,7.971-18.7,7.971s-37.391-7.246-44.057-73.622c0,0,7.1-4.492,11.015-6.811S-13.27,12.706-13.27,12.706-15.686,1.933-7.087,0" transform="translate(39.646)" fill="#953092"/>
    </g>
    <g id="Group_367" data-name="Group 367" transform="translate(34.921 89.902)">
      <path id="Path_492" data-name="Path 492" d="M-10.438-17.321s9.43-10.312,11.852-19.018A101.154,101.154,0,0,1,8.57-53.908s11.551-10.378,5.473-15.048S-2.07-62.867-5.96-58.67-11.548-68.6-11.548-68.6L-10.4-88.71s.743-6.326-3.684-6.081-7.995,15.408-7.995,15.408l-2.97,8.185-4.072-16.272s.45-7.867-3.5-9.335-3.736,14.878-3.539,18.155.651,12.14.651,12.14S-41.843-73.4-43.522-80.99s-6.185-2.854-6.35.025a48.666,48.666,0,0,1-1.818,8.25s-2.088-3.775-4.469-2.52-3.021,15.824-1.135,19.776,6.609,22.265,6.609,22.265,4,10.746,10.123,14.586c0,0,.694,15.689,2.267,30.33L-4.1,4.76a118.874,118.874,0,0,1-6.337-22.081" transform="translate(58.396 96.899)" fill="#ffc5ba"/>
    </g>
    <g id="Group_368" data-name="Group 368" transform="translate(34.955 101.731)">
      <path id="Path_493" data-name="Path 493" d="M-6.8-15.432c.751-7.964.384-11.854,1-17.6s-9.9-10.924-8.589-17.4-2.007-10.46-5.272-17.585c-2.145-4.7-3.93-12.646-4.893-17.52-2.014-2.356-4.829,1.062-4.96,3.319a48.661,48.661,0,0,1-1.818,8.251s-2.089-3.775-4.472-2.52-3.016,15.824-1.132,19.777,6.607,22.266,6.607,22.266,4,10.742,10.124,14.583c0,0,.691,15.681,2.263,30.316L-3.966,7.613C-6.127-2.15-7.207-11.093-6.8-15.432" transform="translate(38.033 86.33)" fill="#f59392"/>
    </g>
    <g id="Group_369" data-name="Group 369" transform="translate(72.024 130.397)">
      <path id="Path_494" data-name="Path 494" d="M-.1-3.861S-4.21-17.654,12.309-21.6c0-.007-10.034,4.045-12.407,17.741" transform="translate(0.553 21.602)" fill="#f59392"/>
    </g>
    <g id="Group_370" data-name="Group 370" transform="translate(46.359 142.396)">
      <path id="Path_495" data-name="Path 495" d="M0-.235S6.363-3.04,10.923.392a15.288,15.288,0,0,1,5.594,7.981S9.626-2.135,0-.235" transform="translate(0 1.315)" fill="#d17b7b"/>
    </g>
    <g id="Group_371" data-name="Group 371" transform="translate(43.616 118.146)">
      <path id="Path_496" data-name="Path 496" d="M0-3.879S22.271-20.184,31.155-21.7C31.155-21.691,5.3-5.843,0-3.879" transform="translate(0 21.699)" fill="#f59392"/>
    </g>
    <g id="Group_372" data-name="Group 372" transform="translate(42.386 117.168)">
      <path id="Path_497" data-name="Path 497" d="M0,0S4.013,10.459,4.642,14.672c0,0,1.8-5.393-1.191-9.43S0,0,0,0" fill="#d17b7b"/>
    </g>
    <g id="Group_373" data-name="Group 373" transform="translate(182.622 180.161)">
      <path id="Path_498" data-name="Path 498" d="M-5.025-3.636c-1.412,7.793-9.764,8.471-9.764,8.471s-5.239.53-13.322.581c4.68,11.933,17.286,34.037,45.538,29.8,24.242-3.639,38.3-19.786,45.359-31.179C50.011,1.2,43.048-.9,43.048-.9L41.194-2.152S34.119-5.477,37.651-20.34c.021,0-24.371,11.079-47.138,4.849A12.047,12.047,0,0,1-5.025-3.636" transform="translate(28.111 20.34)" fill="#ffc5ba"/>
    </g>
    <g id="Group_374" data-name="Group 374" transform="translate(176.106 185.029)">
      <path id="Path_499" data-name="Path 499" d="M-4.32-4.42a170.992,170.992,0,0,1-19.836.512c.007,1.6.007,2.862-.008,3.539-.091,3.537,8.915,23.348,8.915,23.348,43.421,25,78.056-3.392,78.983-7.664s-2.511-3.309-2.511-3.309c-11.085,7.435-32.022,5.372-39.175.358S19.534-.174,22.388-4.617c1.436-2.225,2-10.769,2.211-18.751A62.194,62.194,0,0,1,.983-24.729,12.042,12.042,0,0,1,5.446-12.875C4.035-5.1-4.32-4.42-4.32-4.42" transform="translate(24.165 24.729)" fill="#f59392"/>
    </g>
    <g id="Group_375" data-name="Group 375" transform="translate(155.128 116)">
      <path id="Path_500" data-name="Path 500" d="M-4.363-7.373s-9.145,1.3-15.394-5.4-6-21.174-.489-26.725,8.722,3.849,8.722,3.849Z" transform="translate(24.41 41.249)" fill="#f59392"/>
    </g>
    <g id="Group_376" data-name="Group 376" transform="translate(270.465 108.482)">
      <path id="Path_501" data-name="Path 501" d="M0-7.954S14.63-11.33,17.608-23.028s1.866-19.379-6.761-21.392S0-7.954,0-7.954" transform="translate(0 44.497)" fill="#ffc5ba"/>
    </g>
    <g id="Group_377" data-name="Group 377" transform="translate(165.012 37.739)">
      <path id="Path_502" data-name="Path 502" d="M-.314-16.477S5.932,20.478,15.38,36.871A46.24,46.24,0,0,0,60.393,59.9c17.795-1.868,37.644-21.2,42.949-43.372S115.064-22,111.656-38.04,106.78-78.956,77.364-88.993s-64.389,5.552-71.8,20.1C-6.122-45.914-.314-16.477-.314-16.477" transform="translate(1.757 92.18)" fill="#ffc5ba"/>
    </g>
    <g id="Group_378" data-name="Group 378" transform="translate(165.009 38.384)">
      <path id="Path_503" data-name="Path 503" d="M-13.117-33c-2.318-4.289-1.4-17.446-1.4-17.446l-.1-14.994s-1.982-1.1-2.553-4.59-2.4-1.136-5.47-4.772,3.351-19.9,2.38-26.507c-.9-6.1-3.566-73.111-3.485-83.293-19.854,2.608-37.32,12.856-42.312,22.648-11.7,22.964-5.881,52.4-5.881,52.4S-65.686-72.593-56.239-56.2A46.254,46.254,0,0,0-13.117-33" transform="translate(73.379 184.599)" fill="#f59392"/>
    </g>
    <g id="Group_379" data-name="Group 379" transform="translate(155.985 68.099)">
      <path id="Path_504" data-name="Path 504" d="M-4.1,0S6.278,5.2,4.459,11.732s-2.48,14-10.3,18.717-6.251,17.1-5.76,19.567-5.7-.621-6.315-10.168-7.334-18-4.168-27.906S-4.1,0-4.1,0" transform="translate(22.928)" fill="#85141f"/>
    </g>
    <g id="Group_380" data-name="Group 380" transform="translate(271.474 86.164)">
      <path id="Path_505" data-name="Path 505" d="M-2.776,0s1.762,8.535.084,15.368c-1.23,5.038-6.18,12.22-6.18,12.22s2.074-1.238-5.02-14.07S-2.776,0-2.776,0" transform="translate(15.531 0)" fill="#85141f"/>
    </g>
    <g id="Group_381" data-name="Group 381" transform="translate(175.34 58.089)">
      <path id="Path_506" data-name="Path 506" d="M-.71-4.232S-11.992-8.626,7.406-15.008s32.017-10.273,56.4-8.022,39.94,7.467,43.471,21.505-2.907,22.99-7.105,20.731S82.848,17.25,77.669,12.058c0,0-8.681,5.559-27.6-1.574,0,0-8.229,2.7-22.368-2.143S11.109-4.085-.71-4.232" transform="translate(3.972 23.674)" fill="#9a2935"/>
    </g>
    <g id="Group_382" data-name="Group 382" transform="translate(173.363 21.529)">
      <path id="Path_507" data-name="Path 507" d="M-.215-4.233s13.386-22.289,48.39-19.143S94.618-8.325,106.131,7.034s4.179,46.361,4.179,46.361S124.885,13.733,55.794,4.734-.215-4.233-.215-4.233" transform="translate(1.202 23.681)" fill="#c63852"/>
    </g>
    <g id="Group_383" data-name="Group 383" transform="translate(167.589 20.573)">
      <path id="Path_508" data-name="Path 508" d="M-20.675-7.8s-8.014-26.4-39.844-34.558S-115.662-16.4-115.662-16.4Z" transform="translate(115.662 43.616)" fill="#ffb3c2"/>
    </g>
    <g id="Group_384" data-name="Group 384" transform="translate(185.642 103.689)">
      <path id="Path_509" data-name="Path 509" d="M-.5-2.641s6.715-11.428,16.078-8.878a12.628,12.628,0,0,0-12.84-2.462c-7.651,2.731-6,9.163-3.238,11.34" transform="translate(2.809 14.775)" fill="#9a2430"/>
    </g>
    <g id="Group_385" data-name="Group 385" transform="translate(236.663 99.742)">
      <path id="Path_510" data-name="Path 510" d="M0-1.364s6.575-8.968,16.463-5.446c6.586,2.34,5.168,5.446,5.168,5.446s-11-4.206-21.631,0" transform="translate(0 7.629)" fill="#9a2430"/>
    </g>
    <g id="Group_386" data-name="Group 386" transform="translate(232.971 119.316)">
      <path id="Path_511" data-name="Path 511" d="M0-1.305S7.254-12.134,21.531-4.691c0,0-16.381-.937-21.531,3.385" transform="translate(0 7.303)" fill="#9a2430"/>
    </g>
    <g id="Group_387" data-name="Group 387" transform="translate(189.163 121.798)">
      <path id="Path_512" data-name="Path 512" d="M-4.194-.836S-12.753-7.375-18.6-3.387A11.4,11.4,0,0,0-23.389,7.291s.081-7.368,8.558-8.444,10.637.317,10.637.317" transform="translate(23.464 4.676)" fill="#9a2430"/>
    </g>
    <g id="Group_388" data-name="Group 388" transform="translate(236.559 120.771)">
      <path id="Path_513" data-name="Path 513" d="M-1.442-2.882A6.624,6.624,0,0,0,5.183-9.5a6.624,6.624,0,0,0-6.626-6.619A6.624,6.624,0,0,0-8.069-9.5,6.625,6.625,0,0,0-1.442-2.882" transform="translate(8.069 16.122)" fill="#9a2430"/>
    </g>
    <g id="Group_389" data-name="Group 389" transform="translate(193.627 123.453)">
      <path id="Path_514" data-name="Path 514" d="M-1.442-2.882A6.621,6.621,0,0,0,5.182-9.5a6.621,6.621,0,0,0-6.623-6.62A6.621,6.621,0,0,0-8.065-9.5a6.621,6.621,0,0,0,6.623,6.62" transform="translate(8.065 16.122)" fill="#9a2430"/>
    </g>
    <g id="Group_390" data-name="Group 390" transform="translate(211.337 155.468)">
      <path id="Path_515" data-name="Path 515" d="M0-1.134S20.606-3.417,24.8-6.343c0,0-3.274,13.069-9.778,15.293S0-1.134,0-1.134" transform="translate(0 6.343)" fill="#9a2430"/>
    </g>
    <g id="Group_391" data-name="Group 391" transform="translate(165.441 129.01)">
      <path id="Path_516" data-name="Path 516" d="M-1.755-3.34s-8.23,1.875-8.059-9.644S-4.8-15-4.8-15Z" transform="translate(9.816 18.686)" fill="#d17b7b"/>
    </g>
    <g id="Group_392" data-name="Group 392" transform="translate(272.84 124.455)">
      <path id="Path_517" data-name="Path 517" d="M0-2.451,3.739-13.71s4.367.431,3.721,3.562S5.553-2.084,0-2.451" transform="translate(0 13.71)" fill="#f59392"/>
    </g>
    <g id="Group_393" data-name="Group 393" transform="translate(228.158 80.905)">
      <path id="Path_518" data-name="Path 518" d="M0-.007S16.435-.8,20.508,5.2,33.273,16.322,45,16.99c0,0-14.453,2.617-26.539-11.088,0,0-4.408-6.26-18.456-5.91" transform="translate(0 0.042)" fill="#5b340d"/>
    </g>
    <g id="Group_394" data-name="Group 394" transform="translate(217.103 164.254)">
      <path id="Path_519" data-name="Path 519" d="M-3.4,0c-5.41-.16-12.237,1.82-15.6,2.927,2.823,2.528,6.259,4.6,9.259,3.572C-7.083,5.591-4.969,2.885-3.4,0" transform="translate(18.994 0.011)" fill="#fc4e71"/>
    </g>
    <g id="Group_395" data-name="Group 395" transform="translate(206.135 179.107)">
      <path id="Path_520" data-name="Path 520" d="M-.243-1.559a26.206,26.206,0,0,0,8.924-2.69c4.519-2.339,6.616-5.1,9.707-4.345s2.832,1.028,7.595,1.874,8.9-.513,11.125.554-2.843,2.976-3.6,3.506S24.328,2.86,16.007,2.388C12.672,2.2-6.067-.206-.243-1.559" transform="translate(1.357 8.719)" fill="#be6677"/>
    </g>
    <g id="Group_396" data-name="Group 396" transform="translate(245.154 171.526)">
      <path id="Path_521" data-name="Path 521" d="M0-2.408S2.272-6.7,1.865-8.733s-1.116-4.818.4-4.738,1.334,3.14,3.958,5.07S0-2.408,0-2.408" transform="translate(0 13.472)" fill="#e1a29a"/>
    </g>
    <g id="Group_397" data-name="Group 397" transform="translate(198.299 175.074)">
      <path id="Path_522" data-name="Path 522" d="M-1.733-2.614S-5.1-5-4.131-6.821s-.572-7.67-.572-7.67-1.686-.677-1.784,1.051S-7.541-6-9.7-6.175A51.06,51.06,0,0,0-1.733-2.614" transform="translate(9.697 14.622)" fill="#d78080"/>
    </g>
    <g id="Group_398" data-name="Group 398" transform="translate(138.232 33.54)">
      <path id="Path_523" data-name="Path 523" d="M-31.966-9.27s-20.091-34.867-59.3-41.144-78.189,9.661-82.48,14.169S-180.9-22.1-176.938-15.823s15.686,18.472,15.686,18.472,4.225-8.69,32.94-16.565S-67.854-27.171-31.966-9.27" transform="translate(178.829 51.859)" fill="#f8556f"/>
    </g>
    <g id="Group_399" data-name="Group 399" transform="translate(138.24 42.117)">
      <path id="Path_524" data-name="Path 524" d="M-4.186-5.982c-3.1-4.247-6.82-9.969-6.175-15.719s6.485-11.762,6.485-11.762c-7.8,2.781-13.042,5.534-14.463,7.028-4.3,4.507-7.153,14.143-3.188,20.422S-5.842,12.458-5.842,12.458-1.616,3.769,27.1-4.107C33.73-5.925,40.527-7.6,47.5-8.9A57.633,57.633,0,0,0,28.206-5.631c-21.223,7.646-29.3,3.9-32.392-.351" transform="translate(23.418 33.463)" fill="#c63852"/>
    </g>
    <g id="Group_400" data-name="Group 400" transform="translate(219.209 34.136)">
      <path id="Path_525" data-name="Path 525" d="M-14.341-9.14s-20.091-34.867-59.3-41.144c-2.2-.351-4.389-.627-6.583-.848,14.756,2.634,31.542,9.513,45.776,34.15A115.55,115.55,0,0,1-14.341-9.14" transform="translate(80.227 51.133)" fill="#ff6985"/>
    </g>
    <g id="Group_401" data-name="Group 401" transform="translate(249.393 514.748)">
      <path id="Path_526" data-name="Path 526" d="M-12.345-16.532C-17.7-19.726-27.552-26.5-39.929-39.067-55.681-55.059-58.762-83.32-59.356-92.483c-4,2.418-9.7,6.025-9.7,6.025C-62.392-20.081-25-12.835-25-12.835a60.579,60.579,0,0,0,12.657-3.7" transform="translate(69.06 92.483)" fill="#701c6f"/>
    </g>
    <g id="Group_402" data-name="Group 402" transform="translate(195.46 483.289)">
      <path id="Path_527" data-name="Path 527" d="M-7.8-.714c-.257-1.8-8.138-3.027-9.926-3.283a92.359,92.359,0,0,1-1.522,37.92C-24.595,54.5-9.832,61.314-43.615,88.4c4.647,1.574,10.311.161,10.311.161C-7.651,74.357-11.42,39.72-11.42,39.72S-7.506,1.315-7.8-.714" transform="translate(43.615 3.997)" fill="#701c6f"/>
    </g>
    <g id="Group_403" data-name="Group 403" transform="translate(289.619 529.858)">
      <path id="Path_528" data-name="Path 528" d="M-4.178-1.9l-16.354-8.741s-5.384,4.828-1.325,17L-1.95,15.222Z" transform="translate(23.372 10.644)" fill="#701c6f"/>
    </g>
    <g id="Group_404" data-name="Group 404" transform="translate(433.622 116.483)">
      <path id="Path_529" data-name="Path 529" d="M-2.533-1.378a5.829,5.829,0,0,1-6.31,5.306,5.831,5.831,0,0,1-5.306-6.31,5.832,5.832,0,0,1,6.31-5.306,5.831,5.831,0,0,1,5.306,6.31" transform="translate(14.171 7.711)" fill="#701c6f"/>
    </g>
    <g id="Group_405" data-name="Group 405" transform="translate(424.875 294.366)">
      <path id="Path_530" data-name="Path 530" d="M-2.533-1.378a5.829,5.829,0,0,1-6.31,5.306,5.831,5.831,0,0,1-5.306-6.31,5.832,5.832,0,0,1,6.31-5.306,5.831,5.831,0,0,1,5.306,6.31" transform="translate(14.171 7.711)" fill="#701c6f"/>
    </g>
    <g id="Group_406" data-name="Group 406" transform="translate(17.728 426.358)">
      <path id="Path_531" data-name="Path 531" d="M-2.533-1.378a5.829,5.829,0,0,1-6.31,5.306,5.831,5.831,0,0,1-5.306-6.31,5.832,5.832,0,0,1,6.31-5.306,5.831,5.831,0,0,1,5.306,6.31" transform="translate(14.171 7.711)" fill="#701c6f"/>
    </g>
    <g id="Group_407" data-name="Group 407" transform="translate(429.428 259.982)">
      <path id="Path_532" data-name="Path 532" d="M-.555-.3A1.278,1.278,0,0,1-1.936.861,1.278,1.278,0,0,1-3.1-.522,1.277,1.277,0,0,1-1.717-1.684,1.279,1.279,0,0,1-.555-.3" transform="translate(3.103 1.689)" fill="#701c6f"/>
    </g>
    <g id="Group_408" data-name="Group 408" transform="translate(403.792 401.371)">
      <path id="Path_533" data-name="Path 533" d="M-.555-.3A1.278,1.278,0,0,1-1.936.861,1.278,1.278,0,0,1-3.1-.522,1.277,1.277,0,0,1-1.717-1.684,1.279,1.279,0,0,1-.555-.3" transform="translate(3.103 1.689)" fill="#701c6f"/>
    </g>
    <g id="Group_409" data-name="Group 409" transform="translate(47.578 478.531)">
      <path id="Path_534" data-name="Path 534" d="M-.555-.3A1.278,1.278,0,0,1-1.936.861,1.278,1.278,0,0,1-3.1-.522,1.277,1.277,0,0,1-1.717-1.684,1.279,1.279,0,0,1-.555-.3" transform="translate(3.103 1.689)" fill="#701c6f"/>
    </g>
    <g id="Group_410" data-name="Group 410" transform="translate(0 311.177)">
      <path id="Path_535" data-name="Path 535" d="M-.555-.3A1.278,1.278,0,0,1-1.936.861,1.278,1.278,0,0,1-3.1-.522,1.277,1.277,0,0,1-1.717-1.684,1.279,1.279,0,0,1-.555-.3" transform="translate(3.103 1.689)" fill="#701c6f"/>
    </g>
    <g id="Group_411" data-name="Group 411" transform="translate(48.855 169.472)">
      <path id="Path_536" data-name="Path 536" d="M-8.593-2.1s4.252-9.662-2.318-9.662S-19.414-.557-27.143.99s-20.484,1.932-20.87,5.024,1.16,8.116,4.252,10.434c0,0-3.48,37.487,24.347,64.155s66.087,34.009,72.27,44.443,27.44,43.285,6.957,62.222S6.093,222.823-.091,265.721s27.44,70.723,46.376,75.749,22.234-6.957,22.234-6.957,8.3-2.318,16.8-16.232S93.435,293.546,91.5,292s-8.888-12.366-1.933-21.256,40.579-26.665,60.677-24.733,34.782,17,37.873,31.69-3.091,20.87-3.091,20.87,7.73,5.8,10.434,11.208,8.889,15.458,16.232,18.164,16.618,3.865,20.484,6.183,7.729,3.092,13.913-6.957c0,0,27.054-25.893,33.236-49.855s10.822-56.464-17.778-87.748-52.946-38.316-52.56-51.031,3.093-37.064,11.208-38.223,22.415,10.048,20.1,21.256-12.368,10.435-7.73,15.072,17,4.638,19.71,19.71,5.024,20.484,12.754,15.46,7.729-13.14,17-20.87,32.85-74.975-2.705-105.12-69.565-34.01-69.565-34.01,13.14-9.275,5.41-23.575c0,0-40.193,34.4-101.641,32.078S49.377,10.084,49.377,10.084,38.943,20.7,43.579,26.5c0,0-35.94,6.184-52.172-28.6" transform="translate(48.071 11.765)" fill="#ecbdff"/>
    </g>
    <g id="Group_412" data-name="Group 412" transform="translate(139.318 169.473)">
      <path id="Path_537" data-name="Path 537" d="M-37.607,0S-77.8,34.395-139.249,32.077-203.4,21.848-203.4,21.848s-10.436,10.614-5.8,16.412c0,0,20.192,16.232,76.714,14.492s89.467-29.178,89.467-29.178S-29.878,14.3-37.607,0" transform="translate(210.387)" fill="#bc7cdb"/>
    </g>
    <g id="Group_413" data-name="Group 413" transform="translate(199.096 242.699)">
      <path id="Path_538" data-name="Path 538" d="M-1.169-18.122-6.193-79.728S-8.511-90.742-1.169-91.709s56.807-9.661,56.807-9.661,5.148-.387,5.668,3.672,5.338,75.556,5.338,75.556,1.752,2.9-3.659,4.637S9.652-7.458,9.652-7.458-1.361-6.564-1.169-18.122" transform="translate(6.54 101.38)" fill="#bc7cdb"/>
    </g>
    <g id="Group_414" data-name="Group 414" transform="translate(220.661 272.467)">
      <path id="Path_539" data-name="Path 539" d="M-1.564-.5S-2.143-2.823.561-2.823s11.4,4.444,9.855,15.072S3.846,24.037,1.334,23.843-6.782,22.3-8.521,11.863-1.564-.5-1.564-.5" transform="translate(8.751 2.823)" fill="#ecbdff"/>
    </g>
    <g id="Group_415" data-name="Group 415" transform="translate(254.349 251.345)">
      <path id="Path_540" data-name="Path 540" d="M-.457-.707,15.646-3.7s6.119-1.546,6.119,2.994-6.119,4.348-6.119,4.348L.9,5.96S-5.867,3.834-.457-.707" transform="translate(2.555 3.955)" fill="#953092"/>
    </g>
    <g id="Group_416" data-name="Group 416" transform="translate(254.349 265.149)">
      <path id="Path_541" data-name="Path 541" d="M-.457-.707,15.646-3.7s6.119-1.546,6.119,2.994-6.119,4.348-6.119,4.348L.9,5.96S-5.867,3.835-.457-.707" transform="translate(2.555 3.955)" fill="#953092"/>
    </g>
    <g id="Group_417" data-name="Group 417" transform="translate(254.782 279.753)">
      <path id="Path_542" data-name="Path 542" d="M-.457-.707,15.646-3.7s6.119-1.546,6.119,2.994-6.119,4.348-6.119,4.348L.9,5.96S-5.867,3.834-.457-.707" transform="translate(2.555 3.955)" fill="#953092"/>
    </g>
    <g id="Group_418" data-name="Group 418" transform="translate(254.349 294.358)">
      <path id="Path_543" data-name="Path 543" d="M-.457-.707,15.646-3.7s6.119-1.546,6.119,2.994-6.119,4.348-6.119,4.348L.9,5.96S-5.867,3.834-.457-.707" transform="translate(2.555 3.955)" fill="#953092"/>
    </g>
    <g id="Group_419" data-name="Group 419" transform="translate(254.782 308.962)">
      <path id="Path_544" data-name="Path 544" d="M-.457-.707,15.646-3.7s6.119-1.546,6.119,2.994-6.119,4.348-6.119,4.348L.9,5.96S-5.867,3.834-.457-.707" transform="translate(2.555 3.955)" fill="#953092"/>
    </g>
    <g id="Group_420" data-name="Group 420" transform="translate(177.988 264.26)">
      <path id="Path_545" data-name="Path 545" d="M-.818-13.046a13.622,13.622,0,0,1,12.085-2.26L8.256-72.093a20.6,20.6,0,0,0-7.6-.8c-3.9.411-5.235,1.848-5.235,1.848Z" transform="translate(4.576 72.981)" fill="#bc7cdb"/>
    </g>
    <g id="Group_421" data-name="Group 421" transform="translate(181.889 323.181)">
      <path id="Path_546" data-name="Path 546" d="M0-.69S6.912-5.514,11.943-3.256l.684,8.315s.205,1.95-3.593,2.772a24.277,24.277,0,0,1-8.212,0Z" transform="translate(0 3.858)" fill="#bc7cdb"/>
    </g>
    <g id="Group_422" data-name="Group 422" transform="translate(177.269 244.328)">
      <path id="Path_547" data-name="Path 547" d="M0-4.339A17.807,17.807,0,0,1,13.756-5.382L6.878-24.271Z" transform="translate(0 24.271)" fill="#bc7cdb"/>
    </g>
    <g id="Group_423" data-name="Group 423" transform="translate(185.916 523.937)">
      <path id="Path_548" data-name="Path 548" d="M0-1.993l15.306-9.155s6.022,5.363,3.558,13.165-18,11.335-18,11.335Z" transform="translate(0 11.148)" fill="#701c6f"/>
    </g>
    <g id="Group_424" data-name="Group 424" transform="translate(111.355 0.41)">
      <path id="Path_549" data-name="Path 549" d="M-7.376-41.561S-52.544-77.286-38.583-145.449,38.759-232.912,68.046-232.5s104.069,5.749,116.363,82.125c0,0,5.86,48.586-24.927,86.932C159.482-63.444,98.565-5.426-7.376-41.561Z" transform="translate(41.261 232.508)" fill="none" stroke="#fff" stroke-width="1"/>
    </g>
    <g id="Group_425" data-name="Group 425" transform="translate(56.478 224.583)">
      <path id="Path_550" data-name="Path 550" d="M-24.325-22.575A149.356,149.356,0,0,1-29.632-46.6C-31.511-58.915-34.8-89.489-40.955-96.581s-8.418-10.993-17.246-9.967-8.418,9.855-13.345,5.749,2.241-7.1-9.659-5.911-.812,12.275-13.542,4.473-21.692-30.26-41.335-22.418a78.356,78.356,0,0,0,21.033,35.619c27.826,26.666,66.087,34.009,72.27,44.443S-15.34-1.307-35.822,17.63s-53.719,35.555-59.9,78.453c-5.81,40.305,23.519,67.3,42.792,74.587l1.712-.663s2.464-3.285-7.8-16.63S-75.858,140.443-76.269,127.3s-1.848-8.007,1.437-19.5-6.57-6.775,9.444-17.452S-42.9,81.518-50.962,74.538s-11.346-.821-4.776-10.06,6.981-4.927,5.338-9.65,1.437-13.283,11.5-16.7S-11.6,25.468-12.212,14.792s-10.06-30.386-12.113-37.367" transform="translate(136.082 126.291)" fill="#bc7cdb"/>
    </g>
    <g id="Group_426" data-name="Group 426" transform="translate(89.865 185.42)">
      <path id="Path_551" data-name="Path 551" d="M-10.828-4.5a5.252,5.252,0,0,0,.893,1.652S-41.345,2.555-58.7-25.159c0,0-4.224,14.56,0,20.309s9.133,9.034,19.613,11.5,2.79,1.26,17.106,7.816,14.789,9.119,34.468,5.169,15.983-1.394,28.1-.825,31.044-4.946,39.311-7.03C88.12,9.7,19.452,18.459-10.828-4.5" transform="translate(60.576 25.159)" fill="#bc7cdb"/>
    </g>
    <g id="Group_427" data-name="Group 427" transform="translate(306.944 306.371)">
      <path id="Path_552" data-name="Path 552" d="M0,0Z" transform="translate(0 0.001)" fill="#bc7cdb"/>
    </g>
    <g id="Group_428" data-name="Group 428" transform="translate(285.753 231.663)">
      <path id="Path_553" data-name="Path 553" d="M-2.752-14.107c7.567,5.678,8.55,8.47,8.6,9.46C7.3-16.183,10.322-28.227,15.972-29.035c7.678-1.1,20.884,8.878,20.322,19.447,7.013-7.389,1.61-16.838.026-21.242s1.995-7.914-4.165-18.494-6.981-4.2-11.942-6.966S7.107-74.469-.821-78.5s-8.5,21.687-13.013,40.382S-12.6-21.5-2.752-14.107" transform="translate(15.398 78.92)" fill="#bc7cdb"/>
    </g>
    <g id="Group_429" data-name="Group 429" transform="translate(281.799 193.047)">
      <path id="Path_554" data-name="Path 554" d="M-20.559-7.4C-56.114-37.547-90.123-41.412-90.123-41.412s-16.46,11.044-24.889,14.553c0,0,20.261-7.621,28.083-1.872s8.642,6.981,13.159,10.266,2.874,2.655,9.034,8.309,1.721,6.085,19.34,18.4S-28.191,19.506-23.264,26.8-13,34.916-15.873,47.645s-2.464,14.962-4.106,21.648,4.927,5.846-5.338,10.167-9.986,6.1-11.768,12.394-12.622,4.882-12.622,4.882h0a22.451,22.451,0,0,1,2.1,6.391c2.7,15.072,5.024,20.483,12.753,15.459s7.729-13.14,17-20.87S15,22.742-20.559-7.4" transform="translate(115.012 41.412)" fill="#bc7cdb"/>
    </g>
    <g id="Group_430" data-name="Group 430" transform="translate(345.557 357.892)">
      <path id="Path_555" data-name="Path 555" d="M-2.812-2.81c-4.433-4.849-8.764-9.115-12.917-12.911C-15-5.268-12.054,4.476-3.753,5.4A15.131,15.131,0,0,0,3.169,4.372Q.454.773-2.812-2.81" transform="translate(15.729 15.721)" fill="#bc7cdb"/>
    </g>
    <g id="Group_431" data-name="Group 431" transform="translate(306.688 186.153)">
      <path id="Path_556" data-name="Path 556" d="M-1.274,0C-4.766,4.073-7.129,6.894-7.129,6.894A21.564,21.564,0,0,0-1.274,0" transform="translate(7.129)" fill="#bc7cdb"/>
    </g>
    <g id="Group_432" data-name="Group 432" transform="translate(345.933 329.238)">
      <path id="Path_557" data-name="Path 557" d="M-3.487-5.182C2.68-9.191,3.93-15.168,8.892-21.346,3-23.134-8.015-26.146-19.508-28.99a20.939,20.939,0,0,1,3.268,8.349C-13.536-5.569-11.217-.158-3.487-5.182" transform="translate(19.508 28.99)" fill="#bc7cdb"/>
    </g>
    <g id="Group_433" data-name="Group 433" transform="translate(300.207 322.531)">
      <path id="Path_558" data-name="Path 558" d="M-9.318-40.458S17.735-66.351,23.918-90.312,34.739-146.776,6.14-178.061c-26.466-28.951-49.276-37.134-52.226-48.272a.732.732,0,0,0-.14.129c-2.971,4.01-11.647,19.388,0,32.212S-16.812-175.8-16.812-175.8s15.03,12.928,15.891,20.73-4.557,11.087,0,21.763S5.2-128.79,7.391-123.041s-4.656,21.352,0,28.333S5.609-85.675-.921-73.767s-8.4,33.309-8.4,33.309" transform="translate(52.128 226.333)" fill="#bc7cdb"/>
    </g>
    <g id="Group_434" data-name="Group 434" transform="translate(176.191 390.631)">
      <path id="Path_559" data-name="Path 559" d="M-22.076-7.749c-11.752-5.338-3.852-8.623-10.675-19.71s-15.761-6.981-21.92-6.981,2.464-4.927-11.5-8.212-15.193,5.749-25.048,11.5S-93.094-19.467-104.049-5.21-117.5,1.7-122.425,15.246c-3.727,10.248,3.122,14.153,6.683,15.448A14.471,14.471,0,0,1-113.2,18C-106.241,9.11-72.619-8.667-52.522-6.735s34.781,17,37.873,31.69c1.383,6.569.908,11.433-.036,14.808,3.971-2.028,8.6-5.074,9.287-8.5,1.232-6.159.821-2.874-1.839-13.961S-6.218,13.6-3.774.874s-6.55-3.285-18.3-8.623" transform="translate(123.503 43.352)" fill="#bc7cdb"/>
    </g>
    <g id="Group_435" data-name="Group 435" transform="translate(305.847 258.446)">
      <path id="Path_560" data-name="Path 560" d="M-.82-1.459c3.571,7.512,1.89,3,.266,12.439s-.266,13.3-.266,13.3l.448.065c1.69-5.2,3.986-8.967,7.059-9.407,5.727-.818,14.527,4.525,18.4,11.679h0S20.407,14.7,12.606,5.86-3.6-9.55-4.327-7.908-4.391-8.971-.82-1.459" transform="translate(4.588 8.161)" fill="#953092"/>
    </g>
    <g id="Group_436" data-name="Group 436" transform="translate(68.18 307.129)">
      <path id="Path_561" data-name="Path 561" d="M-6.435-13.2S-33.536-35.924-36-63.846c0,0,2.189-11.5,8.759-9.855S9.716-39.209,9.716-39.209,13.549-27.712-6.435-13.2" transform="translate(36 73.862)" fill="#953092"/>
    </g>
    <g id="Group_437" data-name="Group 437" transform="translate(76.218 348.034)">
      <path id="Path_562" data-name="Path 562" d="M-1.289,0S-8.406,4.15-7.038,9.077,3.483,34.262,6.435,34.536s4.047-6.421,4.047-9.506,5.2-6.292,5.2-6.292Z" transform="translate(7.213)" fill="#701c6f"/>
    </g>
    <g id="Group_438" data-name="Group 438" transform="translate(96.65 326.213)">
      <path id="Path_563" data-name="Path 563" d="M0-.022S7.666-.7,12.593,1.485,25.184,8.168,26.28,10.3s-.266,4.82-4.508,5.966-5.621,0-5.621,0Z" transform="translate(0 0.123)" fill="#701c6f"/>
    </g>
    <g id="Group_439" data-name="Group 439" transform="translate(89.581 336.613)">
      <path id="Path_564" data-name="Path 564" d="M-.764-.005S17.851,24.3,18.946,25.944s-.735,5.748-2.831,5.2S-3.99,6.47-3.99,6.47-5.691-.5-.764-.005" transform="translate(4.274 0.03)" fill="#701c6f"/>
    </g>
    <g id="Group_440" data-name="Group 440" transform="translate(68.18 307.129)">
      <path id="Path_565" data-name="Path 565" d="M0-2.18A59.762,59.762,0,0,0,7,20.182C18.386,16.812,26.292,2.455,26.292,2.455h0C18.916-4.76,11.6-11.324,8.759-12.035,2.189-13.677,0-2.18,0-2.18" transform="translate(0 12.196)" fill="#701c6f"/>
    </g>
    <g id="Group_441" data-name="Group 441" transform="translate(62.705 299.315)">
      <path id="Path_566" data-name="Path 566" d="M-2.5-3.179-14-17.783-2.5-7.071s2.464,3.13,0,3.892" transform="translate(14 17.783)" fill="#701c6f"/>
    </g>
    <g id="Group_442" data-name="Group 442" transform="translate(20.274 245.969)">
      <path id="Path_567" data-name="Path 567" d="M-3.337-14.471S7.753-43.452,17.538-47.7c0,0-9.65-6.707-12.114-12.182s-6.57-21.079-6.57-21.079S-18.667-69.6-18.667-52.966s15.33,38.5,15.33,38.5" transform="translate(18.667 80.957)" fill="#701c6f"/>
    </g>
    <g id="Group_443" data-name="Group 443" transform="translate(20.274 248.646)">
      <path id="Path_568" data-name="Path 568" d="M0-5.51C0,2.329,3.406,11.328,7.007,18.655c1.008-9.092,3.2-23.019,7.229-24.164,0,0-5.161-12.223-.231-25.313C8.89-26.527,0-17.359,0-5.51" transform="translate(0 30.823)" fill="#953092"/>
    </g>
    <g id="Group_444" data-name="Group 444" transform="translate(5.491 335.234)">
      <path id="Path_569" data-name="Path 569" d="M-11.44-5.179S-25.675,16.995-25.675,22.47c0,0-22.174-3.012-27.1-12.319S-64-9.336-64-9.336-45.658-19.1-44.016-28.974c0,0,11.224,13.472,17.246,16.991a109.773,109.773,0,0,0,15.329,6.8" transform="translate(64 28.974)" fill="#701c6f"/>
    </g>
    <g id="Group_445" data-name="Group 445" transform="translate(25.476 352.225)">
      <path id="Path_570" data-name="Path 570" d="M-2.808,0l-12.9,13.082,6.3-9.288Z" transform="translate(15.708)" fill="#953092"/>
    </g>
    <g id="Group_446" data-name="Group 446" transform="translate(23.559 350.261)">
      <path id="Path_571" data-name="Path 571" d="M-1.821,0l-8.367,6.3S-7.142-.276-1.821,0" transform="translate(10.188 0.01)" fill="#953092"/>
    </g>
    <g id="Group_447" data-name="Group 447" transform="translate(48.855 403.926)">
      <path id="Path_572" data-name="Path 572" d="M-2.717,0S12.34,13.14,15.625,17.246,1.39,40.515,1.39,40.515L-15.2,23.816Z" transform="translate(15.198)" fill="#701c6f"/>
    </g>
    <g id="Group_448" data-name="Group 448" transform="translate(398.39 339.592)">
      <path id="Path_573" data-name="Path 573" d="M-2.547-8.6l8.418-13,6.365-14.786-14.782-11.7-11.7,19.746s10.471,13.1,11.087,18.031" transform="translate(14.25 48.088)" fill="#701c6f"/>
    </g>
    <g id="Group_449" data-name="Group 449" transform="translate(399.006 175.342)">
      <path id="Path_574" data-name="Path 574" d="M0-7.6S17.862-31.618,17.862-42.5c0,0,20.121,13.551,22.584,17.452,0,0-9.034,31.618-21.558,45.785,0,0-1.027-11.748-8.418-18.706S0-7.6,0-7.6" transform="translate(0 42.5)" fill="#701c6f"/>
    </g>
    <g id="Group_450" data-name="Group 450" transform="translate(364.103 115.597)">
      <path id="Path_575" data-name="Path 575" d="M-1.564-1.3S.078,36.481-8.75,50.853c0,0,43.321-37.777,45.169-58.1,0,0-21.558,20.326-37.983,5.954" transform="translate(8.75 7.25)" fill="#701c6f"/>
    </g>
    <g id="Group_451" data-name="Group 451" transform="translate(357.122 50.718)">
      <path id="Path_576" data-name="Path 576" d="M-3.352-7.239,6.5-16.273l6.854-15.6L-3.352-40.5s-14.372,12.524-15.4,16.63c0,0,8.007,11.7,15.4,16.63" transform="translate(18.75 40.5)" fill="#701c6f"/>
    </g>
    <g id="Group_452" data-name="Group 452" transform="translate(115.352 248.639)">
      <path id="Path_577" data-name="Path 577" d="M-10.356-18.393s-2.7-23.936-6.4-44.673S-32.15-99.611-39.13-102.9c0,0,12.145,19.5,14.387,28.538s-26.09-19.265-32.25-12.917,19.551,5.9,30.8,20.45S-42-66.35-48.985-68.2s11.908,8.08,14.167,11.02,10.471,9.4,10.471,9.4,13,25.91,13.992,29.39" transform="translate(57.932 102.896)" fill="#953092"/>
    </g>
    <g id="Group_453" data-name="Group 453" transform="translate(203.887 411.839)">
      <path id="Path_578" data-name="Path 578" d="M-16.371-7.372S-42.02-54.042-91.586-37.81c0,0,25.744-9.551,55.48,14.934,0,0,14.3,4.307,19.735,15.5" transform="translate(91.586 41.239)" fill="#953092"/>
    </g>
    <g id="Group_454" data-name="Group 454" transform="translate(254.815 303.752)">
      <path id="Path_579" data-name="Path 579" d="M-9.777-18.3-52.288-69.314s-5.41-5.217,0-9.467,31.5-22.995,31.5-22.995,3.285-2.9,7.73,4.057S27.518-38.782,27.518-38.782L-1.92-19.267s-5.258,4.084-7.856.967" transform="translate(54.693 102.376)" fill="#fff"/>
    </g>
    <g id="Group_455" data-name="Group 455" transform="translate(266.942 326.314)">
      <path id="Path_580" data-name="Path 580" d="M-.155-1.276s-2.125-4.831.967-5.6,5.024.193,6.376,2.8,4.445,7.247,1.16,8.6A4.42,4.42,0,0,1,3.13,3.361Z" transform="translate(0.867 7.138)" fill="#bc7cdb"/>
    </g>
    <g id="Group_456" data-name="Group 456" transform="translate(261.274 312.454)">
      <path id="Path_581" data-name="Path 581" d="M-15.076-1.373s-8.778,5.3-11.871,2.4-5.024-9.016-8.7-8.7-7.73,1.933-8.116,7.923-3.672,21.063-11.4,25.12-14.493,7.537-23.38,5.6-5.8,13.14-2.32,16.425,20.484,5.41,20.87,6.57.192,8.888,5.024,9.468S-7.685,57.988,8.286,32.984a49.586,49.586,0,0,1-2.753-6.417c-.5-1.946-3.007-13.743-4.045-15.509a24.384,24.384,0,0,0-9.86-8.922c-5.71-2.85-6.7-3.509-6.7-3.509" transform="translate(84.342 7.683)" fill="#ffc5ba"/>
    </g>
    <g id="Group_460" data-name="Group 460" transform="translate(126.467 7.072)" opacity="0.5">
      <g id="Group_459" data-name="Group 459">
        <g id="Group_458" data-name="Group 458" clip-path="url(#clip-path-2)">
          <g id="Group_457" data-name="Group 457" transform="translate(0 0)">
            <path id="Path_582" data-name="Path 582" d="M-26.4-.518S-16.344.031-12.886,2.22s3.733,7.664,1.542,8.759-57.761,1.1-74.734,8.487-47.085,49.274-46.538,53.928-14.235,15.057-15.056-3.011S-125.5,18.645-100.586,8.516-62.535-5.993-26.4-.518" transform="translate(147.692 2.896)" fill="#fff"/>
          </g>
        </g>
      </g>
    </g>
    <g id="Group_464" data-name="Group 464" transform="translate(121.632 108.182)" opacity="0.5">
      <g id="Group_463" data-name="Group 463">
        <g id="Group_462" data-name="Group 462" clip-path="url(#clip-path-3)">
          <g id="Group_461" data-name="Group 461" transform="translate(0 0)">
            <path id="Path_583" data-name="Path 583" d="M-.461-.079S6.383-.9,8.3-.079s3.011,4.107,2.737,7.118-.779,10.129-5.728,9.034S-5.937,5.4-.461-.079" transform="translate(2.581 0.444)" fill="#fff"/>
          </g>
        </g>
      </g>
    </g>
    <g id="Group_468" data-name="Group 468" transform="translate(274.295 20.523)" opacity="0.5">
      <g id="Group_467" data-name="Group 467">
        <g id="Group_466" data-name="Group 466" clip-path="url(#clip-path-4)">
          <g id="Group_465" data-name="Group 465" transform="translate(0 0)">
            <path id="Path_584" data-name="Path 584" d="M-1.046-.033s6.434-.82,8.077,1.369,4.927,9.307-2.737,13.413S-6.108,9.945-5.835,7.283-2.868.1-1.046-.033" transform="translate(5.853 0.183)" fill="#fff"/>
          </g>
        </g>
      </g>
    </g>
    <g id="Group_472" data-name="Group 472" transform="translate(298.399 34.835)" opacity="0.5">
      <g id="Group_471" data-name="Group 471">
        <g id="Group_470" data-name="Group 470" clip-path="url(#clip-path-5)">
          <g id="Group_469" data-name="Group 469" transform="translate(0 0)">
            <path id="Path_585" data-name="Path 585" d="M0-1.208S4.1-7.5,6.842-6.683,18.066,2.9,20.8,10.837,23.814,44.724,20.8,49s-8.246-4.487-9.324-14.342-4.637-18.889-8.2-23.816S0,1.8,0-1.208" transform="translate(0.006 6.757)" fill="#fff"/>
          </g>
        </g>
      </g>
    </g>
    <g id="Group_473" data-name="Group 473" transform="translate(262.531 327.079)">
      <path id="Path_586" data-name="Path 586" d="M-18.408-.9A21.951,21.951,0,0,0-21.65-5.012c1.063,6.058,3,19.932-.547,24.458C-26.787,25.3-55.8,41.869-66.481,40.973S-70.314,38.16-80.716,35.7c-8.091-1.916-16.843-.645-22.265-4.123a10.614,10.614,0,0,0,2.226,3.874c3.477,3.285,20.483,5.411,20.87,6.57s.192,8.888,5.024,9.468,47.281-5.451,63.252-30.455a49.613,49.613,0,0,1-2.753-6.416C-14.86,12.668-17.37.871-18.408-.9" transform="translate(102.981 5.012)" fill="#f59392"/>
    </g>
    <g id="Group_474" data-name="Group 474" transform="translate(140.506 207.734)">
      <path id="Path_587" data-name="Path 587" d="M0,0S46.4,20.479,92.2,13.343C92.2,13.343,48.84,27.053,0,0" fill="#953092"/>
    </g>
    <g id="Group_475" data-name="Group 475" transform="translate(415.842 351.536)">
      <path id="Path_588" data-name="Path 588" d="M-.581-3.166,5.679-17.71-3.25-14.374A141.613,141.613,0,0,1-2.994.56Z" transform="translate(3.25 17.71)" fill="#953092"/>
    </g>
    <g id="Group_476" data-name="Group 476" transform="translate(348.547 117.65)">
      <path id="Path_589" data-name="Path 589" d="M0-11.887S52.511-40.631,60.724-66.5c0,0-1.485,27.1-20.042,57.693,0,0-23.182,4.106-40.682-3.08" transform="translate(0 66.5)" fill="#953092"/>
    </g>
    <g id="Group_477" data-name="Group 477" transform="translate(377.859 59.296)">
      <path id="Path_590" data-name="Path 590" d="M-2.475-.01l-.086-.045A93.723,93.723,0,0,1-13.846,10.666c1.808.258,3.616,2.709,4.708,4.493Z" transform="translate(13.846 0.055)" fill="#953092"/>
    </g>
    <g id="Group_478" data-name="Group 478" transform="translate(330.221 202.901)">
      <path id="Path_591" data-name="Path 591" d="M-1.756-9.4C16.395,7.73,37.63-.758,49.185-11.16A49.417,49.417,0,0,0,36.209-28.43,162.292,162.292,0,0,0-1.756-52.586c-.01.014-18.145,26.06,0,43.186" transform="translate(9.823 52.586)" fill="#ffd100"/>
    </g>
    <g id="Group_479" data-name="Group 479" transform="translate(343.316 219.872)">
      <path id="Path_592" data-name="Path 592" d="M-.324-.139s2.464-1.437,4.517,0,6.159,7.895,3.7,8.875S.5,11.177-1.761,3.98c0,0-.468-3.513,1.437-4.119" transform="translate(1.812 0.778)" fill="#953092"/>
    </g>
    <g id="Group_480" data-name="Group 480" transform="translate(351.414 224.302)">
      <path id="Path_593" data-name="Path 593" d="M-.515-4.582s-.15-.213-.374-.568c-.747-1.19-2.324-3.979-1.93-5.8.513-2.361.616-.719,1.745,0s10.34,1.628,19.7-14.687L24.4-20.66S19-10.639,10.76-9.407-.515-7.764-.515-7.764s1.277,4.105,0,3.182" transform="translate(2.881 25.634)" fill="#953092"/>
    </g>
  </g>
</svg>
