<svg xmlns="http://www.w3.org/2000/svg" xmlns:xlink="http://www.w3.org/1999/xlink" viewBox="-2635.839 113.267 156.905 153.465">
  <defs>
    <style>
      .cls-1 {
        fill: none;
      }

      .cls-2 {
        clip-path: url(#clip-path);
      }

      .cls-3 {
        fill: #292929;
      }

      .cls-4 {
        fill: #626262;
      }

      .cls-5 {
        fill: #717171;
        fill-rule: evenodd;
      }

      .cls-6 {
        fill: #484848;
      }
    </style>
    <clipPath id="clip-path">
      <path id="Path_281" data-name="Path 281" class="cls-1" d="M0-333.275H141.228V-196H0Z" transform="translate(0 333.275)"/>
    </clipPath>
  </defs>
  <g id="Group_283" data-name="Group 283" transform="translate(-2635.839 130.479) rotate(-7)">
    <g id="Group_282" data-name="Group 282" class="cls-2">
      <g id="Group_233" data-name="Group 233" transform="translate(0.062 0.528)">
        <path id="Path_232" data-name="Path 232" class="cls-3" d="M0-34.619,103.615-58.866c16.006,80.265,16.1,77.351,25.066,106.009h0L59.133,67.485S48.675,70.4,31.065,77.078C17.24,82.322,0-34.619,0-34.619" transform="translate(0 58.866)"/>
      </g>
      <g id="Group_234" data-name="Group 234" transform="translate(0 0)">
        <path id="Path_233" data-name="Path 233" class="cls-4" d="M-.189-35.441q1.076,6.783,2.26,13.547c.783,4.53,1.6,9.053,2.428,13.576C6.151.726,7.9,9.75,9.813,18.74c1.894,8.992,3.927,17.957,6.293,26.827,1.188,4.432,2.46,8.843,3.912,13.186.723,2.172,1.49,4.328,2.342,6.444a49.022,49.022,0,0,0,2.908,6.148,17.479,17.479,0,0,0,1.9,2.726,4.551,4.551,0,0,0,2.44,1.653,1.89,1.89,0,0,0,.643-.014,1.975,1.975,0,0,0,.329-.094l.386-.143,1.617-.6,3.234-1.208c2.157-.8,4.33-1.564,6.495-2.347l3.264-1.129L47.2,69.62l1.641-.538q3.28-1.084,6.586-2.095c2.209-.678,4.422-1.29,6.628-1.939l13.248-3.84,26.51-7.632,26.518-7.606.008,0a.307.307,0,0,1,.381.21l.059.206.008.026c-.263.086.6-.156-.587.2l-.015-.051-.03-.1-.125-.41-.253-.817-.5-1.636-1.011-3.27-2.025-6.541c-.671-2.182-1.354-4.361-1.991-6.554-.655-2.188-1.265-4.389-1.866-6.592l-.875-3.312L118.68,14c-.283-1.106-.54-2.218-.8-3.329l-.8-3.33L115.552.665l-1.474-6.687L111.2-19.411l-2.836-13.4L105.57-46.214c-.933-4.468-1.824-8.945-2.732-13.418l.638.411L90.529-56.165,77.572-53.16l-25.919,6L25.715-41.247,12.738-38.324Zm-.085-.108,12.92-3.165,12.927-3.14,25.869-6.21,25.889-6.123,12.946-3.056,12.958-3.006h0a.527.527,0,0,1,.632.394l0,.017c.883,4.478,1.781,8.952,2.639,13.435l2.619,13.439,2.657,13.431,1.347,6.712,1.4,6.7L115.969.573l1.488,6.68c.524,2.22,1.024,4.446,1.593,6.656l.842,3.316.887,3.3c.608,2.2,1.226,4.393,1.889,6.575.646,2.187,1.334,4.362,2.018,6.539l2.095,6.517,1.047,3.26.522,1.63.261.815.132.407.034.1.017.051c-1.176.388-.331.093-.6.173l-.009-.026-.068-.2.389.208-26.436,7.883L75.63,62.316,62.4,66.22c-2.2.658-4.418,1.284-6.6,1.971s-4.372,1.393-6.546,2.127S44.91,71.8,42.738,72.54c-2.16.777-4.33,1.529-6.483,2.326l-3.229,1.2-1.615.6-.423.156a3.266,3.266,0,0,1-.5.139,3.149,3.149,0,0,1-1.073.023,4.259,4.259,0,0,1-1.838-.8,8.412,8.412,0,0,1-1.363-1.27,18.744,18.744,0,0,1-2.035-2.929A50.352,50.352,0,0,1,21.2,65.662c-.86-2.151-1.633-4.33-2.356-6.522-1.431-4.389-2.675-8.828-3.835-13.286-2.309-8.917-4.278-17.91-6.107-26.928Q6.2,5.393,3.915-8.215c-.774-4.533-1.5-9.076-2.205-13.62S.32-30.926-.321-35.48a.063.063,0,0,1,.047-.069" transform="translate(0.321 60.264)"/>
      </g>
      <g id="Group_235" data-name="Group 235" transform="translate(11.738 8.633)">
        <path id="Path_234" data-name="Path 234" class="cls-3" d="M0-27.743,110.46-47.175s10.964,79.452,18.534,109.943h0L58.356,76.04S28.647,66.92,17.875,59.358,0-27.743,0-27.743" transform="translate(0 47.175)"/>
      </g>
      <g id="Group_236" data-name="Group 236" transform="translate(11.676 8.105)">
        <path id="Path_235" data-name="Path 235" class="cls-4" d="M-.185-28.571C.39-23.053,1.041-17.543,1.737-12.039l1.07,8.28Q3.359.378,3.958,4.509t1.255,8.25q.644,4.122,1.356,8.232c.957,5.478,2.008,10.939,3.268,16.346q.945,4.054,2.1,8.046a60.247,60.247,0,0,0,2.772,7.776,18.71,18.71,0,0,0,1.992,3.5,8.364,8.364,0,0,0,.627.734c.112.107.227.224.332.31a4.126,4.126,0,0,0,.372.289c.565.381,1.13.761,1.72,1.113a74.587,74.587,0,0,0,7.334,3.827c5.033,2.314,10.212,4.337,15.425,6.253q3.91,1.438,7.856,2.787c2.629.9,5.272,1.773,7.916,2.6l-.3-.016,17.668-3.275L93.329,68.03l35.354-6.45.009,0a.309.309,0,0,1,.356.236l.048.213.007.027c.54-.121-.728.2-.6.152l-.012-.053-.024-.107-.1-.428-.194-.855-.388-1.709-.775-3.419-1.4-6.866-1.326-6.879c-.447-2.292-.84-4.594-1.263-6.89s-.823-4.6-1.215-6.9l-1.2-6.9-1.176-6.9-1.142-6.91L116.035-6.439l-2.2-13.834-2.129-13.846c-.706-4.616-1.367-9.238-2.021-13.863l.615.448L96.5-45.08l-13.812,2.4L55.057-37.881,27.416-33.173,13.59-30.853Zm-.079-.112,13.783-2.566,13.788-2.539L54.9-38.795l27.6-4.921L96.3-46.17l13.812-2.4a.529.529,0,0,1,.612.429c0,.005,0,.014,0,.019l1.926,13.869,1.954,13.868,2.02,13.858L117.668.394q.52,3.463,1.08,6.919l1.106,6.914,1.139,6.909c.371,2.3.783,4.6,1.187,6.9s.81,4.6,1.242,6.89.833,4.593,1.288,6.882l1.354,6.868,1.473,6.842.809,3.4.405,1.7.2.851c.035.141.065.284.1.424l.029.105.014.053c.135-.017-1.135.3-.6.149l-.007-.027-.058-.211.365.234L93.516,69.022,75.869,72.409,58.217,75.77a.621.621,0,0,1-.3-.016c-2.672-.825-5.318-1.688-7.963-2.579s-5.275-1.812-7.9-2.763-5.226-1.956-7.816-3-5.162-2.137-7.7-3.314a75.555,75.555,0,0,1-7.459-3.91c-.606-.362-1.195-.759-1.783-1.158a5.42,5.42,0,0,1-.452-.351c-.164-.135-.292-.268-.431-.4a9.707,9.707,0,0,1-.727-.853,19.87,19.87,0,0,1-2.13-3.745,61.383,61.383,0,0,1-2.817-7.949C9.963,43.04,9.309,40.322,8.7,37.6,7.48,32.147,6.48,26.659,5.575,21.159S3.88,10.142,3.172,4.616Q2.636.472,2.151-3.677c-.321-2.767-.641-5.533-.923-8.3C.659-17.521.133-23.065-.314-28.616a.062.062,0,0,1,.051-.066" transform="translate(0.314 48.581)"/>
      </g>
      <g id="Group_237" data-name="Group 237" transform="translate(32.03 26.822)">
        <path id="Path_236" data-name="Path 236" class="cls-5" d="M-6.074-35.376c.53-1.018.935-1.793,1.4-2.683l-1.817.323c.13.731.248,1.391.419,2.361M63.665-47.839c-.164-.927-.289-1.629-.407-2.29l-1.758.312,2.165,1.978M-6.3-33.612A43,43,0,0,0-7.579-2.7C-5.756,2.773-.373,11.589,1.951,12.8-.786-2.6-3.523-17.994-6.3-33.612M72.869.513a42.876,42.876,0,0,0,2.322-27.19A42.442,42.442,0,0,0,64.556-46.256c2.787,15.681,5.526,31.09,8.313,46.77M-3.741-38.792l64.114-11.4c-10.6-8.019-22.16-11.147-35.032-8.743C12.773-56.589,3.248-49.724-3.741-38.792M72.592,2.238a44.542,44.542,0,0,1-8.943,12.416,42.409,42.409,0,0,1-12.489,8.474c.03-.292.016-.388.046-.407.276-.166.552-.329.84-.47A43.156,43.156,0,0,0,72.028,2.357a3.2,3.2,0,0,0,.28-2.14c-2.647-14.795-5.316-29.586-7.856-44.4a7.129,7.129,0,0,0-2.829-4.924,2.135,2.135,0,0,0-1.833-.5Q28.969-44.1-1.867-38.675a3.9,3.9,0,0,0-3.3,2.449A5.562,5.562,0,0,0-5.661-32.7Q-1.584-10.086,2.39,12.551a3.572,3.572,0,0,0,1.168,2.137,43.116,43.116,0,0,0,28.48,11.854c.323.013.644.057.968.087-.021.114-.04.225-.06.339a42.216,42.216,0,0,1-16.077-3.18A44.515,44.515,0,0,1,2.834,14.634c1.06,5.965,1.494,11.745,2.514,17.48,23.27-4.137,47.321-8.017,70.59-12.153-1.021-5.746-2.29-11.775-3.347-17.723M76.08,20.046c-23.64,4.2-47.036,7.768-70.671,11.968-.07-.391-.033-.186-.1-.556-.972-5.466-1.923-10.934-2.94-16.39a4.094,4.094,0,0,0-.915-1.84Q-16.489-7.363-7.074-32.982a5.139,5.139,0,0,0,.341-3.369,16.053,16.053,0,0,1-.3-1.65c.151-.1.2-.169.255-.169,2.009.033,2.956-1.266,3.981-2.8A43.482,43.482,0,0,1,59.609-51.253a3.052,3.052,0,0,0,3.075.719A8.2,8.2,0,0,1,63.7-50.72c.168.945.285,1.866.512,2.76a3.3,3.3,0,0,0,.662,1.344Q83.454-25.495,73.288.72A3.137,3.137,0,0,0,73.14,2.3c.949,5.5,1.746,11.03,2.724,16.527.068.378.134.757.216,1.215" transform="translate(10.328 60.153)"/>
      </g>
      <g id="Group_238" data-name="Group 238" transform="translate(81.049 71.589)">
        <path id="Path_237" data-name="Path 237" class="cls-5" d="M-.266,0A9.952,9.952,0,0,1,.141,1.176c.546,2.5.989,5.022,1.625,7.5a22.815,22.815,0,0,1,.186,8.881,20.5,20.5,0,0,0-.011,3.081,7.469,7.469,0,0,1,.108,1.059c-.527,4.125,1.11,7.986,1.494,12,.274,2.869,2.508,4.32,5.5,4.193a7.183,7.183,0,0,1,1.639.056c.324.063.6.374.975.625-1.055-.1-1.895-.146-2.726-.252-3.684-.471-5.1-1.083-5.86-4.517-.239-1.073-.28-2.187-.46-3.275-.2-1.212-.51-2.409-.679-3.625-.18-1.272-.265-2.56-.368-3.843-.072-.9-.13-1.8-.15-2.7a13.329,13.329,0,0,1,.04-2.607A22.368,22.368,0,0,0,.833,6.995,56.059,56.059,0,0,1-.452.079C-.39.051-.328.027-.266,0" transform="translate(0.452)"/>
      </g>
      <g id="Group_239" data-name="Group 239" transform="translate(39.178 52.135)">
        <path id="Path_238" data-name="Path 238" class="cls-5" d="M-49.116-12.835c-.369.378-.674.889-1.123,1.1a4.245,4.245,0,0,1-4.528-.07c-.983-.683-1.84-1.551-2.843-2.2a10.223,10.223,0,0,0-2.6-1.211c-1.139-.346-2.34-.49-3.514-.735-1.647-.345-3.313-.621-4.931-1.072-2.306-.643-4.567-1.451-6.869-2.12-.791-.229-1.651-.208-2.46-.39a23.677,23.677,0,0,1-2.362-.714c-.7-.235-1.387-.511-2.077-.774-.367-.137-.731-.283-1.1-.425.046-.127.093-.252.141-.379q1.635.6,3.271,1.2c.6.22,1.211.676,1.781.622a8.519,8.519,0,0,1,4.058.813c4.545,1.833,9.417,2.335,14.113,3.541a10.159,10.159,0,0,1,2.785,1.262c.9.563,1.641,1.375,2.512,1.992a3.712,3.712,0,0,0,5.283-.572c.052-.054.167-.044.253-.063l.2.2" transform="translate(83.517 21.824)"/>
      </g>
      <g id="Group_240" data-name="Group 240" transform="translate(80.195 52.278)">
        <path id="Path_239" data-name="Path 239" class="cls-5" d="M-38.1-.423c-.356.145-.705.319-1.072.429-.931.274-1.867.528-2.806.772a4.394,4.394,0,0,1-1.423.278,10.407,10.407,0,0,0-5.149,1.193A16.636,16.636,0,0,1-54.1,3.523a44.765,44.765,0,0,0-7.177,1.235c-2.088.493-2.851,1.641-2.928,3.806-.04,1.133-.033,2.267-.073,3.4a3.271,3.271,0,0,1-.369,1.478c-.051-.094-.15-.19-.148-.282.05-1.716.06-3.436.189-5.148a3.727,3.727,0,0,1,3.371-3.719c2.765-.526,5.582-.776,8.342-1.319,1.765-.35,3.454-1.057,5.2-1.524,1.267-.34,2.569-.548,3.854-.816C-43.019.461-42.2.3-41.384.106c1.057-.258,2.1-.549,3.156-.826l.124.3" transform="translate(64.792 0.72)"/>
      </g>
      <g id="Group_241" data-name="Group 241" transform="translate(82.323 73.808)">
        <path id="Path_240" data-name="Path 240" class="cls-5" d="M-23.688-39.645a17.548,17.548,0,0,1-1.419-1.712c-.685-1.061-1.312-2.163-1.909-3.277a26.229,26.229,0,0,0-4.22-5.683,9.875,9.875,0,0,1-1.249-2.129c-.108-.2-.121-.445-.231-.639-2.118-3.751-3.062-8.127-6.183-11.36a10.3,10.3,0,0,1-1.379-2.8c.1-.055.208-.11.312-.168.137.212.286.416.41.638a26.985,26.985,0,0,0,1.769,3.094,19.816,19.816,0,0,1,3.965,7.608,6.089,6.089,0,0,0,.741,1.463,5.957,5.957,0,0,1,.828,1.526,6.974,6.974,0,0,0,1.947,3.168,46.285,46.285,0,0,1,3.288,4.44c1.216,1.848,2.3,3.781,3.447,5.677-.039.051-.076.1-.115.154" transform="translate(40.279 67.413)"/>
      </g>
      <g id="Group_242" data-name="Group 242" transform="translate(76.906 81.716)">
        <path id="Path_241" data-name="Path 241" class="cls-5" d="M-1.275,0a18.313,18.313,0,0,1-.134,3.286,13.639,13.639,0,0,0,.026,5.577,11.449,11.449,0,0,1-.12,3.56,9.368,9.368,0,0,0,.549,5.141,11.04,11.04,0,0,1,.445,2.083A35.778,35.778,0,0,0,.736,25.027a30.575,30.575,0,0,0,2.6,4.385,3.8,3.8,0,0,1,.507,1.248A18.544,18.544,0,0,1-.988,19.226a2.925,2.925,0,0,0-.244-1.135c-1.072-2.183-.895-4.447-.6-6.761a10.975,10.975,0,0,0-.145-3.26A11.329,11.329,0,0,1-1.96,3.833,34.149,34.149,0,0,0-1.616.026L-1.275,0" transform="translate(2.168)"/>
      </g>
      <g id="Group_243" data-name="Group 243" transform="translate(75.324 48.997)">
        <path id="Path_242" data-name="Path 242" class="cls-5" d="M0-8.58c.059-.064.109-.171.18-.187,2.911-.664,5.683-1.688,8.837-1.5,2.628.156,5.4.281,8.043-.789a17.284,17.284,0,0,1,4.207-.6c1.741-.222,3.424-.458,4.779-1.841a4.31,4.31,0,0,1,2.378-.957,33.724,33.724,0,0,1,3.84-.129c.01.1.021.209.031.312-.238.043-.476.1-.716.125-1.563.147-3.195-.229-4.669.61a2.069,2.069,0,0,0-.587.333c-1.455,1.711-3.515,1.744-5.493,2.051-1.621.251-3.226.595-4.839.905a8.616,8.616,0,0,1-1.328.291c-2.193.077-4.388.185-6.581.131A12.317,12.317,0,0,0,3.407-9.2a32.533,32.533,0,0,1-3.34.868C.045-8.413.021-8.5,0-8.58" transform="translate(0 14.59)"/>
      </g>
      <g id="Group_244" data-name="Group 244" transform="translate(40.299 60.987)">
        <path id="Path_243" data-name="Path 243" class="cls-5" d="M0-3.768Q2.24-4,4.479-4.226a2.227,2.227,0,0,0,.578-.04c2.68-1.057,5.528-.4,8.27-.816.959-.145,1.912-.352,2.875-.464,2.539-.3,5.082-.569,7.626-.835a3.172,3.172,0,0,1,3.457,1.953c.773,1.617,1.55,3.234,2.2,4.975a3.624,3.624,0,0,1-.613-.69Q28.11-1.607,27.425-3.11C26.179-5.869,25.5-6.179,22.536-5.8c-4.043.514-8.1.962-12.158,1.314A25.9,25.9,0,0,0,5.49-3.94a27.8,27.8,0,0,1-4.6.578A4.361,4.361,0,0,1,0-3.447c0-.107,0-.214,0-.321" transform="translate(0 6.406)"/>
      </g>
      <g id="Group_245" data-name="Group 245" transform="translate(65.611 43.232)">
        <path id="Path_244" data-name="Path 244" class="cls-5" d="M-15.83-13.656a15.313,15.313,0,0,0,.75-3.85,5.787,5.787,0,0,0-1.384-2.784,14.569,14.569,0,0,0-2.081-1.87,2.147,2.147,0,0,0-2.335-.471,6.192,6.192,0,0,1-1.421.23,2.864,2.864,0,0,0-2.823,1.975,6.14,6.14,0,0,1-.592.994,3.219,3.219,0,0,0-.438.956c-.169,1.042-.273,2.095-.4,3.144-.015.127-.054.3.01.379.971,1.235,1.144,3.228,3.221,3.425.077.006.145.1.228.164a1.965,1.965,0,0,1-2.361-.83,17.519,17.519,0,0,1-1.3-2.156,3.108,3.108,0,0,1-.155-1.394c.015-.345.3-.689.274-1.021a7.128,7.128,0,0,1,1.069-3.9,3.7,3.7,0,0,1,2.987-2.138c.668-.1,1.328-.271,2-.345.437-.049,1.034-.156,1.311.071,1.307,1.064,2.541,2.221,3.763,3.382a2.458,2.458,0,0,1,.559,1.012,4.98,4.98,0,0,1,.33,1.571,8.013,8.013,0,0,1-.32,2.079,9.392,9.392,0,0,1-.768,1.556c-.042-.058-.084-.117-.127-.175" transform="translate(26.918 23.221)"/>
      </g>
      <g id="Group_246" data-name="Group 246" transform="translate(64 88.149)">
        <path id="Path_245" data-name="Path 245" class="cls-5" d="M-.1-32.793c-.009-1.159.055-2.324-.043-3.477C-.394-39.245,1.2-41.6,2.337-44.126c.5-1.109.667-2.364,1.1-3.509a15.477,15.477,0,0,1,1.639-3.572,12.091,12.091,0,0,0,2.164-4.086.766.766,0,0,1,.416-.467A6.623,6.623,0,0,1,6.2-51.986a11.923,11.923,0,0,0-2.626,5.538A24.127,24.127,0,0,1,1.687-41.79,11.839,11.839,0,0,0,.3-36.6a11.352,11.352,0,0,0,.11,3.246c.047.166-.08.383-.126.575L-.1-32.793" transform="translate(0.169 55.761)"/>
      </g>
      <g id="Group_247" data-name="Group 247" transform="translate(59.865 89.574)">
        <path id="Path_246" data-name="Path 246" class="cls-5" d="M-10.459-.163A8.188,8.188,0,0,1-10.892.9c-.515.9-1.085,1.768-1.6,2.667a19.957,19.957,0,0,0-2.455,8.812c-.093,1.483-.327,2.956-.526,4.43a1.552,1.552,0,0,1-.33.785,11.061,11.061,0,0,1-1.985,1.865c.148-.312.214-.746.461-.913,1.546-1.054,1.589-2.707,1.793-4.295.111-.834.181-1.676.217-2.518A20.479,20.479,0,0,1-11.684,1.31c.339-.52.652-1.058.975-1.588.083.038.165.077.25.115" transform="translate(17.784 0.278)"/>
      </g>
      <g id="Group_248" data-name="Group 248" transform="translate(73.385 92.401)">
        <path id="Path_247" data-name="Path 247" class="cls-5" d="M-.439,0c.072.739.188,1.479.21,2.222.042,1.456-.013,2.917.051,4.371A14.3,14.3,0,0,0,3,14.8,4.875,4.875,0,0,1,4.1,18.86a9.158,9.158,0,0,0,.153,2.1c-.222-.25-.462-.392-.479-.558a8.2,8.2,0,0,1-.07-1.913,3.75,3.75,0,0,0-.769-3A16.218,16.218,0,0,1-.685,4.18C-.615,2.806-.721,1.422-.747.045c.1-.015.2-.032.308-.045" transform="translate(0.747)"/>
      </g>
      <g id="Group_249" data-name="Group 249" transform="translate(87.239 40.631)">
        <path id="Path_248" data-name="Path 248" class="cls-5" d="M-24.779-.578a3.714,3.714,0,0,0-.678.375c-1.135.958-2.244,1.95-3.387,2.9a2.726,2.726,0,0,1-1.1.605,7.82,7.82,0,0,0-3.736,2.34,22.993,22.993,0,0,1-5.9,4.217,14.824,14.824,0,0,0-1.614,1.073c-.243.16-.5.29-.755.434-.062-.1-.124-.2-.185-.3a18.709,18.709,0,0,1,2.242-1.536,24.289,24.289,0,0,0,6.05-4.347,8.869,8.869,0,0,1,3.659-2.3A5.823,5.823,0,0,0-28.357,1.66C-27.315.8-26.314-.1-25.3-.982l.518.4" transform="translate(42.134 0.982)"/>
      </g>
      <g id="Group_250" data-name="Group 250" transform="translate(68.626 45.349)">
        <path id="Path_249" data-name="Path 249" class="cls-5" d="M-1.912-1A4.813,4.813,0,0,0-1.07,5.44,1.748,1.748,0,0,0,1.8,4.971,5.174,5.174,0,0,0,1.467-.554,2.035,2.035,0,0,0,.241-1.188,7.778,7.778,0,0,0-1.4-1.171a2.3,2.3,0,0,1,3.253.332,5.777,5.777,0,0,1,.4,5.922A2.2,2.2,0,0,1-1.321,5.8,5.656,5.656,0,0,1-3.049.05a4.858,4.858,0,0,1,.878-1.3L-1.912-1" transform="translate(3.251 1.703)"/>
      </g>
      <g id="Group_251" data-name="Group 251" transform="translate(70.148 73.585)">
        <path id="Path_250" data-name="Path 250" class="cls-5" d="M-6.016-27.076A40.85,40.85,0,0,1-10.229-46.04,57.007,57.007,0,0,0-6.016-27.076" transform="translate(10.23 46.04)"/>
      </g>
      <g id="Group_252" data-name="Group 252" transform="translate(39.288 49.083)">
        <path id="Path_251" data-name="Path 251" class="cls-5" d="M0-.008A6.859,6.859,0,0,1,1,.018C2.018.2,3.044.369,4.048.62a2.085,2.085,0,0,1,1.165.633C6.569,3.234,8.617,3.309,10.68,3.3a15.871,15.871,0,0,1,5.807,1.006,4.031,4.031,0,0,1,.6.308c.044.023.051.11.153.358-.357-.094-.6-.134-.833-.222a16.294,16.294,0,0,0-6-1.009c-2.06,0-4.1-.159-5.466-2.109A2.411,2.411,0,0,0,3.587,1C2.4.712,1.2.509.009.275.005.181,0,.086,0-.008" transform="translate(0 0.013)"/>
      </g>
      <g id="Group_253" data-name="Group 253" transform="translate(88.447 38.066)">
        <path id="Path_252" data-name="Path 252" class="cls-5" d="M-20.191-.278a24.6,24.6,0,0,0-2.062,1.529,37.424,37.424,0,0,0-2.786,2.792A9.319,9.319,0,0,1-28.8,6.548a11.333,11.333,0,0,0-4.988,3.071c-.047.054-.163.051-.549.16.339-.463.471-.8.72-.957a27.006,27.006,0,0,1,3.874-2.337A11.643,11.643,0,0,0-24.59,2.712c.909-1.231,2.407-2.029,3.659-3a1.953,1.953,0,0,1,.676-.187c.022.066.043.131.065.194" transform="translate(34.333 0.472)"/>
      </g>
      <g id="Group_254" data-name="Group 254" transform="translate(40.913 58.303)">
        <path id="Path_253" data-name="Path 253" class="cls-5" d="M0-4.02C1.639-4.746,3.268-5.4,5.162-4.809a4.339,4.339,0,0,0,1.9.063c2.809-.433,5.612-.92,8.414-1.405a9.581,9.581,0,0,0,1.2-.367c.334-.1.67-.21,1-.318.041.126.083.253.126.378a20,20,0,0,1-2.389.738c-2.451.438-4.921.758-7.368,1.212a6.125,6.125,0,0,1-3.425.058c-1.351-.5-2.607.124-3.863.551-.221.073-.45.125-.673.189C.057-3.813.028-3.917,0-4.02" transform="translate(0 6.836)"/>
      </g>
      <g id="Group_255" data-name="Group 255" transform="translate(77.751 86.799)">
        <path id="Path_254" data-name="Path 254" class="cls-5" d="M-.51,0c.232.968.523,1.924.685,2.9a38.8,38.8,0,0,1,.657,8.669,5.979,5.979,0,0,0,1.737,4.412l-.171.177a2.225,2.225,0,0,1-.5-.331A7.149,7.149,0,0,1,.372,11.907a1.915,1.915,0,0,1-.014-.388A34.706,34.706,0,0,0-.86.392.962.962,0,0,1-.813.057c.1-.017.2-.037.3-.057" transform="translate(0.867)"/>
      </g>
      <g id="Group_256" data-name="Group 256" transform="translate(74.969 48.586)">
        <path id="Path_255" data-name="Path 255" class="cls-5" d="M-19.469-.392A22.111,22.111,0,0,0-22.307.765a18.745,18.745,0,0,1-5.1,2.052,9.643,9.643,0,0,0-2.5,1.246A2.457,2.457,0,0,1-33.1,3.7c.054-.034.128-.108.154-.093,1.47.805,2.724.322,3.911-.629a1.243,1.243,0,0,1,.517-.26c2.835-.538,5.269-2.078,7.9-3.13a7.438,7.438,0,0,1,1.058-.256c.033.091.065.182.1.275" transform="translate(33.105 0.667)"/>
      </g>
      <g id="Group_257" data-name="Group 257" transform="translate(84.147 86.939)">
        <path id="Path_256" data-name="Path 256" class="cls-5" d="M-11.123-15.916a18.521,18.521,0,0,1-2.434-2.055,23.04,23.04,0,0,1-1.937-3.009c-1.126-1.843-2.238-3.695-3.352-5.543a.508.508,0,0,1,.017-.54,3.855,3.855,0,0,1,.608.6,40.9,40.9,0,0,1,2.51,4.026c1.167,2.376,2.3,4.726,4.79,6.034.032.016.023.115.034.174-.078.1-.156.208-.236.312" transform="translate(18.914 27.064)"/>
      </g>
      <g id="Group_258" data-name="Group 258" transform="translate(74.47 54.271)">
        <path id="Path_257" data-name="Path 257" class="cls-5" d="M-14.751-.363a6.14,6.14,0,0,1-.662.428,6.132,6.132,0,0,0-3.1,3.217c-.845,1.953-2.133,3.423-4.465,3.512-.838.032-1.657-.023-2.109-.991a3.252,3.252,0,0,0,3.295.258,5.925,5.925,0,0,0,1.954-1.473,15.946,15.946,0,0,0,1.4-2.438,6.514,6.514,0,0,1,3.5-2.768c.06.085.12.171.18.254" transform="translate(25.083 0.617)"/>
      </g>
      <g id="Group_259" data-name="Group 259" transform="translate(67.241 78.063)">
        <path id="Path_258" data-name="Path 258" class="cls-5" d="M-.441-15.656c-.944-1.919.431-9.507,2.008-10.966A27.4,27.4,0,0,0-.441-15.656" transform="translate(0.75 26.622)"/>
      </g>
      <g id="Group_260" data-name="Group 260" transform="translate(55.943 54.24)">
        <path id="Path_259" data-name="Path 259" class="cls-5" d="M-15.736-1.359l-11.022-.708c.161-.08.34-.241.516-.241,1.421,0,2.843,0,4.261.046,1.088.036,2.174.182,3.262.2a4.685,4.685,0,0,1,2.983.7" transform="translate(26.758 2.31)"/>
      </g>
      <g id="Group_261" data-name="Group 261" transform="translate(92.248 98.443)">
        <path id="Path_260" data-name="Path 260" class="cls-5" d="M0,0C1.592,1.5,3.172,2.943,4.7,4.445A6.18,6.18,0,0,1,5.47,5.777c.327.552.672,1.095,1.08,1.757a.976.976,0,0,1-1.122-.711c-.5-2.041-2.153-3.089-3.6-4.316A5.389,5.389,0,0,1,0,0"/>
      </g>
      <g id="Group_262" data-name="Group 262" transform="translate(80.619 103.421)">
        <path id="Path_261" data-name="Path 261" class="cls-5" d="M-4.391-12.683a5.182,5.182,0,0,1-.535-1.489,9.25,9.25,0,0,0-1.134-3.571c-.56-1.185-.919-2.466-1.406-3.824.822.448,2.971,6.406,3.076,8.884" transform="translate(7.467 21.567)"/>
      </g>
      <g id="Group_263" data-name="Group 263" transform="translate(61.745 56.146)">
        <path id="Path_262" data-name="Path 262" class="cls-5" d="M-11.7-.232c-.131.056-.271.176-.391.157-2.762-.414-5.284.535-7.8,1.508C-18.62.036-14.779-.757-11.7-.232" transform="translate(19.893 0.395)"/>
      </g>
      <g id="Group_264" data-name="Group 264" transform="translate(72.738 78.736)">
        <path id="Path_263" data-name="Path 263" class="cls-5" d="M0-10.3a14.271,14.271,0,0,0,3-7.214c.874,1.25-1.02,5.739-3,7.214" transform="translate(0 17.513)"/>
      </g>
      <g id="Group_265" data-name="Group 265" transform="translate(76.321 75.975)">
        <path id="Path_264" data-name="Path 264" class="cls-5" d="M-.2-6.256a.973.973,0,0,0,.327.122c.513-.02,1.127.093,1.5-.15a1.407,1.407,0,0,0,.229-1.28,3.77,3.77,0,0,1,.494-3.074c.032.182.139.391.087.542a4.636,4.636,0,0,0-.078,2.847A1.515,1.515,0,0,1,1.9-5.921a3.68,3.68,0,0,1-1.725.327c-.164.009-.346-.319-.521-.49L-.2-6.256" transform="translate(0.346 10.637)"/>
      </g>
      <g id="Group_266" data-name="Group 266" transform="translate(78.654 81.117)">
        <path id="Path_265" data-name="Path 265" class="cls-5" d="M-5.653-7.013q-1.981-2.319-3.96-4.64c.105-.091.21-.182.316-.272l3.963,4.618c-.106.1-.212.195-.319.294" transform="translate(9.613 11.925)"/>
      </g>
      <g id="Group_267" data-name="Group 267" transform="translate(98.596 39.422)">
        <path id="Path_266" data-name="Path 266" class="cls-5" d="M0-5.658C1.332-5.9,1.688-6.908,2.178-7.9a8.283,8.283,0,0,1,1.6-1.723c.1.147.173.223.161.243-.736,1.11-1.427,2.256-2.246,3.3a4.635,4.635,0,0,1-1.407.834C.188-5.381.093-5.52,0-5.658" transform="translate(0 9.621)"/>
      </g>
      <g id="Group_268" data-name="Group 268" transform="translate(40.026 50.509)">
        <path id="Path_267" data-name="Path 267" class="cls-5" d="M-6.424-4.051c-.491-.163-1.148-.184-1.439-.52a5.4,5.4,0,0,0-2.394-1.552,2.977,2.977,0,0,1-.667-.486l.147-.28c.849.426,1.728.805,2.539,1.3A18.081,18.081,0,0,1-6.5-4.255c.027.068.053.136.078.2" transform="translate(10.924 6.888)"/>
      </g>
      <g id="Group_269" data-name="Group 269" transform="translate(99.375 100.494)">
        <path id="Path_268" data-name="Path 268" class="cls-5" d="M-7.355-.469c-1.637.309-3.126,1.481-5.151.907L-7.379-.8c.007.11.015.22.024.329" transform="translate(12.506 0.798)"/>
      </g>
      <g id="Group_270" data-name="Group 270" transform="translate(79.834 66.743)">
        <path id="Path_269" data-name="Path 269" class="cls-5" d="M-.4,0C-.026,1.064.428,2.109.7,3.2.843,3.772.561,4.334-.344,4.354,1.122,2.741-.758,1.549-.686.133-.592.088-.5.044-.4,0" transform="translate(0.688)"/>
      </g>
      <g id="Group_271" data-name="Group 271" transform="translate(38.613 59.681)">
        <path id="Path_270" data-name="Path 270" class="cls-5" d="M-6.474-.344l-4.534.807c.629-.844,3.3-1.386,4.534-.807" transform="translate(11.008 0.585)"/>
      </g>
      <g id="Group_272" data-name="Group 272" transform="translate(101.522 50.512)">
        <path id="Path_271" data-name="Path 271" class="cls-5" d="M0-2.28C1.519-2.5,2.47-4.249,4.343-3.806L.146-1.86C.1-2,.049-2.141,0-2.28" transform="translate(0 3.878)"/>
      </g>
      <g id="Group_273" data-name="Group 273" transform="translate(71.807 54.141)">
        <path id="Path_272" data-name="Path 272" class="cls-5" d="M-.546-.021C-.315.39-.088.8.249,1.4.379.78.464.372.549-.035.656-.019.763,0,.87.019A12.746,12.746,0,0,1,.622,1.488c-.034.124-.49.276-.519.237C-.265,1.239-.591.721-.928.21-.8.134-.673.056-.546-.021" transform="translate(0.928 0.035)"/>
      </g>
      <g id="Group_274" data-name="Group 274" transform="translate(69.943 68.654)">
        <path id="Path_273" data-name="Path 273" class="cls-5" d="M0-4c.058-.935.12-1.87.18-2.8l.267.016C.44-5.857.432-4.922.424-3.983.281-3.992.14-4,0-4" transform="translate(0 6.809)"/>
      </g>
      <g id="Group_275" data-name="Group 275" transform="translate(72.303 73.512)">
        <path id="Path_274" data-name="Path 274" class="cls-5" d="M-.3,0C.222.8.745,1.592,1.257,2.374.714,2.385.062,1.6-.507.189L-.3,0" transform="translate(0.507)"/>
      </g>
      <g id="Group_276" data-name="Group 276" transform="translate(73.027 57.011)">
        <path id="Path_275" data-name="Path 275" class="cls-5" d="M-.582,0q.3,1.1.586,2.207c-.117.032-.233.063-.35.1Q-.67,1.206-.99.108L-.582,0" transform="translate(0.99)"/>
      </g>
      <g id="Group_277" data-name="Group 277" transform="translate(79.157 72.108)">
        <path id="Path_276" data-name="Path 276" class="cls-5" d="M0-3.572q.2-1.251.411-2.5c.108.018.218.033.327.05A3.366,3.366,0,0,1,0-3.572" transform="translate(0 6.073)"/>
      </g>
      <g id="Group_278" data-name="Group 278" transform="translate(70.285 71.978)">
        <path id="Path_277" data-name="Path 277" class="cls-5" d="M-.216,0q.8.5,1.6,1.01c-.04.078-.084.155-.125.233A2,2,0,0,1-.368.234C-.316.156-.267.077-.216,0" transform="translate(0.368)"/>
      </g>
      <g id="Group_279" data-name="Group 279" transform="translate(70.618 54.199)">
        <path id="Path_278" data-name="Path 278" class="cls-5" d="M-.5,0q.428.912.855,1.82c-.113.056-.229.11-.343.163L-.857.168-.5,0" transform="translate(0.857)"/>
      </g>
      <g id="Group_280" data-name="Group 280" transform="translate(28.042 110.671)">
        <path id="Path_279" data-name="Path 279" class="cls-6" d="M-26.925,0s-9.82,5.655-18.859,2.78c0,0,7.8,12.273,42.052,18.4,0,0-19.139-6.4-23.193-21.178" transform="translate(45.784)"/>
      </g>
      <g id="Group_281" data-name="Group 281" transform="translate(27.781 110.61)">
        <path id="Path_280" data-name="Path 280" class="cls-4" d="M-27.383-.064c.235.636.435,1.281.717,1.895.247.627.557,1.226.859,1.826.152.3.333.584.5.877l.252.435.277.421c.188.278.358.567.553.839l.589.814c.194.272.416.525.623.789s.42.521.647.768c.435.509.9.99,1.368,1.468s.956.937,1.463,1.374c.492.453,1.012.876,1.526,1.3.528.411,1.052.827,1.6,1.214s1.094.773,1.649,1.146,1.125.726,1.7,1.076,1.155.679,1.743,1c1.172.65,2.365,1.261,3.582,1.822.609.277,1.221.55,1.84.8s1.247.505,1.854.72l.026.009a.635.635,0,0,1,.387.811.636.636,0,0,1-.727.411l-5.744-1.181c-.955-.207-1.9-.468-2.848-.7l-2.844-.715c-.942-.259-1.876-.552-2.815-.826s-1.88-.54-2.806-.853l-2.774-.956c-.461-.162-.927-.311-1.384-.485L-26.94,15.5c-.906-.369-1.824-.708-2.72-1.1l-2.672-1.218c-.891-.406-1.745-.89-2.618-1.33s-1.708-.959-2.557-1.448-1.657-1.049-2.478-1.583c-.414-.262-.8-.561-1.2-.855s-.792-.579-1.174-.889l-1.128-.949c-.373-.32-.72-.671-1.081-1.005A15.642,15.642,0,0,1-46.518,2.87a.255.255,0,0,1,.068-.353.252.252,0,0,1,.208-.035l.019,0,1.161.315c.194.049.386.112.582.15l.594.1c.4.058.792.147,1.192.18l1.205.087c.4.043.806.005,1.209.012a11.412,11.412,0,0,0,1.21-.047c.4-.035.806-.061,1.208-.1l1.2-.177c.4-.051.795-.154,1.193-.229s.792-.17,1.183-.276.787-.2,1.173-.323.779-.227,1.16-.367.77-.259,1.146-.411.759-.289,1.13-.454c.75-.312,1.486-.659,2.2-1.042a.063.063,0,0,1,.085.026.041.041,0,0,1,0,.007Zm-.1.105Q-28.52.62-29.6,1.1c-.37.173-.75.322-1.127.479s-.763.29-1.145.437-.774.261-1.161.393-.782.237-1.176.349-.788.219-1.189.3-.8.2-1.2.256l-1.213.2c-.406.053-.816.087-1.223.131a11.542,11.542,0,0,1-1.229.072c-.411,0-.822.048-1.233.013l-1.234-.065c-.411-.025-.817-.108-1.225-.159l-.613-.089c-.2-.035-.4-.1-.6-.143l-1.2-.3.3-.383a15.308,15.308,0,0,0,1.917,2.113c.36.32.7.656,1.077.962l1.124.911c.379.3.778.57,1.167.856s.777.572,1.19.824c.818.515,1.611,1.067,2.466,1.524s1.668.979,2.545,1.391,1.72.888,2.607,1.276l2.66,1.165c.892.376,1.807.7,2.709,1.05l1.357.517c.455.165.92.306,1.379.46l2.762.906c.921.3,1.866.528,2.8.8s1.866.526,2.8.765l2.834.655c.946.212,1.885.452,2.836.64l5.714,1.1-.315,1.231c-.675-.229-1.3-.477-1.941-.746s-1.259-.55-1.882-.839c-1.241-.587-2.462-1.216-3.653-1.9-.594-.343-1.179-.7-1.761-1.066s-1.151-.748-1.714-1.142-1.123-.79-1.66-1.22-1.071-.86-1.6-1.3c-.514-.457-1.032-.908-1.522-1.39s-.965-.98-1.436-1.48-.91-1.029-1.332-1.573c-.219-.264-.426-.538-.625-.818s-.413-.549-.6-.838l-.564-.862c-.185-.289-.35-.591-.521-.888l-.252-.447-.228-.462c-.148-.309-.312-.61-.446-.926-.268-.631-.54-1.258-.747-1.909-.236-.615-.374-1.261-.549-1.891" transform="translate(46.562 0.109)"/>
      </g>
    </g>
  </g>
</svg>
