<svg xmlns="http://www.w3.org/2000/svg" xmlns:xlink="http://www.w3.org/1999/xlink" width="76.258" height="74.823" viewBox="0 0 76.258 74.823">
  <defs>
    <clipPath id="clip-path">
      <path id="Path_291" data-name="Path 291" d="M0-91.395H66.092v64.323H0Z" transform="translate(0 91.395)" fill="none"/>
    </clipPath>
  </defs>
  <g id="Group_296" data-name="Group 296" transform="matrix(0.985, -0.174, 0.174, 0.985, 0, 11.477)">
    <g id="Group_295" data-name="Group 295" transform="translate(0 0)" clip-path="url(#clip-path)">
      <g id="Group_291" data-name="Group 291" transform="translate(0.105 0.928)">
        <path id="Path_287" data-name="Path 287" d="M0-4.134l55.845-9.824s5.543,40.168,9.37,55.583h0L29.5,48.335S14.483,43.724,9.038,39.9,0-4.134,0-4.134" transform="translate(0 13.958)" fill="#2b2b2b"/>
      </g>
      <g id="Group_292" data-name="Group 292" transform="translate(0 0)">
        <path id="Path_288" data-name="Path 288" d="M-.095-4.562C.3-1.807.675.948,1.1,3.7l.627,4.172.661,4.164L3.1,16.185q.349,2.077.733,4.144c.514,2.756,1.075,5.5,1.743,8.208.329,1.353.7,2.693,1.092,4.014a29.609,29.609,0,0,0,1.389,3.82,8.723,8.723,0,0,0,.928,1.61,3.063,3.063,0,0,0,.229.264.575.575,0,0,0,.123.119l.1.082.052.042.025.02c.018.013-.1-.076-.044-.034l.013.008.836.529A39.218,39.218,0,0,0,13.95,40.9c1.248.589,2.534,1.123,3.822,1.649s2.6,1.016,3.907,1.506c2.615.975,5.27,1.9,7.92,2.752l-.5-.029c5.963-1.06,11.917-2.163,17.889-3.179,2.985-.513,5.965-1.047,8.956-1.531L64.9,40.578l.049-.008a.5.5,0,0,1,.573.407l.019.11,0,.013c.225-.048-1.943.5-1.027.258l0-.027-.01-.054-.045-.22-.093-.434-.187-.869-.371-1.738-.666-3.484L62.5,31.043l-.618-3.489-2.427-13.96L57-.361,55.815-7.347c-.4-2.33-.745-4.663-1.1-7l1.077.785q-6.972,1.275-13.963,2.448c-4.656.807-9.32,1.563-13.982,2.334-4.666.748-9.333,1.5-14.005,2.2L6.826-5.543c-2.3.341-4.611.673-6.92.98m-.137-.193c2.309-.507,4.623-.989,6.939-1.462l6.947-1.42c4.634-.929,9.275-1.82,13.917-2.709,4.645-.866,9.288-1.748,13.939-2.578q6.973-1.276,13.96-2.463l.017,0a.916.916,0,0,1,1.055.75c0,.011,0,.027,0,.037L58.324-.559c.606,4.68,1.191,9.365,1.888,14.032.334,2.336.713,4.665,1.1,6.993s.8,4.651,1.23,6.969.906,4.629,1.384,6.937l.787,3.445.429,1.711.215.854.107.428c.02.07.033.144.057.212l.018.053.008.026c.92-.223-1.248.32-1.027.257l0-.013-.035-.106.623.4L56.208,43.5c-2.962.633-5.934,1.218-8.9,1.825-5.934,1.22-11.883,2.353-17.824,3.53a1.013,1.013,0,0,1-.489-.023l-.016-.006c-2.722-.83-5.4-1.721-8.07-2.673q-2-.722-3.978-1.519C15.613,44.1,14.3,43.557,13,42.947a36.2,36.2,0,0,1-3.854-2.02l-.94-.612-.015-.01-.071-.053-.025-.021-.051-.042-.1-.084a3.176,3.176,0,0,1-.259-.243,4.985,4.985,0,0,1-.46-.533,10.743,10.743,0,0,1-1.156-2.052,31.442,31.442,0,0,1-1.436-4.13c-.4-1.382-.707-2.774-1.005-4.164-.588-2.782-1.063-5.573-1.489-8.367q-.319-2.094-.6-4.194l-.491-4.205L.608,8.008C.476,6.6.33,5.2.227,3.8.015.985-.2-1.824-.319-4.642a.11.11,0,0,1,.087-.113" transform="translate(0.319 15.402)" fill="#626262"/>
      </g>
      <g id="Group_293" data-name="Group 293" transform="translate(8.349 52.514)">
        <path id="Path_289" data-name="Path 289" d="M-4.013,0s-4.965,2.859-9.534,1.405c0,0,3.944,6.2,21.259,9.3,0,0-9.676-3.237-11.725-10.707" transform="translate(13.547)" fill="gray"/>
      </g>
      <g id="Group_294" data-name="Group 294" transform="translate(7.904 52.411)">
        <path id="Path_290" data-name="Path 290" d="M-4.243-.032l.467.912a6.054,6.054,0,0,0,.512.866,7.209,7.209,0,0,0,.562.822l.615.776c.213.249.459.476.679.716A7.135,7.135,0,0,0-.7,4.743c.25.215.476.448.746.64l.769.611.811.56c.265.191.555.353.828.533.552.354,1.13.674,1.715.973s1.173.6,1.774.864c.3.142.6.267.9.4l.883.348.1.04a1.087,1.087,0,0,1-.64,2.071c-1.948-.443-3.878-.966-5.809-1.446C.9,10.19.431,10.013-.044,9.857l-1.42-.485-1.418-.479c-.235-.083-.474-.153-.707-.247l-.688-.306L-7.019,7.115c-.457-.2-.88-.487-1.32-.727l-1.308-.75A11.031,11.031,0,0,1-10.9,4.791c-.407-.3-.822-.586-1.218-.9l-1.123-1.036c-.187-.173-.345-.386-.517-.578a5.008,5.008,0,0,1-.5-.638.442.442,0,0,1,.132-.611A.441.441,0,0,1-13.77.973l.026.007a9.665,9.665,0,0,0,1.134.3,8.483,8.483,0,0,0,1.174.159c.2.026.4.011.6.02a5.333,5.333,0,0,0,.6-.009,11.713,11.713,0,0,0,1.2-.112A16.344,16.344,0,0,0-6.67.8,15.345,15.345,0,0,0-4.4-.1a.109.109,0,0,1,.145.049Zm-.177.188a15.851,15.851,0,0,1-2.12,1.018,15.438,15.438,0,0,1-2.4.721,12.179,12.179,0,0,1-1.248.2,6.161,6.161,0,0,1-.634.052c-.212.006-.424.033-.638.02a9.214,9.214,0,0,1-1.281-.09,10.361,10.361,0,0,1-1.272-.251l.509-.661a4.341,4.341,0,0,0,.448.494c.169.163.315.341.5.491l1.106.9c.389.277.8.528,1.2.793a10.2,10.2,0,0,0,1.23.744l1.289.655c.435.208.845.459,1.3.633l2.706,1.045.675.261c.229.08.467.135.7.2l1.4.4,1.4.39c.467.125.929.27,1.4.379,1.914.361,3.83.681,5.727,1.079l-.539,2.111c-.379-.127-.7-.251-1.035-.393s-.658-.284-.979-.44q-.965-.463-1.882-1.018c-.608-.374-1.2-.766-1.776-1.2C1.079,8.474.78,8.28.516,8.034L-.3,7.329l-.764-.758c-.26-.246-.474-.543-.709-.811a8.246,8.246,0,0,1-.659-.852c-.2-.3-.41-.589-.593-.9l-.5-.949a8.424,8.424,0,0,1-.4-.991,5.359,5.359,0,0,1-.31-1.014Z" transform="translate(14.323 0.107)" fill="#626262"/>
      </g>
    </g>
  </g>
</svg>
