<svg id="Group_318" data-name="Group 318" xmlns="http://www.w3.org/2000/svg" xmlns:xlink="http://www.w3.org/1999/xlink" width="46.131" height="51.486" viewBox="0 0 46.131 51.486">
  <defs>
    <clipPath id="clip-path">
      <path id="Path_311" data-name="Path 311" d="M0-221.289H46.131V-169.8H0Z" transform="translate(0 221.289)" fill="none"/>
    </clipPath>
  </defs>
  <g id="Group_317" data-name="Group 317" clip-path="url(#clip-path)">
    <g id="Group_305" data-name="Group 305" transform="translate(0.042 11.161)">
      <path id="Path_299" data-name="Path 299" d="M-2.854-8.751a5.17,5.17,0,0,0-.188,5.524c1.123,2.3,21.018,29.674,21.018,29.674a4.1,4.1,0,0,0,4.188,2.317C25.19,28.415,36.62,19.55,36.62,19.55s6.167-2.946,5.4-7.22S10.428-20.035-2.854-8.751" transform="translate(3.719 11.405)" fill="#4d4d4d"/>
    </g>
    <g id="Group_306" data-name="Group 306" transform="translate(0 11.056)">
      <path id="Path_300" data-name="Path 300" d="M-2.918-9.008A11.162,11.162,0,0,1-1.3-10.154a11.529,11.529,0,0,1,1.8-.831,12.48,12.48,0,0,1,1.92-.514A15.92,15.92,0,0,1,4.4-11.722a19.218,19.218,0,0,1,3.97.256,28.86,28.86,0,0,1,3.873.929A37.946,37.946,0,0,1,15.98-9.154q1.831.785,3.591,1.721a68.689,68.689,0,0,1,6.79,4.142c1.094.749,2.163,1.533,3.217,2.335s2.092,1.628,3.1,2.483a75.86,75.86,0,0,1,5.826,5.412A33.814,33.814,0,0,1,41.123,9.96c.2.27.393.547.574.836a5.108,5.108,0,0,1,.479.937,1.957,1.957,0,0,1,.078.275c.02.106.029.18.042.272a4.474,4.474,0,0,1-.093,1.575,5.672,5.672,0,0,1-.864,1.879,8.862,8.862,0,0,1-1.349,1.521A14.614,14.614,0,0,1,36.662,19.5l.036-.022q-2.237,1.682-4.521,3.289c-.762.535-1.523,1.074-2.293,1.6s-1.545,1.042-2.331,1.544-1.581.989-2.392,1.453c-.406.23-.818.452-1.24.658a9.281,9.281,0,0,1-1.309.534,3.1,3.1,0,0,1-.711.127,4.4,4.4,0,0,1-.718,0A3.916,3.916,0,0,1,19.8,28.3a4.22,4.22,0,0,1-1.171-.838,4.524,4.524,0,0,1-.85-1.174l.019.033-3.146-4.232c-1.045-1.413-2.1-2.821-3.133-4.241S9.446,15,8.419,13.577L6.889,11.43,5.368,9.276q-1.515-2.159-3-4.338T-.592.572q-.735-1.1-1.455-2.2-.359-.554-.707-1.116c-.112-.191-.233-.379-.333-.574a5.552,5.552,0,0,1-.273-.607,6.01,6.01,0,0,1-.432-2.6A4.7,4.7,0,0,1-2.923-9l0,0Zm.048.051a4.631,4.631,0,0,0-.837,2.435,5.705,5.705,0,0,0,.466,2.548,5.492,5.492,0,0,0,.279.588c.1.195.225.374.341.558q.361.549.738,1.09Q-1.134-.655-.365.415,1.167,2.559,2.728,4.684L5.839,8.94l3.089,4.272,3.065,4.29,6.084,8.613a.2.2,0,0,1,.018.03v0a4.243,4.243,0,0,0,.755,1.1,3.925,3.925,0,0,0,1.069.806,3.645,3.645,0,0,0,1.288.369,4.161,4.161,0,0,0,.677.013,2.827,2.827,0,0,0,.662-.107,8.3,8.3,0,0,0,1.278-.509c.416-.2.826-.418,1.231-.644.81-.452,1.6-.945,2.378-1.451s1.549-1.028,2.313-1.558,1.523-1.067,2.272-1.618q2.246-1.654,4.441-3.377a.133.133,0,0,1,.026-.017l.01-.005A14.208,14.208,0,0,0,39.658,16.9,8.761,8.761,0,0,0,40.9,15.437a5.128,5.128,0,0,0,.755-1.709,3.888,3.888,0,0,0,.094-.916,2.814,2.814,0,0,0-.131-.876,4.534,4.534,0,0,0-.436-.814c-.173-.268-.362-.529-.558-.787A33.486,33.486,0,0,0,38.032,7.4a75.194,75.194,0,0,0-5.819-5.31C31.2,1.253,30.173.431,29.127-.364s-2.111-1.565-3.188-2.318a74.353,74.353,0,0,0-6.684-4.165c-1.151-.629-2.32-1.227-3.511-1.777s-2.4-1.054-3.641-1.485a27.815,27.815,0,0,0-3.788-1.046,18.967,18.967,0,0,0-3.908-.377,12.643,12.643,0,0,0-3.869.643A10.667,10.667,0,0,0-2.87-8.957" transform="translate(3.803 11.739)" fill="#626262"/>
    </g>
    <g id="Group_307" data-name="Group 307" transform="translate(0.487 0.367)">
      <path id="Path_301" data-name="Path 301" d="M-147.68-108.961a2.792,2.792,0,0,1-.659,3.893l-17.069,12.129A2.792,2.792,0,0,1-169.3-93.6l-22.64-31.863a2.791,2.791,0,0,1,.659-3.893l17.069-12.128a2.791,2.791,0,0,1,3.893.659Z" transform="translate(192.457 141.999)" fill="#2f2f2f"/>
    </g>
    <g id="Group_308" data-name="Group 308" transform="translate(0.279 0)">
      <path id="Path_302" data-name="Path 302" d="M-148.271-110.236l-.9-1.256-2.55-3.545c-1.1-1.527-2.459-3.362-4.005-5.478l-5.206-7.1-2.953-4.072-3.138-4.374-3.3-4.63-.847-1.193a2.454,2.454,0,0,0-.972-.815,2.594,2.594,0,0,0-.614-.192,2.619,2.619,0,0,0-.647-.023,2.335,2.335,0,0,0-.632.15,2.58,2.58,0,0,0-.283.127c-.092.053-.228.139-.3.189l-10.163,7.155-5.236,3.664-1.321.917-.33.229a3.43,3.43,0,0,0-.292.231,2.553,2.553,0,0,0-.471.565,2.6,2.6,0,0,0-.376,1.416,2.67,2.67,0,0,0,.128.733,2.56,2.56,0,0,0,.141.34,2.977,2.977,0,0,0,.191.329l3.681,5.286,3.684,5.222c2.458,3.446,4.882,6.833,7.264,10.085s4.677,6.4,6.828,9.406l.8,1.119.4.554c.067.1.13.177.191.253a2.391,2.391,0,0,0,.2.221,2.511,2.511,0,0,0,2.173.646,2.582,2.582,0,0,0,.55-.166c.082-.045.156-.071.247-.127l.136-.086.055-.035.066-.046,1.038-.731,2.025-1.412,7.247-5c2.156-1.49,4.045-2.775,5.583-3.857l1.094-.764a2.965,2.965,0,0,0,.835-.795,2.741,2.741,0,0,0,.48-1.729,2.663,2.663,0,0,0-.3-1.085,2.156,2.156,0,0,0-.147-.253l-.053-.083m.059-.038.054.084a2.134,2.134,0,0,1,.151.256,2.736,2.736,0,0,1,.312,1.115,2.82,2.82,0,0,1-.486,1.782,3.2,3.2,0,0,1-.848.828l-1.081.782c-1.529,1.1-3.363,2.458-5.479,4l-7.1,5.2-2,1.447-1.032.74-.065.047-.08.053-.135.087c-.09.058-.216.116-.324.172a3.218,3.218,0,0,1-.687.215,3.091,3.091,0,0,1-2.719-.805,3.019,3.019,0,0,1-.253-.276c-.079-.1-.155-.2-.216-.287l-.394-.555-.794-1.124c-2.129-3.02-4.335-6.233-6.636-9.543s-4.688-6.723-7.134-10.178l-3.72-5.2-3.781-5.216a3.351,3.351,0,0,1-.222-.362,2.947,2.947,0,0,1-.177-.4,3.08,3.08,0,0,1-.166-.846,3.034,3.034,0,0,1,.4-1.664,3.025,3.025,0,0,1,.541-.68,3.986,3.986,0,0,1,.333-.275l.325-.237,1.3-.945,5.183-3.739,10.1-7.243.038-.027.054-.036.08-.051c.056-.034.1-.068.165-.1a3.161,3.161,0,0,1,.4-.189,3.089,3.089,0,0,1,.823-.2,3.334,3.334,0,0,1,.843.023,3.316,3.316,0,0,1,.8.249,3.205,3.205,0,0,1,1.268,1.059l.848,1.192,3.286,4.64,3.1,4.4,2.874,4.129,4.989,7.251c1.49,2.156,2.774,4.045,3.856,5.585l2.508,3.575.891,1.263v0" transform="translate(193.227 143.66)" fill="#626262"/>
    </g>
    <g id="Group_309" data-name="Group 309" transform="translate(3.517 3.042)">
      <path id="Path_303" data-name="Path 303" d="M-119.877-88.32a2.792,2.792,0,0,1-.659,3.893l-13.086,9.3a2.792,2.792,0,0,1-3.893-.659l-18.193-25.6a2.792,2.792,0,0,1,.659-3.893l13.086-9.3a2.792,2.792,0,0,1,3.893.659Z" transform="translate(156.224 115.099)" fill="#343434"/>
    </g>
    <g id="Group_310" data-name="Group 310" transform="translate(3.303 2.676)">
      <path id="Path_304" data-name="Path 304" d="M-120.485-89.592l-.735-1.026c-.48-.67-1.181-1.653-2.089-2.895s-2.018-2.742-3.287-4.468l-4.278-5.785c-1.563-2.123-3.229-4.442-4.987-6.9l-2.7-3.783-.345-.486a2.972,2.972,0,0,0-.341-.406,2.336,2.336,0,0,0-.884-.543,2.523,2.523,0,0,0-1.042-.126,2.355,2.355,0,0,0-1,.326l-.131.082-.033.021-.017.011-.064.045-.253.178-.508.357-1.023.719-2.067,1.453-4.208,2.954-4.285,2.988a11.146,11.146,0,0,0-1.03.752,2.475,2.475,0,0,0-.65,1,2.591,2.591,0,0,0,.312,2.336l2.995,4.319,3.007,4.271c2,2.824,4,5.58,5.95,8.235s3.838,5.222,5.6,7.676l.655.914.081.113.077.1a1.433,1.433,0,0,0,.162.185,1.469,1.469,0,0,0,.179.168,1.459,1.459,0,0,0,.194.149,2.523,2.523,0,0,0,1.832.405,1.412,1.412,0,0,0,.231-.05,1.412,1.412,0,0,0,.224-.071,1.451,1.451,0,0,0,.21-.089,1.48,1.48,0,0,0,.207-.112l.111-.07.027-.017.015-.009.053-.037.213-.15.423-.3,1.657-1.15,5.937-4.064c1.766-1.213,3.315-2.256,4.573-3.139a4.457,4.457,0,0,0,.838-.673,2.557,2.557,0,0,0,.5-.8,2.741,2.741,0,0,0,.161-1.467,2.793,2.793,0,0,0-.3-.872c-.106-.182-.168-.273-.169-.273m.056-.041,0,0s.062.09.171.274a2.868,2.868,0,0,1,.313.9,2.825,2.825,0,0,1-.157,1.511,2.812,2.812,0,0,1-.5.832,4.561,4.561,0,0,1-.842.707c-1.248.9-2.743,2.017-4.469,3.286l-5.791,4.269-1.631,1.187-.42.3-.211.152-.053.038-.067.044-.11.07a2.261,2.261,0,0,1-.252.141,2.023,2.023,0,0,1-.273.12,1.938,1.938,0,0,1-.279.092,1.926,1.926,0,0,1-.288.065,3.079,3.079,0,0,1-2.291-.5,1.959,1.959,0,0,1-.243-.187,1.953,1.953,0,0,1-.224-.211,1.919,1.919,0,0,1-.2-.233l-.1-.122-.081-.114-.648-.919c-1.738-2.47-3.533-5.1-5.407-7.813s-3.81-5.512-5.819-8.328l-3.044-4.245-3.1-4.265c-.06-.094-.122-.178-.179-.282a2.834,2.834,0,0,1-.158-.325,2.273,2.273,0,0,1-.116-.333,2.526,2.526,0,0,1-.077-.345,2.987,2.987,0,0,1,.111-1.4,2.948,2.948,0,0,1,.739-1.2,4.083,4.083,0,0,1,.537-.44l.53-.387,4.231-3.063,4.175-3,2.052-1.474,1.015-.729.5-.362.252-.181.063-.045.047-.032.032-.021.13-.084a3.134,3.134,0,0,1,2.674-.292,3.083,3.083,0,0,1,1.158.71,3.775,3.775,0,0,1,.43.509l.346.486,2.684,3.793c1.74,2.468,3.383,4.8,4.873,6.979l4.056,5.943c1.212,1.766,2.255,3.315,3.138,4.574s1.572,2.251,2.046,2.925l.726,1.031" transform="translate(157.018 116.757)" fill="#626262"/>
    </g>
    <g id="Group_311" data-name="Group 311" transform="translate(33.287 38.487)">
      <path id="Path_305" data-name="Path 305" d="M-11.846-2.608a1.7,1.7,0,0,1-.4,2.369L-12.7.084a1.7,1.7,0,0,1-2.369-.4l-.054-.076a1.7,1.7,0,0,1,.4-2.368l.455-.323a1.7,1.7,0,0,1,2.369.4Z" transform="translate(15.438 3.398)" fill="#949494"/>
    </g>
    <g id="Group_312" data-name="Group 312" transform="translate(32.982 38.202)">
      <path id="Path_306" data-name="Path 306" d="M-12.76-3.614s-.027-.04-.082-.106a1.2,1.2,0,0,0-.271-.25,1.239,1.239,0,0,0-.518-.2,1.692,1.692,0,0,0-.671.048A1.958,1.958,0,0,0-14.636-4a1.324,1.324,0,0,0-.15.08c-.036.017-.138.1-.168.115-.128.1-.261.2-.4.293a1.775,1.775,0,0,0-.312.271,1.4,1.4,0,0,0-.347.781,1.593,1.593,0,0,0,.01.462,1.48,1.48,0,0,0,.148.466,1.328,1.328,0,0,0,.736.7,1.228,1.228,0,0,0,.974-.045,4.418,4.418,0,0,0,.745-.575l.093-.073c.025-.021.048-.043.074-.062.05-.039.092-.086.139-.127a2.514,2.514,0,0,0,.233-.276,1.69,1.69,0,0,0,.291-.61,1.3,1.3,0,0,0,.013-.558A1.3,1.3,0,0,0-12.69-3.5l-.071-.114Zm.058-.039.074.113a2.948,2.948,0,0,1,.184.346,2.379,2.379,0,0,1,.174.6,1.667,1.667,0,0,1-.1.859,1.557,1.557,0,0,1-.268.439,1.682,1.682,0,0,1-.2.189c-.036.029-.074.056-.111.084s-.067.046-.1.067a2.618,2.618,0,0,1-.995.432A2.422,2.422,0,0,1-15.19-.632a2.327,2.327,0,0,1-.975-.676,1.976,1.976,0,0,1-.338-.538,1.69,1.69,0,0,1-.126-.636,1.973,1.973,0,0,1,.4-1.21,1.939,1.939,0,0,1,.443-.428c.137-.1.274-.191.408-.28a2.107,2.107,0,0,1,.237-.134L-15-4.6c.044-.018.088-.03.132-.044a1.533,1.533,0,0,1,.516-.067,1.763,1.763,0,0,1,.835.245,2.2,2.2,0,0,1,.493.4,2.384,2.384,0,0,1,.248.3c.054.071.077.111.077.111Z" transform="translate(16.629 4.709)" fill="#626262"/>
    </g>
    <g id="Group_313" data-name="Group 313" transform="translate(20.303 6.658)">
      <path id="Path_307" data-name="Path 307" d="M-1.024,0l-.31,29.858" transform="translate(1.334)" fill="#fff"/>
    </g>
    <g id="Group_314" data-name="Group 314" transform="translate(20.009 6.627)">
      <path id="Path_308" data-name="Path 308" d="M-2.109-.1s.052.467.1,1.284c.024.408.051.9.069,1.473s.033,1.211.044,1.91.01,1.458-.014,2.26S-2,8.471-2.056,9.345s-.1,1.778-.107,2.7.016,1.852.056,2.785.081,1.867.089,2.786.017,1.823.026,2.7c.005.437,0,.868,0,1.288s-.009.833-.021,1.234c-.017.8-.048,1.56-.076,2.259-.064,1.4-.139,2.565-.207,3.381-.035.408-.064.728-.083.947s-.035.335-.035.335a.035.035,0,0,1-.038.031.035.035,0,0,1-.031-.032s-.01-.117-.028-.335-.036-.54-.063-.948c-.051-.817-.1-1.984-.137-3.384-.014-.7-.029-1.459-.029-2.261,0-.4,0-.813,0-1.234s.009-.851.023-1.288c.027-.875.054-1.778.082-2.7s.09-1.851.147-2.783.1-1.865.114-2.784-.008-1.823-.051-2.7-.089-1.721-.094-2.523.016-1.56.033-2.26.049-1.341.084-1.909.067-1.064.1-1.472C-2.24.361-2.179-.1-2.179-.1a.035.035,0,0,1,.039-.03.035.035,0,0,1,.03.031" transform="translate(2.749 0.135)" fill="#626262"/>
    </g>
    <g id="Group_315" data-name="Group 315" transform="translate(25.112 16.352)">
      <path id="Path_309" data-name="Path 309" d="M-2.814,0l-.853,14.037" transform="translate(3.667)" fill="#fff"/>
    </g>
    <g id="Group_316" data-name="Group 316" transform="translate(24.933 16.325)">
      <path id="Path_310" data-name="Path 310" d="M-3.517-.1s.043.223.076.61c.017.194.035.429.043.7s.01.572.01.9S-3.4,2.8-3.444,3.176s-.117.77-.193,1.178a9.23,9.23,0,0,0-.156,1.263,11.8,11.8,0,0,0,.005,1.314c.02.442.047.884.038,1.316s-.011.859-.023,1.271a20.463,20.463,0,0,1-.188,2.245c-.089.655-.187,1.2-.268,1.58s-.142.6-.142.6a.035.035,0,0,1-.044.024.036.036,0,0,1-.025-.029s-.036-.222-.069-.61-.065-.939-.074-1.6A20.456,20.456,0,0,1-4.5,9.476c.038-.41.083-.834.131-1.265s.123-.866.2-1.3a11.827,11.827,0,0,0,.164-1.3,9.181,9.181,0,0,0,0-1.273c-.026-.414-.057-.815-.048-1.193s.042-.733.074-1.062.074-.628.119-.894.086-.5.127-.687c.079-.38.149-.6.149-.6a.036.036,0,0,1,.045-.023A.036.036,0,0,1-3.517-.1" transform="translate(4.584 0.125)" fill="#626262"/>
    </g>
  </g>
</svg>
