<svg xmlns="http://www.w3.org/2000/svg" viewBox="4346 1685 90.64 85.17">
  <defs>
    <style>
      .cls-1, .cls-2 {
        fill: none;
        stroke-linecap: round;
        stroke-linejoin: round;
        stroke-width: 4px;
      }

      .cls-1 {
        stroke: #5bc6fc;
      }

      .cls-2 {
        stroke: #8ed9ff;
      }
    </style>
  </defs>
  <g id="l-i-2" transform="translate(4341.94 1676.47)">
    <path id="Path_602" data-name="Path 602" class="cls-1" d="M27.62,27.88V15.53a5,5,0,0,1,5-5H65.74a5,5,0,0,1,5,5V86.7a5,5,0,0,1-5,5H32.62a5,5,0,0,1-5-5V75.61"/>
    <rect id="Rectangle_42" data-name="Rectangle 42" class="cls-2" width="14.35" height="10" rx="5" transform="translate(78.35 56)"/>
    <rect id="Rectangle_43" data-name="Rectangle 43" class="cls-2" width="14.35" height="25.62" rx="5" transform="translate(78.35 23.1)"/>
    <line id="Line_2" data-name="Line 2" class="cls-1" x2="43.12" transform="translate(27.62 22.72)"/>
    <line id="Line_3" data-name="Line 3" class="cls-1" x2="43.12" transform="translate(27.62 79.46)"/>
    <line id="Line_4" data-name="Line 4" class="cls-2" x2="7.58" transform="translate(46.21 16.53)"/>
    <line id="Line_5" data-name="Line 5" class="cls-2" x2="7.58" transform="translate(46.21 85.53)"/>
    <line id="Line_6" data-name="Line 6" class="cls-2" x2="7.58" transform="translate(81.74 73.47)"/>
    <line id="Line_7" data-name="Line 7" class="cls-1" y2="4.91" transform="translate(27.59 43.81)"/>
    <rect id="Rectangle_41" data-name="Rectangle 41" class="cls-2" width="43.12" height="14.48" rx="5" transform="translate(6.06 29.1)"/>
    <rect id="Rectangle_44" data-name="Rectangle 44" class="cls-2" width="42.15" height="23.48" rx="5" transform="translate(6.06 49.99)"/>
  </g>
</svg>
