<svg id="Group_356" data-name="Group 356" xmlns="http://www.w3.org/2000/svg" xmlns:xlink="http://www.w3.org/1999/xlink" width="475" height="571.006" viewBox="0 0 475 571.006">
  <defs>
    <clipPath id="clip-path">
      <path id="Path_487" data-name="Path 487" d="M0-571.006H475V0H0Z" transform="translate(0 571.006)" fill="none"/>
    </clipPath>
  </defs>
  <g id="Group_355" data-name="Group 355" clip-path="url(#clip-path)">
    <g id="Group_237" data-name="Group 237">
      <path id="Path_369" data-name="Path 369" d="M0,0C0,108.163-87.684,195.847-195.848,195.847S-391.693,108.163-391.693,0s87.683-195.847,195.845-195.847S0-108.164,0,0" transform="translate(439.998 270.389)" fill="#f5fbff"/>
    </g>
    <g id="Group_238" data-name="Group 238">
      <path id="Path_370" data-name="Path 370" d="M0,0A146.49,146.49,0,0,1-146.491,146.489,146.489,146.489,0,0,1-292.98,0,146.489,146.489,0,0,1-146.491-146.49,146.49,146.49,0,0,1,0,0" transform="translate(390.642 270.389)" fill="#ecf8fb"/>
    </g>
    <g id="Group_239" data-name="Group 239">
      <path id="Path_371" data-name="Path 371" d="M0,0S10.568,2.168,16.024.916,65.885-2.41,65.885-2.41,72.744.2,77.165-2.871,71.354,8.6,71.354,8.6s-15.769,7.949-16.7,8.082-21.031.648-21.031.648S12.541,14.092,12.1,13.7,0,0,0,0" transform="translate(199.695 174.234)" fill="#aa5a1f"/>
    </g>
    <g id="Group_240" data-name="Group 240">
      <path id="Path_372" data-name="Path 372" d="M0,0S15.85-2.824,36.189-14.943,51.42-15.271,57.68-27.8L46.109-26.343l-33.83,6.025-8,11.572Z" transform="translate(340.32 282.939)" fill="#aa5a1f"/>
    </g>
    <g id="Group_241" data-name="Group 241">
      <path id="Path_373" data-name="Path 373" d="M0,0S-11.115-6.338,6.937-31.672,33.844-53.728,33.844-53.728s6.31,9.077,7,16.369-3.531,19.771-8.62,24.833S16.237,2.416,9.263,1.838,0,0,0,0" transform="translate(113.477 218.987)" fill="#aa5a1f"/>
    </g>
    <g id="Group_242" data-name="Group 242">
      <path id="Path_374" data-name="Path 374" d="M0,0A11.56,11.56,0,0,1,4.283,11.377c-1.355,7.478-9.371,8.129-9.371,8.129S-53.478,24.418-81.9,5.219-116.828-55.2-116.828-55.2s9.051-9.9,11.375-18.253a97.037,97.037,0,0,1,6.867-16.861s11.086-9.959,5.252-14.441-15.462,5.843-19.195,9.872-5.364-9.529-5.364-9.529l1.1-19.3s.713-6.072-3.537-5.837S-128-114.76-128-114.76l-2.851,7.855-3.907-15.616s.432-7.55-3.357-8.958-3.586,14.278-3.4,17.423.626,11.65.626,11.65-6.082-6.611-7.694-13.9-5.935-2.739-6.092.023a46.661,46.661,0,0,1-1.746,7.919s-2-3.623-4.289-2.419S-163.6-95.592-161.8-91.8s6.341,21.367,6.341,21.367,3.836,10.312,9.717,14c0,0,1.6,36.452,5.51,48.844s19.885,52.4,50.417,73.318,39.018,21.038,41.649,26.718,24.645,40.128,11.853,76.643c0,0-12.713,15.866-25.663,22.877s-62.77,45.832-61.839,74.646,51.7,63.8,73.16,75.719c0,0,11.288,9.131,11.03,13.536s-3.429,47,3.092,49.228,32.576-66.363,32.576-66.363-11.539-4.716-21.9-17.11S-56.421,307.7-50.94,282.942-6.185,242.353,17.3,244.8s70.725,15.1,71.314,36.9-4.13,39.964-24.969,49.462l-24.681,5.594s-7.417,26.5-6.909,43.493,2.529,26.695,6.179,27.461S52.84,378.119,57.84,368.081s20.789-15.038,20.789-15.038,50.511-12.235,61.761-34.823,27.71-71.44-.941-86.72S93.64,200.118,88.5,180.277s.8-59.328,9.41-67.683c8.59-8.357,26-2.943,30.87,2.135-1.98-2.057,12.33,21.351,9.84,32.54-3.97,17.845-21.55,40-31.859,42.914-28.851,8.152-28.111,7.612-46.261,8.786S2,202.263,1.221,209.594s64.978,31.74,107.728,19.8,78.29-68.616,77.061-93.23c-1.67-33.563-11.631-50.815-38.821-78.645,0,0-15.75-27.822-47.19-32.937s-49.58-10.578-49.58-10.578L48.64,12.8s-6.79-3.193-3.4-17.455C45.26-4.654,21.851,5.978,0,0" transform="translate(215.141 157.812)" fill="#ffc5ba"/>
    </g>
    <g id="Group_243" data-name="Group 243">
      <path id="Path_375" data-name="Path 375" d="M0,0A163.982,163.982,0,0,1-19.039.492c.008,1.533.008,2.746-.008,3.4C-19.134,7.283-10.49,26.3-10.49,26.3c41.672,24,74.91-3.254,75.8-7.355S62.9,15.765,62.9,15.765C52.26,22.9,32.168,20.92,25.3,16.108s-2.412-12.032.328-16.3c1.378-2.136,1.919-10.335,2.121-18A59.676,59.676,0,0,1,5.088-19.489,11.555,11.555,0,0,1,9.371-8.113C8.017-.65,0,0,0,0" transform="translate(210.061 177.317)" fill="#f59392"/>
    </g>
    <g id="Group_244" data-name="Group 244">
      <path id="Path_376" data-name="Path 376" d="M0,0A312.2,312.2,0,0,0,33.467,20.24C38.744,1.854,28.176-43.617,26.336-37.4,24.082-29.777,14.342-18.449,2.764-24.027S-24.4-52.475-33.193-72.77c-6.5-14.99-10.585-37.507-9.865-45.151s.368-11.376.962-16.892-9.5-10.484-8.242-16.7-1.927-10.038-5.058-16.876c-2.059-4.507-3.774-12.135-4.7-16.814-1.932-2.261-4.634,1.018-4.76,3.185A46.7,46.7,0,0,1-66.6-174.1s-2-3.623-4.291-2.418-2.9,15.186-1.088,18.981,6.342,21.367,6.342,21.367,3.837,10.311,9.716,14c0,0,1.6,36.452,5.51,48.846S-30.539-20.921,0,0" transform="translate(125.354 223.556)" fill="#f59392"/>
    </g>
    <g id="Group_245" data-name="Group 245">
      <path id="Path_377" data-name="Path 377" d="M0,0S8.229,20.662-.251,33.455-17.709,51.137-29.828,51.2s1.6,6.932,5.379,8.535,21.5,11.19,30.595,16.682S22.163,86.735,22.562,94.223c0,0,14.985,23.533,8.713,50.839s-27.2,35.23-27.2,35.23,25.045,11.518,90.469,12.284,72.662.4,72.662.4-7.43.367-10.21-24.966,4.41-61.223,9.511-64.633,18.84-3.592,22.55.508c.179.2,3.28,16.251,3.159,11.352.091,3.326,4.78-7.729,15.9-13.457s25.16-5.6,36.04-8.926,5.21-10.094-2.729-18.622-11.41-16.7-23.111-29.808-17.46-23.817-37.94-28.58-53.4-9.969-53.4-9.969-1.58,13.184-8.89,19.959-34.079,15.2-48.413,4.429S56.5,9.045,56.5,9.045s-20.291,1.6-33.945-1.66C15.79,5.767,12.229,3.99,8.3,2.559,7.336,2.207,2.771-.963,2.012-1.26-.359-2.2,0,0,0,0" transform="translate(147.971 166.857)" fill="#ffd100"/>
    </g>
    <g id="Group_246" data-name="Group 246">
      <path id="Path_378" data-name="Path 378" d="M0,0C13.7-5.578,6.52-4.326-3.86-5.68s3.679-7.26,3.679-7.26,8.951-3.318,9.441-7c.469-3.676-2.92-2.126-2.92-2.126l-.32-.323c-11.18,5.055-29.9,8.318-41.066-.077C-49.372-33.235-48.222-43.68-48.222-43.68s-20.293,1.6-33.945-1.66c-6.764-1.618-10.326-3.394-14.256-4.826-.963-.352-5.527-3.522-6.286-3.818-2.373-.923-2.013,1.267-2.013,1.267s8.229,20.662-.25,33.455S-122.431-1.58-134.55-1.518s1.6,6.932,5.379,8.536,21.5,11.188,30.6,16.681,16.018,10.319,16.417,17.807c0,0,14.984,23.534,8.713,50.839s-27.2,35.231-27.2,35.231,21.366,9.819,76.166,11.931c3.54-39.518,8.049-94.911,5.951-99.612-3.3-7.379-.1-15.5,6.247-19.85s7.02-6.775-1.135-9.451C-21.589,7.895-13.689,5.578,0,0" transform="translate(252.7 219.581)" fill="#fb0"/>
    </g>
    <g id="Group_247" data-name="Group 247">
      <path id="Path_379" data-name="Path 379" d="M0,0S-8.776,1.244-14.773-5.179s-5.754-20.319-.47-25.647,8.369,3.693,8.369,3.693Z" transform="translate(190.121 124.091)" fill="#f59392"/>
    </g>
    <g id="Group_248" data-name="Group 248">
      <path id="Path_380" data-name="Path 380" d="M0,0S14.04-3.239,16.9-14.466s1.79-18.6-6.489-20.53S0,0,0,0" transform="translate(281.57 119.436)" fill="#ffc5ba"/>
    </g>
    <g id="Group_249" data-name="Group 249">
      <path id="Path_381" data-name="Path 381" d="M0,0S6,35.466,15.063,51.2a44.374,44.374,0,0,0,43.2,22.1C75.338,71.51,94.388,52.96,99.479,31.679s11.25-36.975,7.979-52.373-4.68-39.268-32.91-48.9S12.753-64.265,5.645-50.3C-5.574-28.251,0,0,0,0" transform="translate(181.752 89.126)" fill="#ffc5ba"/>
    </g>
    <g id="Group_250" data-name="Group 250">
      <path id="Path_382" data-name="Path 382" d="M0,0C-2.225-4.116-1.34-16.743-1.34-16.743l-.094-14.389s-1.9-1.059-2.449-4.407-2.306-1.089-5.25-4.579,3.216-19.1,2.283-25.438c-.861-5.853-3.422-70.165-3.343-79.937-19.055,2.5-35.817,12.338-40.608,21.735-11.226,22.04-5.644,50.292-5.644,50.292s6,35.465,15.062,51.2A44.388,44.388,0,0,0,0,0" transform="translate(238.197 162.585)" fill="#f59392"/>
    </g>
    <g id="Group_251" data-name="Group 251">
      <path id="Path_383" data-name="Path 383" d="M0,0S9.959,4.992,8.213,11.259,5.834,24.7-1.674,29.222-7.672,45.629-7.2,48s-5.473-.6-6.061-9.757-7.037-17.275-4-26.781S0,0,0,0" transform="translate(189.775 45.61)" fill="#85141f"/>
    </g>
    <g id="Group_252" data-name="Group 252">
      <path id="Path_384" data-name="Path 384" d="M0,0S1.689,8.191.08,14.748C-1.1,19.583-5.851,26.476-5.851,26.476s1.991-1.189-4.819-13.5S0,0,0,0" transform="translate(294.78 62.948)" fill="#85141f"/>
    </g>
    <g id="Group_253" data-name="Group 253">
      <path id="Path_385" data-name="Path 385" d="M0,0S-10.827-4.217,7.789-10.343s30.728-9.858,54.132-7.7,38.33,7.166,41.72,20.639-2.79,22.063-6.82,19.9-16.631-1.878-21.6-6.862c0,0-8.33,5.336-26.489-1.51,0,0-7.9,2.59-21.465-2.057S11.343.141,0,0" transform="translate(193.409 54.662)" fill="#9a2935"/>
    </g>
    <g id="Group_254" data-name="Group 254">
      <path id="Path_386" data-name="Path 386" d="M0,0S12.847-21.39,46.439-18.37,91.01-3.927,102.06,10.813s4.01,44.494,4.01,44.494,13.99-38.063-52.318-46.7S0,0,0,0" transform="translate(189.33 19.58)" fill="#c63852"/>
    </g>
    <g id="Group_255" data-name="Group 255">
      <path id="Path_387" data-name="Path 387" d="M0,0S-7.69-25.333-38.238-33.165-91.16-8.254-91.16-8.254Z" transform="translate(274 34.375)" fill="#ffb3c2"/>
    </g>
    <g id="Group_256" data-name="Group 256">
      <path id="Path_388" data-name="Path 388" d="M0,0S6.443-10.969,15.431-8.521A12.122,12.122,0,0,0,3.108-10.883C-4.235-8.262-2.646-2.089,0,0" transform="translate(202.38 91.411)" fill="#9a2430"/>
    </g>
    <g id="Group_257" data-name="Group 257">
      <path id="Path_389" data-name="Path 389" d="M0,0S6.311-8.606,15.8-5.226C22.12-2.981,20.76,0,20.76,0S10.2-4.037,0,0" transform="translate(249.13 81.991)" fill="#9a2430"/>
    </g>
    <g id="Group_258" data-name="Group 258">
      <path id="Path_390" data-name="Path 390" d="M0,0S6.963-10.39,20.663-3.247c0,0-15.72-.9-20.663,3.247" transform="translate(245.587 100.518)" fill="#9a2430"/>
    </g>
    <g id="Group_259" data-name="Group 259">
      <path id="Path_391" data-name="Path 391" d="M0,0S-8.212-6.275-13.825-2.449A10.944,10.944,0,0,0-18.421,7.8s.078-7.072,8.213-8.105S0,0,0,0" transform="translate(222.038 100.831)" fill="#9a2430"/>
    </g>
    <g id="Group_260" data-name="Group 260">
      <path id="Path_392" data-name="Path 392" d="M0,0A6.357,6.357,0,0,0,6.36-6.353,6.357,6.357,0,0,0,0-12.706,6.357,6.357,0,0,0-6.359-6.353,6.357,6.357,0,0,0,0,0" transform="translate(255.39 108.866)" fill="#9a2430"/>
    </g>
    <g id="Group_261" data-name="Group 261">
      <path id="Path_393" data-name="Path 393" d="M0,0A6.354,6.354,0,0,0,6.357-6.353,6.354,6.354,0,0,0,0-12.706,6.354,6.354,0,0,0-6.356-6.353,6.354,6.354,0,0,0,0,0" transform="translate(214.186 111.44)" fill="#9a2430"/>
    </g>
    <g id="Group_262" data-name="Group 262">
      <path id="Path_394" data-name="Path 394" d="M0,0S19.775-2.191,23.805-5c0,0-3.145,12.542-9.384,14.678S0,0,0,0" transform="translate(224.825 134.458)" fill="#9a2430"/>
    </g>
    <g id="Group_263" data-name="Group 263">
      <path id="Path_395" data-name="Path 395" d="M0,0S-7.9,1.8-7.734-9.255s4.814-1.94,4.814-1.94Z" transform="translate(188.516 118.794)" fill="#d17b7b"/>
    </g>
    <g id="Group_264" data-name="Group 264">
      <path id="Path_396" data-name="Path 396" d="M0,0,3.59-10.805s4.19.415,3.57,3.419S5.33.352,0,0" transform="translate(283.85 110.501)" fill="#f59392"/>
    </g>
    <g id="Group_265" data-name="Group 265">
      <path id="Path_397" data-name="Path 397" d="M0,0S15.772-.759,19.683,5s12.25,10.672,23.5,11.313c0,0-13.871,2.512-25.471-10.64,0,0-4.23-6.009-17.712-5.672" transform="translate(240.968 57.933)" fill="#5b340d"/>
    </g>
    <g id="Group_266" data-name="Group 266">
      <path id="Path_398" data-name="Path 398" d="M0,0A36.806,36.806,0,0,0,10.5,19.778c9.309,9.013,34.181,17.073,50.3,9.882s20.29-10.437,31.08-31.232c0,0-9.32-6.252-11.971-1.973,0,0-2.3,27.008-30.425,28.745S15.908,17.721,9.434-.384C9.441-.384,4.134-4.562,0,0" transform="translate(195.029 176.269)" fill="#e88739"/>
    </g>
    <g id="Group_267" data-name="Group 267">
      <path id="Path_399" data-name="Path 399" d="M0,0S-4.7-.148-30.838,25.851-63.961,64.359-54.111,92.213s46.2,46.152,46.2,46.152,12.76,6.994,12.424,12.878,7.076,1.925,9.691,1.337-1.432-3.809,5.027-7.135S44.021,131.37,42.854,119.5c0,0-15.5-6.415-15.133-19.3S55.959,64.563,89.389,67.215s60.961,14.474,57.65,37.219-20.72,20.209-20.72,20.209-.049,20.279,14.18,29.574,18.7,11.852,24.72,16.258,5.33-6.057,11.51-10.869,31.531-15.9,43.84-43.961,16.97-45.128,3.68-64.329-37.28-25.732-37.28-25.732L167.209,6.8S116.77,4.984,86.045-1.564s-78.522-3-78.522-3Z" transform="translate(147.971 353.025)" fill="#3054da"/>
    </g>
    <g id="Group_268" data-name="Group 268">
      <path id="Path_400" data-name="Path 400" d="M0,0C-13.3-19.2-37.28-25.732-37.28-25.732L-57.04-44.517s-5.08-.182-12.992-.641C-83.483-42.882-93.159-41.2-93.159-41.2S-27.92-14.012-19.375-1.012,2.087,30.962-10.182,60.654C-17,77.154-22.624,87.588-27.761,94.915A80.442,80.442,0,0,0-3.68,64.328C8.62,36.264,13.29,19.2,0,0" transform="translate(372.22 404.341)" fill="#4463e0"/>
    </g>
    <g id="Group_269" data-name="Group 269">
      <path id="Path_401" data-name="Path 401" d="M0,0S-62.791-44.494-106.881-9.115c0,0,15.844-15.688,39.754-17.644S-11.439-17.283,0,0" transform="translate(285.69 435.238)" fill="#1740c6"/>
    </g>
    <g id="Group_270" data-name="Group 270">
      <path id="Path_402" data-name="Path 402" d="M0,0S29.162,10.984,44.75,5.516A113.992,113.992,0,0,0,71.021-7.645S57.06,5.68,41.271,7.533,6.654,4.615,0,0" transform="translate(210.71 207.032)" fill="#e88739"/>
    </g>
    <g id="Group_271" data-name="Group 271">
      <path id="Path_403" data-name="Path 403" d="M0,0S-3.946-13.238,11.907-17.025C11.907-17.033,2.277-13.144,0,0" transform="translate(88.332 82.132)" fill="#f59392"/>
    </g>
    <g id="Group_272" data-name="Group 272">
      <path id="Path_404" data-name="Path 404" d="M0,0S6.106-2.692,10.483.6a14.684,14.684,0,0,1,5.371,7.66S9.238-1.823,0,0" transform="translate(63.264 77.657)" fill="#d17b7b"/>
    </g>
    <g id="Group_273" data-name="Group 273">
      <path id="Path_405" data-name="Path 405" d="M0,0S21.373-15.648,29.9-17.1C29.9-17.095,5.09-1.886,0,0" transform="translate(60.633 70.451)" fill="#f59392"/>
    </g>
    <g id="Group_274" data-name="Group 274">
      <path id="Path_406" data-name="Path 406" d="M0,0S3.852,10.038,4.455,14.083c0,0,1.73-5.179-1.142-9.052S0,0,0,0" transform="translate(59.451 52.409)" fill="#d17b7b"/>
    </g>
    <g id="Group_275" data-name="Group 275">
      <path id="Path_407" data-name="Path 407" d="M0,0S-26.641,19.622-98.629.845c0,0-51.224-13-3.429-21.688s83.177-11.376,83.177-11.376S-21.48-7.746,0,0" transform="translate(340.81 380.213)" fill="#ffc5ba"/>
    </g>
    <g id="Group_276" data-name="Group 276">
      <path id="Path_408" data-name="Path 408" d="M0,0C-5.191-.155-11.743,1.746-14.97,2.81c2.709,2.424,6.006,4.413,8.887,3.426C-3.539,5.367-1.511,2.771,0,0" transform="translate(245.329 137.9)" fill="#fc4e71"/>
    </g>
    <g id="Group_277" data-name="Group 277">
      <path id="Path_409" data-name="Path 409" d="M0,0A25.13,25.13,0,0,0,8.565-2.582c4.337-2.244,6.349-4.89,9.317-4.17a62.445,62.445,0,0,0,7.288,1.8c4.567.814,8.538-.492,10.678.532S33.117-1.564,32.4-1.056s-8.816,5.3-16.8,4.843C12.394,3.607-5.59,1.3,0,0" transform="translate(220.902 159.017)" fill="#be6677"/>
    </g>
    <g id="Group_278" data-name="Group 278">
      <path id="Path_410" data-name="Path 410" d="M0,0S2.18-4.114,1.79-6.07s-1.07-4.624.38-4.546S3.45-7.6,5.97-5.75,0,0,0,0" transform="translate(257.28 155.487)" fill="#e1a29a"/>
    </g>
    <g id="Group_279" data-name="Group 279">
      <path id="Path_411" data-name="Path 411" d="M0,0S-3.233-2.292-2.3-4.037-2.851-11.4-2.851-11.4s-1.619-.649-1.712,1.009S-5.574-3.254-7.642-3.419A48.949,48.949,0,0,0,0,0" transform="translate(219.956 159.799)" fill="#d78080"/>
    </g>
    <g id="Group_280" data-name="Group 280">
      <path id="Path_412" data-name="Path 412" d="M0,0S-16.4,5.265-17.4,12.956s6.229,17.377,3.67,28.142S-33.14,89.794-61,102.758c-15.189,7.065-35.71.086-42.31-.626s-24.639,5.007-29.509,8,8.63,21.375,87.649,9.983c0,0-11.689,6.932-34.47,8.442s-81.907-10.827-87.207-21.531,46.637-11.165,46.637-11.165,35.12,2.567,61.481-10.867,25.94-54.571,25.94-54.571S-36.02,18.362-39.21,16.634A51.479,51.479,0,0,1-17.43,3.779,126.439,126.439,0,0,1,0,0" transform="translate(383.1 261.76)" fill="#f59392"/>
    </g>
    <g id="Group_281" data-name="Group 281">
      <path id="Path_413" data-name="Path 413" d="M0,0C-21.646-5.492-29.764-25.968-39.824-43.695s10.874-15.978,7.069-28.291S-18.319-90.6-1.706-100.709,67.93-123.647,67.93-123.647l-9.12-13.787c-28.309-2.636-59.859-.289-59.859-.289l-7.523,4.569s-4.705-.149-30.837,25.85S-72.533-68.795-62.684-40.941s46.2,46.152,46.2,46.152S-3.727,12.2-4.062,18.089s7.076,1.925,9.691,1.337-1.432-3.81,5.025-7.135c5.059-2.6,17.366-9.741,21.929-18.4.126-.4.188-.618.188-.618S21.646,5.492,0,0" transform="translate(156.535 486.179)" fill="#1740c6"/>
    </g>
    <g id="Group_282" data-name="Group 282">
      <path id="Path_414" data-name="Path 414" d="M0,0C-21.42-2.84-21.97-22.314-7.85-37.555S-27.91-77.73-27.91-77.73h-.01c7,5.727,10.65,13.1,9.311,22.228-3.311,22.743-20.71,20.209-20.71,20.209S-39.38-15.014-25.14-5.719-6.449,6.134-.43,10.539,4.9,4.482,11.08-.329a50.925,50.925,0,0,1,4.271-2.808C10.24-.681,5,.665,0,0" transform="translate(313.6 512.96)" fill="#1740c6"/>
    </g>
    <g id="Group_283" data-name="Group 283">
      <path id="Path_415" data-name="Path 415" d="M0,0S-19.28-33.463-56.912-39.487s-75.039,9.271-79.156,13.6-6.867,13.574-3.062,19.6,15.055,17.729,15.055,17.729,4.054-8.34,31.613-15.9S-34.44-17.181,0,0" transform="translate(295.61 53.317)" fill="#f8556f"/>
    </g>
    <g id="Group_284" data-name="Group 284">
      <path id="Path_416" data-name="Path 416" d="M0,0S7.69,5.97,21.69,6.4,45.6,7.785,45.6,7.785A89.836,89.836,0,0,1,22.5,9.028C10.53,7.973.79,4.733-6.979-1.565S-2.88-1.761,0,0" transform="translate(275.88 367.491)" fill="#f59392"/>
    </g>
    <g id="Group_285" data-name="Group 285">
      <path id="Path_417" data-name="Path 417" d="M0,0S-39.67-4.788-54.182-6.313-68.7-7.848-68.7-7.848l40.507-4.49,7.969,3.113s9.53,5.579,15.03,7.879Z" transform="translate(289.13 375.158)" fill="#f59392"/>
    </g>
    <g id="Group_286" data-name="Group 286">
      <path id="Path_418" data-name="Path 418" d="M0,0C.2.022.312.039.312.039S.274-.088,0,0" transform="translate(163.049 282.111)" fill="#74baf1"/>
    </g>
    <g id="Group_287" data-name="Group 287">
      <path id="Path_419" data-name="Path 419" d="M0,0A16.969,16.969,0,0,1-3.93,9.169c-3.53,3.856-8.877,7.05-7.625,11s3.946,5.28,10.748,3.238L-12.4,30.051s-5.629-9.515-10.866-11.47c0,0,8.345-5.914,15.688-11.463S0,0,0,0" transform="translate(187.748 482.322)" fill="#f59392"/>
    </g>
    <g id="Group_288" data-name="Group 288">
      <path id="Path_420" data-name="Path 420" d="M0,0S-5.45-4.546-8.55-2.137s-7.49,14.326.04,18.262S3.64,19.363,3.64,19.363s-8.73,7.417-8.65,7.91S-26.02,11.445-27.04,11s3.73-14.8,3.73-14.8l9.86-1.166L-2.92-7.144Z" transform="translate(279.13 496.741)" fill="#f59392"/>
    </g>
    <g id="Group_289" data-name="Group 289">
      <path id="Path_421" data-name="Path 421" d="M0,0S.08-.172-.09.242a22.5,22.5,0,0,0-1.74,8.74c-.181,6.259,4,17.009,13.41,23.449,3.79,2.589.29,1.493-1.32,3.794S-1.8,72.965-2.45,74.592s-4.71,8.028-14.93,3.02-9.2-23.016-9.429-28.752S-17.79.884-17.79.884A4.012,4.012,0,0,1-14.98.125C-13.141.219-6.931-.437,0,0" transform="translate(265.78 491.515)" fill="#f8556f"/>
    </g>
    <g id="Group_290" data-name="Group 290">
      <path id="Path_422" data-name="Path 422" d="M0,0A49.431,49.431,0,0,0-5.1,14.318c-1.77,8.755-6.673,42.053-4.849,48.8S-5.1,75.993,2.19,78.591c0,0-17.354,3.591-20.257-19.255s8.2-52.02,8.2-52.02L-8.4.517S-7.79-.437-5.59-.242C-3.39-.062,0,0,0,0" transform="translate(256.39 491.882)" fill="#ffb3c2"/>
    </g>
    <g id="Group_291" data-name="Group 291">
      <path id="Path_423" data-name="Path 423" d="M0,0S-10.58-.155-12.92-7.667s3.15-18.809,3.15-18.809,6.1-10.648,6.45-9.88,4.881,8.864,4.881,8.864L9.58-21.5a3.925,3.925,0,0,1-1.22,1.2c-.71.376-3.87,6.588-3.87,6.588Z" transform="translate(269.5 546.649)" fill="#c63852"/>
    </g>
    <g id="Group_292" data-name="Group 292">
      <path id="Path_424" data-name="Path 424" d="M0,0S-10.761-9.192-12.921-10.14-14.58-7.753-14.24-6.556-2.561,2.128-2.561,2.128.18,3.052,0,0" transform="translate(278.81 530.016)" fill="#ffb3c2"/>
    </g>
    <g id="Group_293" data-name="Group 293">
      <path id="Path_425" data-name="Path 425" d="M0,0S-11.38-9.209-12.109-8.418-13.949-5.2-7.39-1.369.69,2.363,0,0" transform="translate(274.69 535.297)" fill="#ffb3c2"/>
    </g>
    <g id="Group_294" data-name="Group 294">
      <path id="Path_426" data-name="Path 426" d="M0,0S-9.6-6.251-11.2-6.188s-2.731,1.384-1.21,3.4,11.26,6.04,11.26,6.04S2.311,1.463,0,0" transform="translate(272.85 540.742)" fill="#ffb3c2"/>
    </g>
    <g id="Group_295" data-name="Group 295">
      <path id="Path_427" data-name="Path 427" d="M0,0S2.983-.562,7.642,1.91s9.323,4.773,12.565,6.064,5.934,12.322-1.434,25S-.556,70.955-.556,70.955s-3.985,14.889-13.865,13.4-8.071-26.648-8.071-26.648L-24.4,29.755a6.75,6.75,0,0,1,3.592-3.326C-18.248,25.506,2.545,16.923,0,0" transform="translate(196.141 485.928)" fill="#f8556f"/>
    </g>
    <g id="Group_296" data-name="Group 296">
      <path id="Path_428" data-name="Path 428" d="M0,0,.665,9.732,1.8,26.429s9.012-2.575,10.553-3.78,5.3-8.73,5.981-11.093,3.608-21.14,3.608-21.14.424-6.478-1.189-6.1S14.616-9.193,7.64-5.141-.11-1.619,0,0" transform="translate(171.747 515.698)" fill="#c63852"/>
    </g>
    <g id="Group_297" data-name="Group 297">
      <path id="Path_429" data-name="Path 429" d="M0,0S2.16,10.085-3.953,23.377s-17.443,48.194-30,51c0,0,1.676,5.547,8.353,4.96s12.917-17.783,12.917-17.783L7.25,22.367S13.826,6.306,6.09,2.737Z" transform="translate(210.271 491.155)" fill="#ffb3c2"/>
    </g>
    <g id="Group_298" data-name="Group 298">
      <path id="Path_430" data-name="Path 430" d="M0,0,13.8-5.3S16.136-6.338,16.41-3.9,10.662-.156,10.662-.156L.619,3.208C.619,3.216-2.113,1.878,0,0" transform="translate(170.689 519.696)" fill="#ffb3c2"/>
    </g>
    <g id="Group_299" data-name="Group 299">
      <path id="Path_431" data-name="Path 431" d="M0,0S13.52-2.965,14.585-3.388s3.3,2.332,1.276,3.459S.893,2.535.893,2.535-2.176,1.737,0,0" transform="translate(170.713 525.298)" fill="#ffb3c2"/>
    </g>
    <g id="Group_300" data-name="Group 300">
      <path id="Path_432" data-name="Path 432" d="M0,0S12.808-3.763,13.646-2.746s2,2.464-.963,3.475S.251,2.715.251,2.715-2.065,1.056,0,0" transform="translate(171.339 531.346)" fill="#ffb3c2"/>
    </g>
    <g id="Group_301" data-name="Group 301">
      <path id="Path_433" data-name="Path 433" d="M0,0S25.939,41.56,16.18,80.829c0,0,27.13-15.6,35.81-31.7,0,0-6.92-24.184-25.47-33.815S0,0,0,0" transform="translate(372.08 93.946)" fill="#dce6eb"/>
    </g>
    <g id="Group_302" data-name="Group 302">
      <path id="Path_434" data-name="Path 434" d="M0,0S25.37-11.157,36.3-37.907l3.06,4.632S63.64,10.57,57.729,29.785C57.729,29.785,56.53,2,0,0" transform="translate(332.71 127.221)" fill="#ebf5f9"/>
    </g>
    <g id="Group_303" data-name="Group 303">
      <path id="Path_435" data-name="Path 435" d="M0,0S12.91-8.129,24.81-3.294c0,0,2.669-27.219,6.12-29.511C30.939-32.805,6.3-27.853,0,0" transform="translate(339.66 65.506)" fill="#ebf5f9"/>
    </g>
    <g id="Group_304" data-name="Group 304">
      <path id="Path_436" data-name="Path 436" d="M0,0A18.221,18.221,0,0,1,15.24-12.408a32.166,32.166,0,0,1,15.7-20.4S6.3-27.853,0,0" transform="translate(339.66 65.506)" fill="#dce6eb"/>
    </g>
    <g id="Group_305" data-name="Group 305">
      <path id="Path_437" data-name="Path 437" d="M0,0,24.16-35.262l6.59-8.769s.7-2.52,4.76-.908S54.73-32.547,54.73-32.547a3.339,3.339,0,0,1,1.12,5.227C53.43-23.861,32.2,8.717,32.2,8.717s-6.28,6.931-8.41,6.713C17.38,14.757-.23,4.007-.23,4.007A4.581,4.581,0,0,1,0,0" transform="translate(403.92 224.196)" fill="#dce6eb"/>
    </g>
    <g id="Group_306" data-name="Group 306">
      <path id="Path_438" data-name="Path 438" d="M0,0,14.439,8.621s4.281,4.82,7.76,3.358S43.92-18,43.92-18s4.119-4.226.33-5.821S25.609-36.529,25.609-36.529l-6.6,8.769Z" transform="translate(409.06 216.695)" fill="#ebf5f9"/>
    </g>
    <g id="Group_307" data-name="Group 307">
      <path id="Path_439" data-name="Path 439" d="M0,0S4.48-.813,5.74,1.346,2.091,7.088-.3,5.3,0,0,0,0" transform="translate(413.64 223.735)" fill="#ebf5f9"/>
    </g>
    <g id="Group_308" data-name="Group 308">
      <path id="Path_440" data-name="Path 440" d="M0,0,29.35-9.389S11.88-1.815,11.96-1.807,0,0,0,0" transform="translate(420.75 205.389)" fill="#dce6eb"/>
    </g>
    <g id="Group_309" data-name="Group 309">
      <path id="Path_441" data-name="Path 441" d="M0,0,24.51-7.277l-2.67,3.27Z" transform="translate(416.76 212.353)" fill="#dce6eb"/>
    </g>
    <g id="Group_310" data-name="Group 310">
      <path id="Path_442" data-name="Path 442" d="M0,0S19.13-10.343,25.04-23.276,40.46-67.02,44.26-69.014c0,0-35.49,5.719-49.16-2.809,0,0,2.679,5.211,2.12,13.715S-26.41-22.157-26.41-22.157l-4.08,3.693C-30.49-18.472-15.43-15.632,0,0" transform="translate(430.74 389.249)" fill="#dce6eb"/>
    </g>
    <g id="Group_311" data-name="Group 311">
      <path id="Path_443" data-name="Path 443" d="M0,0,14.437-39.559s2.527-10.365,5.275-9.935,5.747,1.158,5.019,4.162S11.273-2.958,11.273-2.958L8.314,4.616.79,15.248Z" transform="translate(72.009 293.337)" fill="#dce6eb"/>
    </g>
    <g id="Group_312" data-name="Group 312">
      <path id="Path_444" data-name="Path 444" d="M0,0S9.277-41.255,19.666-43.766c0,0-13.434-26.461-7-47.021,0,0-23.017,15.373-24.59,18.605s-8.345,34.651-7.837,40.214S-17.121-15.209,0,0" transform="translate(42.502 281.843)" fill="#ebf5f9"/>
    </g>
    <g id="Group_313" data-name="Group 313">
      <path id="Path_445" data-name="Path 445" d="M0,0C-2.106,6.572-7.875,33.894-7.406,39.041c.04.447.094.939.165,1.457C-3.836,33.033,2.928,19.686,8.783,17.269,8.783,17.269.642,12.5,0,0" transform="translate(30.148 210.825)" fill="#dce6eb"/>
    </g>
    <g id="Group_314" data-name="Group 314">
      <path id="Path_446" data-name="Path 446" d="M0,0S28.739-8.872,45.508-21.461c0,0,13.411-36.021-8.368-76.259,0,0-33.053,31.147-47.153,35.677C-10.013-62.06,21.333-29.488,0,0" transform="translate(34.462 436.959)" fill="#dce6eb"/>
    </g>
    <g id="Group_315" data-name="Group 315">
      <path id="Path_447" data-name="Path 447" d="M0,0,14.953-14.685l.971-16.938L.6-39.564l-12.44,19.083S2.372-17.234,0,0" transform="translate(11.837 348.596)" fill="#ebf5f9"/>
    </g>
    <g id="Group_316" data-name="Group 316">
      <path id="Path_448" data-name="Path 448" d="M0,0-.165-.086c-2.051,6.783-9.347,9.9-9.347,9.9,4.619.108,7.2,3.613,8.564,6.666Z" transform="translate(27.761 316.965)" fill="#dce6eb"/>
    </g>
    <g id="Group_317" data-name="Group 317">
      <path id="Path_449" data-name="Path 449" d="M0,0A5.559,5.559,0,0,0,5.56-5.555,5.559,5.559,0,0,0,0-11.11,5.559,5.559,0,0,0-5.561-5.555,5.559,5.559,0,0,0,0,0" transform="translate(453.81 122.581)" fill="#dce6eb"/>
    </g>
    <g id="Group_318" data-name="Group 318">
      <path id="Path_450" data-name="Path 450" d="M0,0A5.557,5.557,0,0,0,5.558-5.555,5.556,5.556,0,0,0,0-11.11,5.558,5.558,0,0,0-5.559-5.555,5.558,5.558,0,0,0,0,0" transform="translate(143.673 102.537)" fill="#dce6eb"/>
    </g>
    <g id="Group_319" data-name="Group 319">
      <path id="Path_451" data-name="Path 451" d="M0,0A5.558,5.558,0,0,0,5.559-5.556,5.557,5.557,0,0,0,0-11.109,5.557,5.557,0,0,0-5.559-5.556,5.557,5.557,0,0,0,0,0" transform="translate(120.555 312.536)" fill="#dce6eb"/>
    </g>
    <g id="Group_320" data-name="Group 320">
      <path id="Path_452" data-name="Path 452" d="M0,0A6.6,6.6,0,0,0,6.6-6.6a6.6,6.6,0,0,0-6.6-6.6A6.607,6.607,0,0,0-6.609-6.6,6.607,6.607,0,0,0,0,0" transform="translate(429.51 437.303)" fill="#dce6eb"/>
    </g>
    <g id="Group_321" data-name="Group 321">
      <path id="Path_453" data-name="Path 453" d="M0,0A3.179,3.179,0,0,0,3.181-3.184,3.179,3.179,0,0,0,0-6.367,3.187,3.187,0,0,0-3.189-3.184,3.187,3.187,0,0,0,0,0" transform="translate(331.8 155.316)" fill="#dce6eb"/>
    </g>
    <g id="Group_322" data-name="Group 322">
      <path id="Path_454" data-name="Path 454" d="M0,0A3.187,3.187,0,0,0,3.189-3.184,3.188,3.188,0,0,0,0-6.368,3.18,3.18,0,0,0-3.18-3.184,3.179,3.179,0,0,0,0,0" transform="translate(459.66 270.389)" fill="#dce6eb"/>
    </g>
    <g id="Group_323" data-name="Group 323">
      <path id="Path_455" data-name="Path 455" d="M0,0A3.185,3.185,0,0,0,3.186-3.185,3.185,3.185,0,0,0,0-6.369,3.186,3.186,0,0,0-3.187-3.185,3.186,3.186,0,0,0,0,0" transform="translate(51.693 486.007)" fill="#dce6eb"/>
    </g>
    <g id="Group_324" data-name="Group 324">
      <path id="Path_456" data-name="Path 456" d="M0,0A1.219,1.219,0,0,0,1.22-1.213,1.219,1.219,0,0,0,0-2.426,1.21,1.21,0,0,0-1.21-1.213,1.21,1.21,0,0,0,0,0" transform="translate(428.87 278.987)" fill="#dce6eb"/>
    </g>
    <g id="Group_325" data-name="Group 325">
      <path id="Path_457" data-name="Path 457" d="M0,0A1.213,1.213,0,0,0,1.214-1.213,1.213,1.213,0,0,0,0-2.426,1.213,1.213,0,0,0-1.213-1.213,1.213,1.213,0,0,0,0,0" transform="translate(99.667 336.587)" fill="#dce6eb"/>
    </g>
    <g id="Group_326" data-name="Group 326">
      <path id="Path_458" data-name="Path 458" d="M0,0A1.213,1.213,0,0,0,1.213-1.213,1.213,1.213,0,0,0,0-2.426,1.214,1.214,0,0,0-1.214-1.213,1.214,1.214,0,0,0,0,0" transform="translate(146.225 131.735)" fill="#dce6eb"/>
    </g>
    <g id="Group_327" data-name="Group 327">
      <path id="Path_459" data-name="Path 459" d="M0,0A1.219,1.219,0,0,0,1.22-1.213,1.219,1.219,0,0,0,0-2.426,1.21,1.21,0,0,0-1.21-1.213,1.21,1.21,0,0,0,0,0" transform="translate(396.63 435.246)" fill="#dce6eb"/>
    </g>
    <g id="Group_328" data-name="Group 328">
      <path id="Path_460" data-name="Path 460" d="M0,0A1.22,1.22,0,0,0,1.221-1.212,1.22,1.22,0,0,0,0-2.425,1.21,1.21,0,0,0-1.21-1.212,1.21,1.21,0,0,0,0,0" transform="translate(377.6 480.068)" fill="#dce6eb"/>
    </g>
    <g id="Group_329" data-name="Group 329">
      <path id="Path_461" data-name="Path 461" d="M0,0A1.213,1.213,0,0,0,1.213-1.213,1.213,1.213,0,0,0,0-2.426,1.213,1.213,0,0,0-1.213-1.213,1.213,1.213,0,0,0,0,0" transform="translate(47.23 160.754)" fill="#dce6eb"/>
    </g>
    <g id="Group_330" data-name="Group 330">
      <path id="Path_462" data-name="Path 462" d="M0,0C-2.975-4.076-6.545-9.569-5.926-15.085S.3-26.374.3-26.374c-7.485,2.668-12.518,5.312-13.881,6.744-4.125,4.326-6.865,13.574-3.061,19.6S-1.589,17.7-1.589,17.7,2.466,9.357,30.023,1.8C36.388.055,42.91-1.557,49.6-2.8A55.312,55.312,0,0,0,31.088.336C10.718,7.675,2.968,4.076,0,0" transform="translate(173.132 47.05)" fill="#c63852"/>
    </g>
    <g id="Group_331" data-name="Group 331">
      <path id="Path_463" data-name="Path 463" d="M0,0,29.29,3S5.721,3.817,0,0" transform="translate(431.68 332.151)" fill="#ebf5f9"/>
    </g>
    <g id="Group_332" data-name="Group 332">
      <path id="Path_464" data-name="Path 464" d="M0,0,29.05,4.85S5.47,4.17,0,0" transform="translate(428.65 340.906)" fill="#ebf5f9"/>
    </g>
    <g id="Group_333" data-name="Group 333">
      <path id="Path_465" data-name="Path 465" d="M0,0,28.189,10.272S4.89,5.884,0,0" transform="translate(424.83 347.196)" fill="#ebf5f9"/>
    </g>
    <g id="Group_334" data-name="Group 334">
      <path id="Path_466" data-name="Path 466" d="M0,0,26.85,9.891S4.66,5.665,0,0" transform="translate(421.33 355.309)" fill="#ebf5f9"/>
    </g>
    <g id="Group_335" data-name="Group 335">
      <path id="Path_467" data-name="Path 467" d="M0,0,24.92,9.857S4.32,5.665,0,0" transform="translate(416.13 362.241)" fill="#ebf5f9"/>
    </g>
    <g id="Group_336" data-name="Group 336">
      <path id="Path_468" data-name="Path 468" d="M0,0,21.942-14.114,1.338.016s5.73,7.518,6.248,16.5.8,20.443.516,20.858-2.161,7.706-2.161,7.706A32.592,32.592,0,0,0,7.428,34.464C7.068,29.487,5.9,12.08,5.9,12.08Z" transform="translate(40.93 377.114)" fill="#ebf5f9"/>
    </g>
    <g id="Group_337" data-name="Group 337">
      <path id="Path_469" data-name="Path 469" d="M0,0S7.406,26.5,3.171,42.749C3.171,42.749,8.063,20.342,0,0" transform="translate(67.546 364.8)" fill="#ebf5f9"/>
    </g>
    <g id="Group_338" data-name="Group 338">
      <path id="Path_470" data-name="Path 470" d="M0,0S14.044-8.129,14.741-8.4s2.748,1.276,3.4,4.319-.516-2.137-3.005-2.66S0,0,0,0" transform="translate(49.838 379.149)" fill="#ebf5f9"/>
    </g>
    <g id="Group_339" data-name="Group 339">
      <path id="Path_471" data-name="Path 471" d="M0,0S16.261-8.59,16.111-7.213,0,0,0,0" transform="translate(52.914 388.091)" fill="#ebf5f9"/>
    </g>
    <g id="Group_340" data-name="Group 340">
      <path id="Path_472" data-name="Path 472" d="M0,0S13.011-6.76,13.919-6.056,15.1,3.9,13.794,4.991-.823,9.8-.823,9.8,13.606,4.577,13.058,4.014s.094-8.285.094-8.285Z" transform="translate(54.05 399.35)" fill="#ebf5f9"/>
    </g>
    <g id="Group_341" data-name="Group 341">
      <path id="Path_473" data-name="Path 473" d="M0,0S-19.28-33.463-56.912-39.487c-2.107-.337-4.212-.6-6.318-.814,14.162,2.527,30.27,9.13,43.93,32.774A110.717,110.717,0,0,1,0,0" transform="translate(295.61 53.317)" fill="#ff6985"/>
    </g>
    <g id="Group_342" data-name="Group 342">
      <path id="Path_474" data-name="Path 474" d="M0,0C-2.052-12.211-3.356-29.739-18.092-36.38S-28.9-61.6-28.9-61.6s-2.525.029-6.654.328c-.033,4.965-1,10.114-3.828,14.386C-47.858-34.1-56.839-29.2-68.958-29.143s1.6,6.932,5.379,8.536,21.5,11.188,30.595,16.681S-16.966,6.393-16.567,13.881A72.469,72.469,0,0,1-9.359,30.695c15.469-7.29,28.7-15.921,36.436-18.615,0,0-25.025.131-27.077-12.08" transform="translate(187.108 247.206)" fill="#f1a40b"/>
    </g>
    <g id="Group_343" data-name="Group 343">
      <path id="Path_475" data-name="Path 475" d="M0,0S5.5,22.306-1.988,34.785-22.938,56.44-34.056,56.6c0,0-9.683-4.123-8.729-7.01s7.1-.455,11.274-1.526,21.232-8.615,25.483-22.509S-8.049-1.886-8.049-1.886s-1.314-2.833.635-2.151A69.145,69.145,0,0,1,0,0" transform="translate(156.27 169.4)" fill="#e88739"/>
    </g>
    <g id="Group_344" data-name="Group 344">
      <path id="Path_476" data-name="Path 476" d="M0,0-12.136-33.158,1.644-6.689,9.6,9.8Z" transform="translate(172.1 261.314)" fill="#e88739"/>
    </g>
    <g id="Group_345" data-name="Group 345">
      <path id="Path_477" data-name="Path 477" d="M0,0S-11.743-12.1-16.737-16.813L-4.61-.267,6.13,9.568C6.13,9.575,7.438,4.123,0,0" transform="translate(162.798 246.066)" fill="#e88739"/>
    </g>
    <g id="Group_346" data-name="Group 346">
      <path id="Path_478" data-name="Path 478" d="M0,0S11,3.825,15-6.376A85.937,85.937,0,0,1,26.113-25.544s-1.265.738,1.311,5.853,6.068,2.364,9.447,5.864.164,3.4,1.4,7.451S37.239,4.569,51,.7,41,15.173,41,15.173,35.194-.037,27.424-.027,6,3.577,0,0" transform="translate(297.557 259.322)" fill="#fb0"/>
    </g>
    <g id="Group_347" data-name="Group 347">
      <path id="Path_479" data-name="Path 479" d="M0,0S.55-22.493,5.97-26.978c0,0-4.931,14.655-3.851,28.457Z" transform="translate(318.15 259.303)" fill="#f8a152"/>
    </g>
    <g id="Group_348" data-name="Group 348">
      <path id="Path_480" data-name="Path 480" d="M0,0S8.3-12.894,9.359-12.049s-7.8,13.9-7.8,13.9Z" transform="translate(324.98 259.295)" fill="#f8a152"/>
    </g>
    <g id="Group_349" data-name="Group 349">
      <path id="Path_481" data-name="Path 481" d="M0,0S2.09-12.149,2.67-12.683,1.94,0,1.94,0Z" transform="translate(321.18 259.295)" fill="#f8a152"/>
    </g>
    <g id="Group_350" data-name="Group 350">
      <path id="Path_482" data-name="Path 482" d="M0,0S-3.359-15.5,9.261-16.806s88.457-4.538,88.457-4.538l88.936-.086s12.75-.375,10.6,11.486-9.04,57.935-9.04,57.935L183.6,80.179s1.54,5.437-15.581,4.639S41.829,87.932,41.829,87.932l-13.489.337s-15.446-.885-18.227-13.582S0,0,0,0" transform="translate(138.326 280.717)" fill="#96caf8"/>
    </g>
    <g id="Group_351" data-name="Group 351">
      <path id="Path_483" data-name="Path 483" d="M0,0-88.937.086s-75.829,3.232-88.457,4.538-9.26,16.806-9.26,16.806,7.342,62,10.122,74.7,18.225,13.582,18.225,13.582l13.489-.336s109.088-3.912,126.2-3.114c.9.039,1.739.062,2.55.07-2.521-.133-98.873-5.179-108-3.88-9.254,1.314-21.382-1.221-24.16-3.725s-7.844,1.158-20.1-4.334-6.286-31.7-7.969-41.02,1.338-16.884,7.844-24.293c4.377-4.977,5.957-6.072,6.529-6.252-1.354-.18-6.428-.993-2.16-2.684C-159.191,18.214-40.521,6.924-40.521,6.924c-10.009-.57-123.274,8.082-123.274,8.082l24.582-4.568S-41.32,3.191-18.391,2.293c20.2-.8,27.311,8.536,28.71,10.766.111-.564.191-1.088.281-1.55C12.75-.375,0,0,0,0" transform="translate(324.98 259.296)" fill="#74baf1"/>
    </g>
    <g id="Group_352" data-name="Group 352">
      <path id="Path_484" data-name="Path 484" d="M0,0S12.8,2.018,14.872,7.675,20.012,27.516.907,32.508s-25.1-12.863-24.628-20.952S-12.033-2.527-5.207-2.5,0,0,0,0" transform="translate(240.068 295.379)" fill="#74baf1"/>
    </g>
    <g id="Group_353" data-name="Group 353">
      <path id="Path_485" data-name="Path 485" d="M0,0S5.8-9.624,11.311-12.448s17.169-6.58,25.909-7.925a57.876,57.876,0,0,0,16.72-5.133c1.55-.821,6.6.743,7.46,3.38s.04,5.657-2.82,6.76-23.2,4.952-26.78,5.86S7.79.649,3.9,8.981C3.9,8.974,2.75,1.485,0,0" transform="translate(336.42 273.965)" fill="#f8a152"/>
    </g>
    <g id="Group_354" data-name="Group 354">
      <path id="Path_486" data-name="Path 486" d="M0,0A79.55,79.55,0,0,0,18.111,17.392c-5.488-7-9.557-14.406-19.105-25.107-11.7-13.114-17.46-23.817-37.941-28.58-9.151-2.129-20.775-4.343-30.842-6.144,11.69,7.508,26.77,8.344,37.473,12.71C-19.38-24.459-11.561-15.667,0,0" transform="translate(367.284 218.996)" fill="#ffe26c"/>
    </g>
  </g>
</svg>
