<svg xmlns="http://www.w3.org/2000/svg" xmlns:xlink="http://www.w3.org/1999/xlink" width="33.557" height="32.658" viewBox="0 0 33.557 32.658">
  <defs>
    <clipPath id="clip-path">
      <path id="Path_286" data-name="Path 286" d="M0-91.395H33.557v32.658H0Z" transform="translate(0 91.395)" fill="none"/>
    </clipPath>
  </defs>
  <g id="_3" data-name="3" transform="translate(0 0)">
    <g id="Group_288" data-name="Group 288" transform="translate(0 0)" clip-path="url(#clip-path)">
      <g id="Group_284" data-name="Group 284" transform="translate(0.376 0.471)">
        <path id="Path_282" data-name="Path 282" d="M-59.581-8.97l-28.354-4.988s-2.814,20.394-4.758,28.221h0L-74.56,17.67s7.626-2.341,10.391-4.283S-59.581-8.97-59.581-8.97" transform="translate(92.709 13.958)" fill="#fff"/>
      </g>
      <g id="Group_285" data-name="Group 285" transform="translate(0 0)">
        <path id="Path_283" data-name="Path 283" d="M-53.828-9l-3.562-.526c-2.372-.359-4.742-.739-7.111-1.119s-4.735-.775-7.1-1.185-4.729-.812-7.089-1.243l.547-.4c-.181,1.187-.357,2.372-.559,3.555l-.6,3.547L-80.549.713-81.781,7.8l-.314,1.771-.326,1.771-.338,1.769-.188.882-.095.442-.047.22-.023.111,0,.028,0,.014c.465.121-.635-.155-.521-.131v-.006l.01-.056a.253.253,0,0,1,.291-.207l.025,0,4.551.757c1.518.246,3.032.517,4.547.777,3.032.516,6.055,1.076,9.083,1.614l-.256.015c1.346-.432,2.694-.9,4.021-1.4.665-.249,1.328-.5,1.984-.765s1.307-.539,1.94-.838a19.822,19.822,0,0,0,1.841-.959l.425-.269.006,0-.023.018.013-.01.026-.021.053-.042a.292.292,0,0,0,.063-.06,1.675,1.675,0,0,0,.116-.134,4.429,4.429,0,0,0,.471-.817,15.033,15.033,0,0,0,.705-1.94c.2-.671.387-1.351.555-2.038.339-1.374.624-2.768.885-4.167q.2-1.049.372-2.1l.362-2.108.336-2.114.318-2.118c.215-1.4.407-2.794.606-4.193-1.173-.156-2.344-.325-3.514-.5m3.628.457c-.06,1.431-.17,2.857-.277,4.285-.052.714-.126,1.426-.193,2.138L-50.893.013l-.249,2.135q-.144,1.065-.3,2.129C-51.662,5.7-51.9,7.114-52.2,8.526c-.152.705-.308,1.413-.51,2.114a15.964,15.964,0,0,1-.729,2.1,5.476,5.476,0,0,1-.587,1.042,2.531,2.531,0,0,1-.234.271,1.6,1.6,0,0,1-.132.123l-.052.043-.026.021-.013.011-.036.027-.008,0-.477.311a18.249,18.249,0,0,1-1.957,1.026c-.659.31-1.327.586-2,.858s-1.342.526-2.02.771c-1.357.484-2.715.936-4.1,1.358l-.008,0a.518.518,0,0,1-.248.012c-3.017-.6-6.037-1.173-9.05-1.792-1.506-.308-3.015-.6-4.519-.926l-4.515-.947.316-.2-.018.053,0,.007c.112.032-.988-.244-.521-.131l0-.013.009-.027c.012-.035.019-.072.029-.108l.054-.217.109-.434.218-.869.4-1.749c.243-1.172.488-2.344.7-3.522s.432-2.356.625-3.538.387-2.364.557-3.55c.354-2.37.651-4.749.958-7.124l.9-7.13c0-.006,0-.013,0-.019A.465.465,0,0,1-78.534-14h.009q3.549.6,7.088,1.25c2.362.421,4.719.869,7.077,1.309s4.713.9,7.066,1.375l3.527.721c1.176.24,2.351.485,3.523.742a.056.056,0,0,1,.044.058" transform="translate(83.757 14.009)" fill="#b9b9b9"/>
      </g>
      <g id="Group_286" data-name="Group 286" transform="translate(18.524 26.663)">
        <path id="Path_284" data-name="Path 284" d="M-10.707,0A6.88,6.88,0,0,0-5.866.714s-2,3.15-10.794,4.723c0,0,4.913-1.644,5.953-5.436" transform="translate(16.66)" fill="#dedfdf"/>
      </g>
      <g id="Group_287" data-name="Group 287" transform="translate(17.947 26.61)">
        <path id="Path_285" data-name="Path 285" d="M-11.659-.054a.056.056,0,0,1,.074-.024,7.818,7.818,0,0,0,1.155.454,8.278,8.278,0,0,0,1.2.274,6.03,6.03,0,0,0,.61.057,2.88,2.88,0,0,0,.3,0c.1,0,.2,0,.3-.01a4.306,4.306,0,0,0,.6-.08A4.821,4.821,0,0,0-6.84.467l.013,0a.225.225,0,0,1,.178.029A.225.225,0,0,1-6.581.8a2.573,2.573,0,0,1-.252.324c-.087.1-.168.205-.263.293l-.57.526c-.2.159-.412.3-.619.457a5.554,5.554,0,0,1-.635.43l-.664.381c-.224.121-.439.266-.67.369l-1.393.621L-12,4.36c-.118.048-.239.083-.359.125l-.72.244-.721.246c-.241.08-.48.169-.723.241-.981.244-1.96.51-2.949.735a.552.552,0,0,1-.636-.336.552.552,0,0,1,.311-.716l.051-.02.448-.177c.153-.065.307-.129.457-.2.3-.135.606-.282.9-.438s.591-.314.871-.494c.139-.091.286-.174.42-.271l.412-.284.391-.31c.137-.1.252-.217.378-.325a3.665,3.665,0,0,0,.36-.346c.112-.123.237-.237.345-.364l.312-.394A3.823,3.823,0,0,0-12.16.857,3.075,3.075,0,0,0-11.9.417l.237-.463Zm-.007.56a2.681,2.681,0,0,1-.157.515,4.153,4.153,0,0,1-.205.5l-.256.482c-.093.156-.2.3-.3.455a4.145,4.145,0,0,1-.334.432c-.119.137-.228.288-.36.412l-.388.385-.411.358c-.134.125-.286.223-.43.335-.29.218-.593.418-.9.607s-.629.36-.956.517c-.163.079-.33.151-.5.223s-.333.135-.526.2l-.274-1.072c.963-.2,1.936-.364,2.908-.547.239-.056.474-.129.711-.193l.711-.2.712-.2c.118-.035.239-.063.354-.1l.343-.133,1.374-.531c.229-.088.438-.215.659-.321l.655-.333a5.086,5.086,0,0,0,.624-.378c.2-.135.412-.262.609-.4l.561-.457c.094-.076.168-.167.254-.249A2.23,2.23,0,0,0-6.961.561L-6.7.9a5.249,5.249,0,0,1-.646.128A4.73,4.73,0,0,1-8,1.07c-.108.006-.216-.008-.324-.01a3.016,3.016,0,0,1-.322-.026,6.274,6.274,0,0,1-.634-.1A7.813,7.813,0,0,1-10.5.566,8,8,0,0,1-11.574.049Z" transform="translate(18.142 0.084)" fill="#b9b9b9"/>
      </g>
    </g>
  </g>
</svg>
