<svg xmlns="http://www.w3.org/2000/svg" xmlns:xlink="http://www.w3.org/1999/xlink" width="41.008" height="40.751" viewBox="0 0 41.008 40.751">
  <defs>
    <clipPath id="clip-path">
      <path id="Path_286" data-name="Path 286" d="M0-91.395H30.069v29.264H0Z" transform="translate(0 91.395)" fill="none"/>
    </clipPath>
  </defs>
  <g id="_4" data-name="4" transform="matrix(0.848, -0.53, 0.53, 0.848, 0, 15.935)">
    <g id="Group_288" data-name="Group 288" transform="translate(0 0)" clip-path="url(#clip-path)">
      <g id="Group_284" data-name="Group 284" transform="translate(0.337 0.422)">
        <path id="Path_282" data-name="Path 282" d="M-63.024-9.489l-25.407-4.469S-90.953,4.316-92.694,11.33h0l16.248,3.053s6.833-2.1,9.311-3.838,4.112-20.034,4.112-20.034" transform="translate(92.709 13.958)" fill="#fff"/>
      </g>
      <g id="Group_285" data-name="Group 285" transform="translate(0 0)">
        <path id="Path_283" data-name="Path 283" d="M-56.938-9.524l-3.191-.471c-2.126-.322-4.249-.662-6.372-1s-4.243-.694-6.361-1.062-4.238-.727-6.352-1.114l.49-.357c-.162,1.064-.32,2.126-.5,3.186l-.538,3.178L-80.883-.817l-1.1,6.351-.281,1.587-.292,1.587-.3,1.585-.169.791-.085.4-.042.2-.021.1,0,.025,0,.012c.417.108-.569-.139-.467-.118V11.69l.009-.05a.227.227,0,0,1,.261-.185l.022,0,4.078.678c1.361.221,2.717.463,4.074.7,2.717.462,5.426.964,8.139,1.447l-.23.013c1.206-.387,2.414-.808,3.6-1.252.6-.223,1.19-.447,1.777-.685s1.171-.483,1.739-.751a17.762,17.762,0,0,0,1.649-.859l.38-.241.006,0-.02.016.012-.009.024-.019.047-.037a.262.262,0,0,0,.056-.054,1.5,1.5,0,0,0,.1-.12,3.969,3.969,0,0,0,.422-.732,13.47,13.47,0,0,0,.632-1.738c.178-.6.347-1.211.5-1.826.3-1.231.559-2.48.793-3.734q.175-.94.333-1.885l.325-1.889.3-1.895.285-1.9c.193-1.25.364-2.5.543-3.757-1.051-.14-2.1-.291-3.148-.446m3.251.41c-.054,1.282-.152,2.56-.248,3.839-.047.64-.113,1.278-.173,1.916l-.2,1.914L-54.532.469q-.129.954-.273,1.908c-.194,1.271-.41,2.541-.677,3.807-.136.632-.276,1.266-.457,1.894a14.3,14.3,0,0,1-.653,1.879,4.907,4.907,0,0,1-.526.934,2.268,2.268,0,0,1-.209.243,1.431,1.431,0,0,1-.118.11l-.046.038-.023.019-.012.01-.032.024-.007,0-.427.279a16.352,16.352,0,0,1-1.753.919c-.591.278-1.189.525-1.789.769s-1.2.472-1.81.691c-1.216.434-2.433.839-3.671,1.216l-.007,0a.465.465,0,0,1-.223.011c-2.7-.535-5.41-1.051-8.109-1.606-1.35-.276-2.7-.542-4.049-.83l-4.046-.849.283-.181-.016.048,0,.006c.1.029-.886-.218-.467-.117l0-.012.008-.024c.011-.031.017-.064.026-.1l.049-.194.1-.389.2-.778.358-1.567c.218-1.05.437-2.1.63-3.156s.387-2.111.56-3.171.347-2.118.5-3.181c.317-2.124.583-4.255.859-6.384l.808-6.389c0-.005,0-.012,0-.017a.416.416,0,0,1,.48-.341h.008q3.18.537,6.351,1.12c2.116.378,4.228.778,6.342,1.173s4.223.809,6.332,1.232l3.161.646c1.053.215,2.106.434,3.157.665a.05.05,0,0,1,.04.052" transform="translate(83.757 14.009)" fill="#b9b9b9"/>
      </g>
      <g id="Group_286" data-name="Group 286" transform="translate(16.599 23.891)">
        <path id="Path_284" data-name="Path 284" d="M-11.326,0A6.165,6.165,0,0,0-6.988.639S-8.782,3.462-16.66,4.871c0,0,4.4-1.473,5.334-4.871" transform="translate(16.66)" fill="#dedfdf"/>
      </g>
      <g id="Group_287" data-name="Group 287" transform="translate(16.082 23.845)">
        <path id="Path_285" data-name="Path 285" d="M-12.333-.057a.05.05,0,0,1,.066-.022,7,7,0,0,0,1.035.407,7.418,7.418,0,0,0,1.078.246,5.4,5.4,0,0,0,.546.051,2.58,2.58,0,0,0,.272,0c.091,0,.182,0,.272-.009A3.859,3.859,0,0,0-8.53.548,4.32,4.32,0,0,0-8.014.41l.012,0a.2.2,0,0,1,.16.026.2.2,0,0,1,.06.278A2.306,2.306,0,0,1-8.009,1c-.078.087-.15.184-.235.263l-.51.472c-.181.143-.37.272-.555.409a4.977,4.977,0,0,1-.569.385l-.595.342c-.2.109-.393.238-.6.331l-1.248.556-.313.14c-.106.043-.215.074-.321.112l-.646.218-.646.22c-.216.071-.43.152-.647.216-.879.219-1.756.457-2.643.658a.5.5,0,0,1-.57-.3.5.5,0,0,1,.279-.642l.046-.018.4-.158c.137-.059.275-.116.41-.18.273-.121.543-.252.807-.393s.529-.282.781-.443c.124-.082.256-.156.377-.242l.369-.255.35-.278c.122-.088.226-.194.339-.291a3.284,3.284,0,0,0,.322-.31c.1-.11.212-.213.309-.326l.28-.353a3.425,3.425,0,0,0,.256-.374,2.755,2.755,0,0,0,.232-.394l.212-.415Zm-.006.5a2.4,2.4,0,0,1-.141.462,3.721,3.721,0,0,1-.184.451l-.23.432c-.083.14-.178.272-.27.408a3.715,3.715,0,0,1-.3.387c-.107.123-.2.258-.323.369l-.348.345-.369.321c-.12.112-.256.2-.386.3-.26.2-.532.374-.808.544s-.564.322-.856.463c-.146.071-.3.135-.445.2s-.3.121-.471.179l-.245-.961c.863-.181,1.734-.326,2.605-.491.215-.05.425-.116.637-.173l.637-.178.638-.18c.106-.031.214-.057.318-.093l.307-.119,1.231-.475c.206-.079.392-.193.59-.288l.587-.3A4.557,4.557,0,0,0-9.6,1.713c.181-.121.369-.235.546-.361l.5-.41c.084-.068.15-.149.228-.223a2,2,0,0,0,.2-.225l.231.3A4.7,4.7,0,0,1-8.47.909,4.238,4.238,0,0,1-9.053.95c-.1.006-.193-.007-.29-.009A2.7,2.7,0,0,1-9.631.918,5.622,5.622,0,0,1-10.2.827,7,7,0,0,1-11.292.5a7.173,7.173,0,0,1-.964-.463Z" transform="translate(18.142 0.084)" fill="#b9b9b9"/>
      </g>
    </g>
  </g>
</svg>
