<svg xmlns="http://www.w3.org/2000/svg" xmlns:xlink="http://www.w3.org/1999/xlink" width="77.249" height="74.823" viewBox="0 0 77.249 74.823">
  <defs>
    <clipPath id="clip-path">
      <path id="Path_291" data-name="Path 291" d="M0-91.395H66.092v64.323H0Z" transform="translate(0 91.395)" fill="none"/>
    </clipPath>
    <clipPath id="clip-path-2">
      <path id="Path_298" data-name="Path 298" d="M0-101.483H31.023v40.721H0Z" transform="translate(0 101.483)" fill="none"/>
    </clipPath>
  </defs>
  <g id="_5" data-name="5" transform="translate(-426.939 -617.076)">
    <g id="_5-2" data-name="5" transform="matrix(0.985, -0.174, 0.174, 0.985, 426.94, 628.554)">
      <g id="Group_295" data-name="Group 295" transform="translate(0 0)" clip-path="url(#clip-path)">
        <g id="Group_291" data-name="Group 291" transform="translate(0.105 0.928)">
          <path id="Path_287" data-name="Path 287" d="M0-4.134l55.845-9.824s5.543,40.168,9.37,55.583h0L29.5,48.335S14.483,43.724,9.038,39.9,0-4.134,0-4.134" transform="translate(0 13.958)" fill="#fff"/>
        </g>
        <g id="Group_292" data-name="Group 292" transform="translate(0 0)">
          <path id="Path_288" data-name="Path 288" d="M-.095-4.562C.3-1.807.675.948,1.1,3.7l.627,4.172.661,4.164L3.1,16.185q.349,2.077.733,4.144c.514,2.756,1.075,5.5,1.743,8.208.329,1.353.7,2.693,1.092,4.014a29.609,29.609,0,0,0,1.389,3.82,8.723,8.723,0,0,0,.928,1.61,3.063,3.063,0,0,0,.229.264.575.575,0,0,0,.123.119l.1.082.052.042.025.02c.018.013-.1-.076-.044-.034l.013.008.836.529A39.218,39.218,0,0,0,13.95,40.9c1.248.589,2.534,1.123,3.822,1.649s2.6,1.016,3.907,1.506c2.615.975,5.27,1.9,7.92,2.752l-.5-.029c5.963-1.06,11.917-2.163,17.889-3.179,2.985-.513,5.965-1.047,8.956-1.531L64.9,40.578l.049-.008a.5.5,0,0,1,.573.407l.019.11,0,.013c.225-.048-1.943.5-1.027.258l0-.027-.01-.054-.045-.22-.093-.434-.187-.869-.371-1.738-.666-3.484L62.5,31.043l-.618-3.489-2.427-13.96L57-.361,55.815-7.347c-.4-2.33-.745-4.663-1.1-7l1.077.785q-6.972,1.275-13.963,2.448c-4.656.807-9.32,1.563-13.982,2.334-4.666.748-9.333,1.5-14.005,2.2L6.826-5.543c-2.3.341-4.611.673-6.92.98m-.137-.193c2.309-.507,4.623-.989,6.939-1.462l6.947-1.42c4.634-.929,9.275-1.82,13.917-2.709,4.645-.866,9.288-1.748,13.939-2.578q6.973-1.276,13.96-2.463l.017,0a.916.916,0,0,1,1.055.75c0,.011,0,.027,0,.037L58.324-.559c.606,4.68,1.191,9.365,1.888,14.032.334,2.336.713,4.665,1.1,6.993s.8,4.651,1.23,6.969.906,4.629,1.384,6.937l.787,3.445.429,1.711.215.854.107.428c.02.07.033.144.057.212l.018.053.008.026c.92-.223-1.248.32-1.027.257l0-.013-.035-.106.623.4L56.208,43.5c-2.962.633-5.934,1.218-8.9,1.825-5.934,1.22-11.883,2.353-17.824,3.53a1.013,1.013,0,0,1-.489-.023l-.016-.006c-2.722-.83-5.4-1.721-8.07-2.673q-2-.722-3.978-1.519C15.613,44.1,14.3,43.557,13,42.947a36.2,36.2,0,0,1-3.854-2.02l-.94-.612-.015-.01-.071-.053-.025-.021-.051-.042-.1-.084a3.176,3.176,0,0,1-.259-.243,4.985,4.985,0,0,1-.46-.533,10.743,10.743,0,0,1-1.156-2.052,31.442,31.442,0,0,1-1.436-4.13c-.4-1.382-.707-2.774-1.005-4.164-.588-2.782-1.063-5.573-1.489-8.367q-.319-2.094-.6-4.194l-.491-4.205L.608,8.008C.476,6.6.33,5.2.227,3.8.015.985-.2-1.824-.319-4.642a.11.11,0,0,1,.087-.113" transform="translate(0.319 15.402)" fill="#b9b9b9"/>
        </g>
        <g id="Group_293" data-name="Group 293" transform="translate(8.349 52.514)">
          <path id="Path_289" data-name="Path 289" d="M-4.013,0s-4.965,2.859-9.534,1.405c0,0,3.944,6.2,21.259,9.3,0,0-9.676-3.237-11.725-10.707" transform="translate(13.547)" fill="#dedfdf"/>
        </g>
        <g id="Group_294" data-name="Group 294" transform="translate(7.904 52.411)">
          <path id="Path_290" data-name="Path 290" d="M-4.243-.032l.467.912a6.054,6.054,0,0,0,.512.866,7.209,7.209,0,0,0,.562.822l.615.776c.213.249.459.476.679.716A7.135,7.135,0,0,0-.7,4.743c.25.215.476.448.746.64l.769.611.811.56c.265.191.555.353.828.533.552.354,1.13.674,1.715.973s1.173.6,1.774.864c.3.142.6.267.9.4l.883.348.1.04a1.087,1.087,0,0,1-.64,2.071c-1.948-.443-3.878-.966-5.809-1.446C.9,10.19.431,10.013-.044,9.857l-1.42-.485-1.418-.479c-.235-.083-.474-.153-.707-.247l-.688-.306L-7.019,7.115c-.457-.2-.88-.487-1.32-.727l-1.308-.75A11.031,11.031,0,0,1-10.9,4.791c-.407-.3-.822-.586-1.218-.9l-1.123-1.036c-.187-.173-.345-.386-.517-.578a5.008,5.008,0,0,1-.5-.638.442.442,0,0,1,.132-.611A.441.441,0,0,1-13.77.973l.026.007a9.665,9.665,0,0,0,1.134.3,8.483,8.483,0,0,0,1.174.159c.2.026.4.011.6.02a5.333,5.333,0,0,0,.6-.009,11.713,11.713,0,0,0,1.2-.112A16.344,16.344,0,0,0-6.67.8,15.345,15.345,0,0,0-4.4-.1a.109.109,0,0,1,.145.049Zm-.177.188a15.851,15.851,0,0,1-2.12,1.018,15.438,15.438,0,0,1-2.4.721,12.179,12.179,0,0,1-1.248.2,6.161,6.161,0,0,1-.634.052c-.212.006-.424.033-.638.02a9.214,9.214,0,0,1-1.281-.09,10.361,10.361,0,0,1-1.272-.251l.509-.661a4.341,4.341,0,0,0,.448.494c.169.163.315.341.5.491l1.106.9c.389.277.8.528,1.2.793a10.2,10.2,0,0,0,1.23.744l1.289.655c.435.208.845.459,1.3.633l2.706,1.045.675.261c.229.08.467.135.7.2l1.4.4,1.4.39c.467.125.929.27,1.4.379,1.914.361,3.83.681,5.727,1.079l-.539,2.111c-.379-.127-.7-.251-1.035-.393s-.658-.284-.979-.44q-.965-.463-1.882-1.018c-.608-.374-1.2-.766-1.776-1.2C1.079,8.474.78,8.28.516,8.034L-.3,7.329l-.764-.758c-.26-.246-.474-.543-.709-.811a8.246,8.246,0,0,1-.659-.852c-.2-.3-.41-.589-.593-.9l-.5-.949a8.424,8.424,0,0,1-.4-.991,5.359,5.359,0,0,1-.31-1.014Z" transform="translate(14.323 0.107)" fill="#b9b9b9"/>
        </g>
      </g>
    </g>
    <g id="Group_304" data-name="Group 304" transform="matrix(0.985, -0.174, 0.174, 0.985, 466.566, 634.452)">
      <g id="Group_297" data-name="Group 297" transform="translate(3.765 5.334)">
        <path id="Path_292" data-name="Path 292" d="M0-37.424,17.229-62.505l6.106,4.362L5.889-32.844Z" transform="translate(0 62.505)" fill="#fff"/>
      </g>
      <g id="Group_303" data-name="Group 303" clip-path="url(#clip-path-2)">
        <g id="Group_298" data-name="Group 298" transform="translate(3.707 5.153)">
          <path id="Path_293" data-name="Path 293" d="M-.216-37.673c1.017.685,2.013,1.4,3.02,2.1L5.836-33.4l-.583.09c.683-1.085,1.389-2.153,2.085-3.229l2.117-3.207L11.6-42.931l2.183-3.161,4.444-6.269,2.251-3.113,2.287-3.09.079.45L21.35-59.25c-.5-.377-.993-.761-1.5-1.132l-1.51-1.113-1.521-1.1.254-.045c-.713,1.049-1.42,2.1-2.109,3.166l-2.041,3.213c-.683,1.069-1.357,2.144-2.046,3.209s-1.4,2.112-2.12,3.158c-1.451,2.08-2.91,4.154-4.409,6.2-.746,1.026-1.5,2.043-2.267,3.057-.767.987-1.512,1.989-2.3,2.963m-.136-.021c.635-1.1,1.315-2.173,1.971-3.26.673-1.075,1.35-2.149,2.04-3.213,1.372-2.134,2.786-4.239,4.206-6.34.719-1.044,1.442-2.086,2.187-3.112s1.508-2.041,2.261-3.061l2.266-3.058c.747-1.025,1.475-2.064,2.2-3.1a.181.181,0,0,1,.252-.045h0l1.533,1.082,1.543,1.068c.515.356,1.038.7,1.556,1.049l1.559,1.045a.315.315,0,0,1,.09.432l-.012.018-2.075,3.235-2.11,3.211-4.28,6.381L12.658-42.2l-2.215,3.139L8.2-35.946c-.758,1.033-1.506,2.073-2.277,3.1l-.02.026a.39.39,0,0,1-.547.076l-.016-.013-2.857-2.4C1.541-35.979.59-36.781-.339-37.613a.065.065,0,0,1-.012-.081" transform="translate(0.36 62.921)" fill="#b9b9b9"/>
        </g>
        <g id="Group_299" data-name="Group 299" transform="translate(0.057 30.415)">
          <path id="Path_294" data-name="Path 294" d="M0-15.3,3.708-25.546,9.6-20.966Z" transform="translate(0 25.546)" fill="#fff"/>
        </g>
        <g id="Group_300" data-name="Group 300" transform="translate(0 30.209)">
          <path id="Path_295" data-name="Path 295" d="M-.04-15.525c.72-.608,1.469-1.166,2.226-1.711s1.528-1.066,2.3-1.577,1.565-1,2.369-1.469,1.623-.906,2.439-1.349L9.24-20.7c-.476-.4-.954-.8-1.417-1.216s-.916-.847-1.376-1.269-.921-.841-1.4-1.241c-.238-.2-.484-.39-.725-.586s-.494-.378-.748-.557l.312-.09q-.2.651-.371,1.315l-.333,1.329q-.172.661-.378,1.312c-.139.433-.295.86-.462,1.282s-.324.849-.505,1.266-.353.838-.544,1.252c-.092.208-.187.415-.289.62s-.195.412-.3.616c-.208.408-.42.814-.658,1.211Zm-.026.031C0-15.951.1-16.4.2-16.845c.049-.224.109-.443.163-.666s.113-.442.175-.661c.118-.44.248-.876.383-1.31s.279-.866.422-1.3.3-.859.465-1.281.354-.838.549-1.25l.594-1.234q.294-.618.557-1.248l.007-.018a.2.2,0,0,1,.254-.1.209.209,0,0,1,.051.032c.236.2.478.4.724.588s.494.378.746.559c.5.364,1.021.712,1.547,1.049s1.053.672,1.568,1.021,1.022.711,1.527,1.074a.551.551,0,0,1,.126.769.556.556,0,0,1-.148.141l-.037.024c-.782.5-1.565,1-2.359,1.486s-1.607.932-2.43,1.366-1.65.86-2.493,1.258S.9-15.759.021-15.421a.065.065,0,0,1-.084-.037.074.074,0,0,1,0-.035" transform="translate(0.066 25.929)" fill="#b9b9b9"/>
        </g>
        <g id="Group_301" data-name="Group 301" transform="translate(20.994 0.497)">
          <path id="Path_296" data-name="Path 296" d="M0-7.218l2.835-4.434s2.617-1.454,5.888,1.163S6.107-2.856,6.107-2.856Z" transform="translate(0 12.055)" fill="#fff"/>
        </g>
        <g id="Group_302" data-name="Group 302" transform="translate(20.938 0)">
          <path id="Path_297" data-name="Path 297" d="M-.226-7.933c.551.266,1.09.55,1.618.847q.823.461,1.626.952c.538.322,1.062.666,1.591,1s1.044.69,1.553,1.053l-.795.034c.215-.192.454-.408.675-.623S6.49-5.1,6.7-5.324a13.65,13.65,0,0,0,1.2-1.411c.185-.245.345-.5.508-.756a6.764,6.764,0,0,0,.415-.793,2.541,2.541,0,0,0,.191-1.7,2.084,2.084,0,0,0-.422-.76,3.864,3.864,0,0,0-.336-.32c-.125-.1-.252-.191-.381-.282a5.273,5.273,0,0,0-.817-.471,5.255,5.255,0,0,0-.88-.307,3.225,3.225,0,0,0-.451-.089,3.009,3.009,0,0,0-.451-.051,3.638,3.638,0,0,0-.448-.014,3.038,3.038,0,0,0-.44.021,5.133,5.133,0,0,0-.854.129,4.384,4.384,0,0,0-.766.242l.189-.178c-.247.362-.485.731-.746,1.085s-.512.715-.781,1.063S.894-9.221.614-8.879c-.27.321-.546.64-.84.946m-.146-.015c.161-.418.345-.82.534-1.221s.386-.795.6-1.181.418-.774.637-1.154.447-.756.672-1.133a.471.471,0,0,1,.185-.175l.005,0a3.527,3.527,0,0,1,1.067-.365,4.469,4.469,0,0,1,1.068-.061,3.948,3.948,0,0,1,.525.067,3.192,3.192,0,0,1,.511.12,3.54,3.54,0,0,1,.492.166,3.944,3.944,0,0,1,.469.2c.312.136.6.319.886.481.142.086.274.189.414.278a4.465,4.465,0,0,1,.4.284c.131.1.264.2.4.291a4.138,4.138,0,0,1,.374.335,2.909,2.909,0,0,1,.6.868A2.984,2.984,0,0,1,9.7-9.1a3.941,3.941,0,0,1-.1,1.059,5.343,5.343,0,0,1-.325.993,7.8,7.8,0,0,1-.475.91A13.227,13.227,0,0,1,7.613-4.507q-.324.383-.67.747c-.238.24-.467.468-.738.7a.646.646,0,0,1-.795.034C4.9-3.391,4.4-3.772,3.91-4.155s-.983-.776-1.463-1.18-.959-.809-1.428-1.229-.931-.849-1.375-1.3a.073.073,0,0,1-.017-.079Z" transform="translate(0.378 13.249)" fill="#b9b9b9"/>
        </g>
      </g>
    </g>
  </g>
</svg>
