<?xml version="1.0" standalone="no"?>
<!DOCTYPE svg PUBLIC "-//W3C//DTD SVG 1.1//EN" "http://www.w3.org/Graphics/SVG/1.1/DTD/svg11.dtd" >
<svg xmlns="http://www.w3.org/2000/svg" xmlns:xlink="http://www.w3.org/1999/xlink" version="1.1">
<metadata>
Created by FontForge 20170731 at Thu Jan 24 13:23:44 2019
 By Aleksey,,,
(c) 2019, Creatype Studio Co.
</metadata>
<defs>
<font id="KastingScriptRegular" horiz-adv-x="0" >
  <font-face 
    font-family="Kasting Script"
    font-weight="400"
    font-stretch="normal"
    units-per-em="1000"
    panose-1="0 0 0 0 0 0 0 0 0 0"
    ascent="800"
    descent="-200"
    x-height="264.5"
    cap-height="986"
    bbox="-412.333 -879 1230.43 1213.55"
    underline-thickness="50"
    underline-position="-200"
    unicode-range="U+000A-FB06"
  />
<missing-glyph horiz-adv-x="527" 
d="M50 700h427v-700h-427v700zM78 680l185 -309l186 309h-371zM251 350l-180 300v-601zM264 329l-185 -308h370zM276 350l181 -303v605z" />
    <glyph glyph-name="tt.liga" unicode="tt" horiz-adv-x="490" 
d="M879 678q22 -18 12 -44q-3 -8 -11 -12t-16 -1t-12 10.5t-1 15.5q-28 19 -167 12q-111 -5 -268 -28q-32 -142 -45 -326q0 -3 -1 -5v-1q-1 -14 -1 -16q-15 -237 -2 -473q10 -182 30 -238q7 0 13 -4q7 -5 9 -13.5t-3 -15.5q-10 -15 -25 -15q-4 0 -8.5 1.5t-7 3t-7.5 8
t-8.5 16.5t-8.5 29.5t-9 46t-8.5 67.5t-7.5 92q-8 130 -7 275q-84 -327 -182 -327h-7q-49 6 -79 91t-38.5 203.5t-1.5 252.5q8 138 31 280q-263 -60 -353 -110q-5 -3 -10 -3q-13 0 -19 11q-4 8 -1.5 16.5t10.5 12.5q99 55 380 117q4 21 7 38q38 195 84 223q17 11 35 3
q8 -3 11 -11.5t0 -16.5q-7 -16 -25 -12q-30 -26 -63 -190q-2 -10 -4 -24q108 23 217 41q35 6 71 11q40 165 91 197q23 15 47 5q8 -3 11.5 -11t0.5 -16.5t-11.5 -11.5t-16.5 0q-3 1 -8 -2q-35 -22 -70 -154q392 55 453 2zM328 304q13 177 44 321q-23 -4 -44 -7
q-124 -20 -242 -46q-24 -146 -32 -291q-6 -95 -3.5 -173t10.5 -138.5t20.5 -102.5t26 -64.5t27.5 -24.5q14 -1 36 25t46 82q59 139 111 419z" />
    <glyph glyph-name="st.liga" unicode="st" horiz-adv-x="566" 
d="M1199 813q22 -18 12 -44q-3 -8 -11 -12t-16 -1t-11.5 10.5t-1.5 15.5q-28 19 -167 12q-145 -7 -356 -41q-80 -13 -158 -29q-27 -138 -38 -306q-16 -237 -3 -473q11 -182 30 -238q7 0 13 -4q8 -4 9.5 -13t-3.5 -16q-10 -15 -25 -15q-4 0 -8 2q-6 2 -10 5t-11.5 18
t-13 40.5t-11.5 77t-11 121.5q-15 246 1 498q11 154 35 290q-83 -166 -166 -376t-135 -388q63 -220 38 -322q-14 -54 -37.5 -85.5t-49.5 -31.5q-5 0 -9 1q-26 6 -37.5 39.5t-8.5 84t10 95t18 93.5q12 57 32 126q-11 37 -33 107q-48 155 -55 209q-3 9 -1.5 26.5t5 34.5t17 34
t35.5 27q29 13 62 8t51 -26q6 -6 5.5 -15t-7 -14.5t-15.5 -5t-15 6.5q-7 9 -25.5 12t-38.5 -5q-39 -17 -31 -78q6 -50 54 -202q10 -33 14 -46q51 164 125 348.5t148 336.5q-288 -63 -385 -117q-5 -3 -10 -3q-12 0 -19 11q-4 8 -1.5 16.5t10.5 12.5q109 61 429 128
q34 67 65 119q33 105 73 129q21 14 44 6q1 0 1.5 -0.5l0.5 -0.5h1q1 -1 2 -1.5t1.5 -1l1.5 -1.5t2 -1l0.5 -0.5l0.5 -0.5v-1q1 -1 1.5 -2t1 -1.5t1 -1.5t0.5 -2v-2t0.5 -2t0 -2t-0.5 -2.5v-2t-1 -2.5v-1v0q-1 -1 -1.5 -2l-1 -2t-1.5 -2l-1 -1l-0.5 -0.5l-0.5 -0.5
q-34 -29 -87 -118q-12 -37 -22 -83q68 13 132 24q56 9 111.5 17t133.5 16.5t139 11t113.5 -3t70.5 -21.5zM139 -365q20 77 -18 231q-7 -28 -13 -54q-20 -88 -24.5 -151t0 -84t10.5 -26q3 0 7 3.5t9 10.5t10 16.5t10 23.5t9 30z" />
    <glyph glyph-name=".notdef" horiz-adv-x="527" 
d="M50 700h427v-700h-427v700zM78 680l185 -309l186 309h-371zM251 350l-180 300v-601zM264 329l-185 -308h370zM276 350l181 -303v605z" />
    <glyph glyph-name=".null" 
 />
    <glyph glyph-name=".null" 
 />
    <glyph glyph-name="nonmarkingreturn" horiz-adv-x="333" 
 />
    <glyph glyph-name="controlLF" unicode="&#xa;" 
 />
    <glyph glyph-name="controlCR" unicode="&#xd;" 
 />
    <glyph glyph-name="space" unicode=" " horiz-adv-x="314" 
 />
    <glyph glyph-name="exclam" unicode="!" horiz-adv-x="166" 
d="M61 -5q2 109 -1 289q-4 282 8 495q0 8 7 14t15.5 5.5t14.5 -7t5 -15.5q-11 -211 -7 -491q2 -180 0 -291q0 -9 -6 -15t-15 -6t-15 6.5t-6 15.5zM70 -107q27 10 41 -14q13 -21 -4 -35q-10 -9 -31 -8q-17 2 -23 14t-0.5 25.5t17.5 17.5z" />
    <glyph glyph-name="quotedbl" unicode="&#x22;" horiz-adv-x="305" 
d="M101 761q39 -25 42 -63q5 -51 -58 -107q-6 -6 -14 -6q-9 0 -16 7q-5 7 -4.5 15.5t6.5 14.5q47 42 44 73q-2 17 -23 30q-7 5 -9 13.5t2.5 16t13 9t16.5 -2.5zM255 701q3 -35 -18 -74t-53 -67q-6 -6 -14 -6q-10 0 -16 7t-5.5 15.5t7.5 14.5q26 24 42.5 54.5t14.5 52.5
q-2 17 -17 27q-7 5 -9 13.5t2.5 16t13 9t16.5 -2.5q33 -21 36 -60z" />
    <glyph glyph-name="quotedbl" unicode="&#x201d;" horiz-adv-x="305" 
d="M101 761q39 -25 42 -63q5 -51 -58 -107q-6 -6 -14 -6q-9 0 -16 7q-5 7 -4.5 15.5t6.5 14.5q47 42 44 73q-2 17 -23 30q-7 5 -9 13.5t2.5 16t13 9t16.5 -2.5zM255 701q3 -35 -18 -74t-53 -67q-6 -6 -14 -6q-10 0 -16 7t-5.5 15.5t7.5 14.5q26 24 42.5 54.5t14.5 52.5
q-2 17 -17 27q-7 5 -9 13.5t2.5 16t13 9t16.5 -2.5q33 -21 36 -60z" />
    <glyph glyph-name="quotedbl" unicode="&#x201c;" horiz-adv-x="305" 
d="M101 761q39 -25 42 -63q5 -51 -58 -107q-6 -6 -14 -6q-9 0 -16 7q-5 7 -4.5 15.5t6.5 14.5q47 42 44 73q-2 17 -23 30q-7 5 -9 13.5t2.5 16t13 9t16.5 -2.5zM255 701q3 -35 -18 -74t-53 -67q-6 -6 -14 -6q-10 0 -16 7t-5.5 15.5t7.5 14.5q26 24 42.5 54.5t14.5 52.5
q-2 17 -17 27q-7 5 -9 13.5t2.5 16t13 9t16.5 -2.5q33 -21 36 -60z" />
    <glyph glyph-name="numbersign" unicode="#" horiz-adv-x="1008" 
d="M937 376q5 0 10 -3t8 -8t3 -11q0 -8 -6.5 -14.5t-14.5 -6.5q-85 0 -260 -2h-15.5h-15.5q-41 -57 -89 -121q120 -6 219 -18q6 0 10.5 -3.5t6.5 -8.5t2 -11q-1 -8 -7 -13.5t-14 -5.5h-3q-109 13 -245 19q-170 -227 -222 -283q-7 -6 -16 -6q-8 0 -14 5q-7 6 -7 15t6 15
q47 51 202 256q-63 2 -134 3q-114 -151 -182 -255q-6 -9 -17 -9q-7 0 -12 3q-7 5 -9 13.5t3 15.5q60 93 165 233q-72 1 -197 1h-21q-9 0 -15 6t-6 14.5t6 15t15 6.5h21q146 0 229 -1q44 59 87 113q-142 0 -252 3q-9 1 -15 7t-6 15t6.5 15t15.5 6q120 -4 286 -4
q175 213 261 269q7 4 16 2.5t13.5 -9t2.5 -16t-9 -13.5q-75 -48 -229 -233q56 0 126 1q107 148 117 174q4 8 12 11.5t16 0.5q4 -1 7 -4t4.5 -7t1.5 -8t-1 -8q-12 -29 -104 -158q174 2 260 2zM506 212q46 62 87 119q-71 -1 -130 -1q-44 -54 -90 -114q70 -1 133 -4z" />
    <glyph glyph-name="dollar" unicode="$" horiz-adv-x="443" 
d="M241.5 383.5q44.5 -39.5 76 -79t47 -70t22 -60t6 -48.5t-4.5 -36q-10 -41 -40 -70t-73 -40q-14 -4 -29 -5q-2 -57 -5 -110q0 -9 -6.5 -14.5t-14.5 -5.5h-1q-9 0 -15 6.5t-5 15.5q3 53 4 108q-84 11 -147 80q-6 7 -6 15.5t6.5 14.5t15.5 5.5t15 -6.5q51 -56 117 -66
q1 32 2 62q0 9 6 15t15 6t15 -6.5t6 -14.5q-1 -31 -1 -63q9 1 17 4q33 8 54.5 28.5t28.5 50.5q13 52 -22 118t-111 133q-98 87 -132 194q-34 105 8 175q40 65 129 62q1 37 3 74q0 9 6.5 14.5t15.5 5t15 -7t5 -14.5q-2 -39 -3 -77q28 -5 59 -17q8 -3 11.5 -11t0.5 -16.5
t-11 -12t-16 -0.5q-24 9 -46 14q-1 -32 -3 -74q0 -5 -3 -9.5t-7.5 -7.5t-10.5 -3h-1q-4 0 -8 2t-6.5 5t-4 7t-1.5 8q1 43 3 78q-64 1 -91 -42q-15 -25 -16 -62t12 -79t44 -88t75.5 -85.5z" />
    <glyph glyph-name="percent" unicode="%" horiz-adv-x="618" 
d="M534 1015q64 -47 8 -199q-22 -60 -75 -159t-96 -171t-125 -206q-53 -89 -82.5 -137.5t-70.5 -120t-59.5 -113t-16.5 -56.5q2 -8 -3.5 -15t-14.5 -8q-1 -1 -3 -1q-5 0 -9.5 2.5t-7.5 7t-4 9.5q-5 37 48 135.5t187 318.5q79 129 121.5 200t96 171t75.5 158q44 121 6 149
q-44 32 -184 -32q-117 -53 -207 -123v-1q38 22 61 -4q15 -16 17.5 -48.5t-8 -71t-32.5 -67.5q-35 -46 -76 -37q-22 5 -38 24.5t-23 49.5q-10 45 6.5 97t66.5 91q94 73 215 129q163 74 227 28zM137 787q-7 -5 -15.5 -3t-13.5 10q-7 12 1 23q-34 -30 -45 -68t-4 -70
q9 -37 29 -42q15 -3 34 22q17 23 25.5 57.5t4.5 59.5q-2 13 -5 15q-5 0 -11 -4zM489 319q4 1 8 1t7.5 -2t6.5 -5t5 -7q16 -53 12 -114t-23 -105q-26 -60 -63 -60h-1q-39 2 -62 66q-11 29 -15 62.5t2.5 68t25.5 50.5q32 28 80 3q8 -4 11 -13q-3 15 -7 28q-3 8 0.5 16t12.5 11
zM466 104q12 29 17.5 72t-0.5 83q1 -6 -2 -11q-4 -7 -12.5 -10t-15.5 1q-14 7 -22 7q-7 0 -10 -3q-14 -12 -15.5 -50.5t10.5 -77.5q3 -9 6.5 -17t6.5 -13t5.5 -8.5t4.5 -5t3 -1.5q9 1 24 34z" />
    <glyph glyph-name="ampersand" unicode="&#x26;" horiz-adv-x="414" 
d="M375.5 107q7.5 -5 9.5 -13.5t-2 -15.5q-70 -113 -161 -132q-1 -23 -4 -79v-5q-1 -8 -7 -14t-14 -6h-1q-6 0 -11 3t-7.5 8t-2.5 11l1 5q2 51 3 74q-41 3 -75.5 27.5t-56.5 66.5q-9 16 -16 36.5t-12 61.5t0 84.5t27.5 105t63.5 125.5l6 10q20 31 43 61q7 9 9 18t-2 21.5
t-10.5 25.5t-21.5 37q-46 75 -64 129q-18 53 18 83q38 33 108 21q1 22 2 52l1 10q0 9 6.5 14.5t15 5.5t14.5 -6.5t6 -15.5l-1 -10q-2 -48 -3 -62q8 -3 14 -6q37 -19 56 -48.5t16 -64.5q0 -9 -7 -15t-15.5 -5t-14.5 7.5t-5 15.5q3 44 -46 70q-1 -20 -1 -32q0 -8 -6.5 -14
t-14.5 -6h-1q-9 0 -15 6.5t-5 15.5q1 20 2 45q-55 11 -79 -10q-14 -12 -5 -37q17 -50 60 -121q13 -21 19 -32t13.5 -29t8.5 -30.5t-3 -28t-15 -30.5q-22 -28 -41 -58l-7 -10q-27 -42 -46.5 -88t-31 -95t-8 -98.5t24.5 -88.5q35 -66 97 -72q0 25 1 51q0 9 6 15t15 6t15 -6.5
t6 -14.5q0 -23 -1 -46q68 20 124 110q4 8 12.5 10t16 -3z" />
    <glyph glyph-name="quotesingle" unicode="'" horiz-adv-x="207" 
d="M156 701q2 -24 -8 -51t-26.5 -49.5t-36.5 -40.5q-6 -6 -14 -6q-9 0 -16 7q-5 7 -4.5 15.5t6.5 14.5q26 24 42.5 54.5t14.5 52.5q-1 17 -16 27q-8 5 -10 13.5t3 16t13.5 9t15.5 -2.5q33 -21 36 -60z" />
    <glyph glyph-name="quotesingle" unicode="&#x2019;" horiz-adv-x="207" 
d="M156 701q2 -24 -8 -51t-26.5 -49.5t-36.5 -40.5q-6 -6 -14 -6q-9 0 -16 7q-5 7 -4.5 15.5t6.5 14.5q26 24 42.5 54.5t14.5 52.5q-1 17 -16 27q-8 5 -10 13.5t3 16t13.5 9t15.5 -2.5q33 -21 36 -60z" />
    <glyph glyph-name="quotesingle" unicode="&#x2018;" horiz-adv-x="207" 
d="M156 701q2 -24 -8 -51t-26.5 -49.5t-36.5 -40.5q-6 -6 -14 -6q-9 0 -16 7q-5 7 -4.5 15.5t6.5 14.5q26 24 42.5 54.5t14.5 52.5q-1 17 -16 27q-8 5 -10 13.5t3 16t13.5 9t15.5 -2.5q33 -21 36 -60z" />
    <glyph glyph-name="parenleft" unicode="(" horiz-adv-x="304" 
d="M219 -234q-5 -5 -13 -5q-10 0 -16 8q-59 70 -92.5 158.5t-42.5 177.5t-0.5 190t28.5 191t51.5 186.5t61.5 170.5t66 148q3 8 11.5 11t16.5 -1t11 -12t-1 -16q-153 -323 -194 -595q-56 -374 116 -582q6 -7 5 -15.5t-8 -14.5z" />
    <glyph glyph-name="parenright" unicode=")" horiz-adv-x="346" 
d="M268 578q52 -220 10 -413q-30 -141 -110 -254.5t-204 -191.5q-5 -3 -11 -3q-12 0 -18 10q-4 7 -2.5 15.5t9.5 13.5q116 73 191 179.5t104 239.5q39 180 -9.5 388.5t-173.5 398.5q-5 7 -3 15.5t9 13.5t15.5 3t13.5 -9q128 -194 179 -406z" />
    <glyph glyph-name="asterisk" unicode="*" horiz-adv-x="370" 
d="M320 741q1 -5 -0.5 -10.5t-5.5 -9.5t-10 -5q-14 -3 -77 -51q18 -22 39 -47q37 -45 40 -48q6 -6 6 -14.5t-6 -15t-15 -6.5t-15 6q-3 3 -42 51q-15 18 -22 26q-10 -85 -10 -102q0 -8 -6 -14.5t-15 -6.5t-15 6t-6 15q-1 20 10 104q-11 -9 -28 -23q-46 -37 -58 -46
q-6 -4 -13 -4q-11 0 -17 9q-5 7 -3.5 15.5t8.5 13.5q11 9 56 45q31 26 52 42q-61 73 -71 81q-7 5 -8 13.5t4.5 15.5t14.5 8t16 -4q11 -10 60 -67q12 89 16 110q2 9 9.5 13.5t16 3t13.5 -9t3 -15.5q-4 -20 -16 -104q50 37 69 41q5 1 9 0.5t7.5 -2.5t6 -5.5t3.5 -8.5z" />
    <glyph glyph-name="plus" unicode="+" horiz-adv-x="436" 
d="M365 358q9 0 15 -6t6 -15t-6 -15t-15 -6q-40 0 -125 -4q-7 -40 -18 -97q-8 -43 -10 -50.5t-6 -10.5q-6 -7 -15 -7t-15 7q-8 8 -5 20q0 4 9 49q9 48 17 86q-28 -1 -80 -4q-33 -2 -45 -3h-1q-8 0 -14.5 6t-6.5 14q0 9 5.5 15.5t14.5 7.5q14 0 45 2q58 3 90 5q21 105 23 113
q3 8 11 12t16 1t12 -11t1 -16q-2 -8 -19 -97q77 4 116 4z" />
    <glyph glyph-name="comma" unicode="," horiz-adv-x="130" 
d="M112 -27q3 -35 -18 -74t-53 -68q-6 -5 -14 -5q-10 0 -16 7q-6 6 -5.5 15t7.5 15q26 23 42.5 53.5t14.5 52.5q-2 18 -17 27q-7 5 -9 13.5t2.5 16t13 9.5t16.5 -3q33 -20 36 -59z" />
    <glyph glyph-name="hyphen" unicode="-" horiz-adv-x="445" 
d="M391 324q5 -8 3.5 -16.5t-8.5 -13.5q-6 -3 -23.5 -3.5t-117.5 -0.5q-158 1 -172 -1h-2q-8 0 -14 5.5t-7 13.5q-1 9 4.5 15.5t14.5 7.5q16 2 176 1q114 0 125 1q14 2 21 -9z" />
    <glyph glyph-name="period" unicode="." horiz-adv-x="128" 
d="M46 41q31 10 40 -15q9 -22 -12 -37q-13 -10 -35 -8q-18 1 -21.5 14t5.5 27t23 19z" />
    <glyph glyph-name="slash" unicode="/" horiz-adv-x="352" 
d="M300 1102q-153 -323 -194 -595q-56 -374 116 -582q6 -7 5 -15.5t-8 -14.5q-5 -5 -13 -5q-10 0 -16 8q-58 70 -92 158.5t-43 177.5t-0.5 190t28.5 191t51.5 186.5t61.5 170.5t66 148q3 8 11.5 11t16.5 -1t11 -12t-1 -16z" />
    <glyph glyph-name="zero" unicode="0" horiz-adv-x="396" 
d="M359 564q14 -78 9 -169t-28 -175q-17 -60 -38.5 -104t-44 -68t-40.5 -36t-35 -17q-15 -5 -29 -5q-36 0 -64 31q-40 44 -54.5 147t-2 216t44.5 192q43 104 109 107q9 1 15.5 -5t6.5 -14.5t-5.5 -15t-14.5 -7.5q-39 -2 -71 -81q-32 -76 -43 -183.5t1.5 -199.5t44.5 -128
q21 -23 49 -14q39 12 73.5 64t56.5 132q22 79 27 165.5t-9 160.5q-3 19 -8 37.5t-13 40t-20 39.5t-27 32.5t-35.5 22t-44.5 6.5q-6 0 -11 2.5t-8 7t-4 10.5q0 9 5.5 15.5t14.5 6.5q73 4 123.5 -51.5t69.5 -161.5z" />
    <glyph glyph-name="one" unicode="1" horiz-adv-x="255" 
d="M135 764q34 -6 52.5 -52.5t17.5 -125.5q0 -93 -6 -206t-15.5 -220t-21.5 -181q-1 -8 -7 -13t-13 -5h-4q-8 2 -13.5 9t-3.5 15q17 113 29.5 287t12.5 314q0 45 -6.5 77.5t-14.5 45t-15 14.5q-5 1 -14 -6t-21.5 -27.5t-23.5 -50.5q-3 -8 -11 -11.5t-16.5 -0.5t-12 11
t-0.5 16q14 37 30 62t30.5 34.5t25.5 12.5t21 1z" />
    <glyph glyph-name="two" unicode="2" horiz-adv-x="440" 
d="M412.5 49.5q1.5 -8.5 -4 -15.5t-13.5 -9q-54 -8 -167 9q-53 8 -77 9q-46 -74 -87 -74q-2 0 -4 1q-15 1 -24 12t-9 27q-1 25 19 47t56 28q11 2 25 2q49 89 97 257q36 126 37 244.5t-34 137.5q-4 2 -9 2.5t-15.5 -2.5t-23.5 -10.5t-32 -24.5t-41 -42q-6 -6 -15 -6.5
t-15.5 5.5t-7 14.5t5.5 15.5q109 121 174 85q58 -33 55 -183q-2 -122 -38 -247q-45 -157 -91 -248q19 -2 60 -8q106 -16 154 -9q9 2 16 -3.5t8.5 -14zM70 14q12 6 26 25q-16 -6 -24 -19q-2 -3 -2 -6z" />
    <glyph glyph-name="three" unicode="3" horiz-adv-x="327" 
d="M214 438q53 -71 74 -155.5t4 -153.5q-23 -86 -99 -121q-28 -13 -58 -13q-32 0 -60 14.5t-45 40.5q-4 8 -2.5 16.5t9 13t16 2.5t13.5 -9q16 -26 47.5 -33.5t61.5 6.5q58 27 76 94q15 59 -4.5 134.5t-66.5 138.5l-4 6q-20 27 -43 53q-12 13 -16 27.5t-3.5 25.5t8.5 27.5
t14 26t19 27.5q43 61 60 103q7 18 1 24q-8 9 -33.5 7t-51.5 -14q-55 -28 -51 -71q0 -9 -5.5 -15.5t-14 -7.5t-15.5 5t-7 14q-4 34 16 64t58 49q35 17 71 18.5t61 -18.5q28 -25 10 -70q-18 -47 -64 -112q-27 -39 -32 -53t7 -29q24 -27 45 -56z" />
    <glyph glyph-name="four" unicode="4" horiz-adv-x="345" 
d="M304 486q12 -5 14 -20.5t-2 -30.5q-3 -17 -12 -67q-58 -305 -12 -337q7 -5 8.5 -14t-3.5 -16q-6 -9 -17 -9q-7 0 -13 4q-22 16 -32 51.5t-6.5 91.5t11 107.5t22.5 129.5q5 23 6 31q-38 -41 -71 -73q-49 -50 -80 -75t-46.5 -30.5t-26.5 0.5q-27 12 -11 57q21 65 68 255
q36 146 53 206q2 5 6 9t9.5 5t11.5 0q8 -3 12 -10.5t2 -15.5q-17 -59 -53 -204q-45 -186 -67 -251q35 25 101 92t96 102q14 19 32 12z" />
    <glyph glyph-name="five" unicode="5" horiz-adv-x="389" 
d="M360 703q4 -7 1.5 -15.5t-10 -13t-16 -2t-12.5 9.5q-13 22 -67 32.5t-125 0.5q-13 -37 -29 -119t-19 -121q97 22 153 -40q47 -52 50 -147q3 -87 -30 -164q-21 -50 -56.5 -85.5t-75.5 -45.5q-15 -5 -30 -5q-33 0 -59 20q-7 5 -8 14t4 16t14 8t16 -4q22 -17 52.5 -8.5
t58.5 37t45 69.5q18 43 24 93t-3 98t-34 76q-44 49 -131 22q-14 -5 -24 7q-5 5 -7 12.5t1 42t14 95.5q23 120 39 156q5 10 16 12q50 8 99 7.5t91 -15.5t58 -43z" />
    <glyph glyph-name="six" unicode="6" horiz-adv-x="415" 
d="M388 237q16 -67 -2 -126t-66 -96q-46 -36 -102 -36q-37 0 -70 17q-22 11 -41.5 30.5t-40 54.5t-31.5 93.5t-7 133.5q4 92 29.5 181t66 154t87.5 91q54 29 103 0q8 -5 10 -13.5t-2.5 -16t-13 -9.5t-15.5 2q-29 17 -62 0q-60 -33 -108 -149t-53 -241q-5 -104 20.5 -175.5
t76.5 -97.5q30 -16 64.5 -12t62.5 26q38 29 52 77t1 103q-5 20 -15 37t-23.5 27t-28.5 13q-45 8 -82 -51q-16 -25 -22.5 -58.5t0.5 -60.5q6 -23 18 -30q7 -4 9.5 -12.5t-2 -16t-13 -10t-16.5 2.5q-27 16 -37 56q-9 36 -1.5 78t28.5 74q25 39 58 57.5t67 12.5q36 -6 63.5 -36
t37.5 -74z" />
    <glyph glyph-name="seven" unicode="7" horiz-adv-x="391" 
d="M344 378q9 -1 15 -7.5t5.5 -15t-7 -14.5t-15.5 -5q-22 1 -92 -4q-8 -71 -19 -140q-31 -194 -56 -210q-6 -4 -13 -4q-4 0 -8 2q-8 3 -11.5 11t-0.5 16q3 7 8 10q7 14 17 59t20.5 112.5t19.5 139.5q-76 -6 -89 -11q-4 -2 -8 -2q-14 0 -19 13q-4 8 -0.5 16t11.5 12
q19 7 110 15q10 97 13 175q2 46 -0.5 81.5t-8.5 56t-13 31t-15 10.5q-28 3 -73 -48q-18 -21 -31 -42t-15 -29q0 -8 -5.5 -14t-13.5 -7q-9 -1 -15.5 4.5t-7.5 14.5q-2 25 35.5 74.5t72.5 72.5q45 29 80 9q59 -34 53 -215q-3 -76 -13 -171q69 5 89 4z" />
    <glyph glyph-name="eight" unicode="8" horiz-adv-x="321" 
d="M203 297q53 -94 73 -148q14 -36 16 -67t-6 -50.5t-16 -30.5t-17 -19q-27 -21 -63 -21q-37 0 -68 22q-8 6 -16.5 13.5t-19 24.5t-16.5 36.5t-6 50t11 64.5q14 48 44 93q12 27 24 52q-84 146 -105 216q-36 126 45 193q36 30 81 38t85 -17q15 -10 25.5 -27.5t17 -47.5
t-1.5 -79.5t-32 -112.5q-23 -58 -57 -135q8 3 16 0t11 -10q4 -8 1 -16.5t-11 -12.5q-7 -3 -15 -9zM79 545q18 -63 85 -180q32 74 54 131q22 54 30 96.5t3 66t-11.5 35.5t-15.5 19q-15 11 -37 11q-40 0 -77 -31q-60 -49 -31 -148zM227 15q41 33 10 120q-18 49 -65 131
q-39 -48 -57 -106q-14 -47 -6 -84.5t37 -57.5q20 -14 42.5 -14.5t38.5 11.5z" />
    <glyph glyph-name="nine" unicode="9" horiz-adv-x="390" 
d="M349 647q12 -44 13.5 -136t-9 -193.5t-43.5 -193.5t-82 -128q-30 -22 -66 -22q-42 0 -87 29q-7 5 -8.5 13.5t3 16t13 9.5t16.5 -3q72 -48 122 7q36 40 61 127.5t35 207.5q13 165 -8 250q-24 -51 -52.5 -86t-54 -50.5t-43 -21t-33.5 -5.5h-1q-28 0 -51 14t-35 40
q-18 36 -9 80t43 87q36 47 85.5 55.5t100.5 -21.5q8 -5 10 -13.5t-2.5 -16t-13 -9.5t-16.5 2q-23 15 -45 17.5t-38.5 -4.5t-27.5 -16t-20 -20q-19 -25 -28 -49.5t-8.5 -42t7.5 -31.5q14 -29 48 -29h1q10 0 23 4.5t34 17.5t45.5 45t46.5 79q15 34 39 32q23 -2 35 -42z" />
    <glyph glyph-name="colon" unicode=":" horiz-adv-x="174" 
d="M75 246q-28 2 -22 27q7 25 29 33q30 10 40 -13q9 -22 -11 -38q-14 -10 -36 -9zM80 60q29 10 39 -13q10 -22 -11 -38q-13 -10 -36 -9q-18 1 -21.5 14t6 27t23.5 19z" />
    <glyph glyph-name="semicolon" unicode=";" horiz-adv-x="209" 
d="M120 32q33 -20 36 -59q3 -35 -18 -74t-53 -68q-6 -5 -14 -5q-9 0 -16 7q-5 6 -5 15t7 15q26 23 42.5 53.5t14.5 52.5q-1 18 -16 27q-8 5 -10 13.5t3 16t13.5 9.5t15.5 -3zM110 246q-18 1 -21.5 14t5.5 27t23 19q30 10 40 -13q9 -22 -11 -38q-14 -10 -36 -9z" />
    <glyph glyph-name="less" unicode="&#x3c;" horiz-adv-x="419" 
d="M359 139q7 -5 9.5 -13t-1.5 -16q-7 -11 -19 -11q-5 0 -10 3q-29 16 -91 48q-41 21 -61 32t-51 29.5t-45.5 32t-26.5 31t-13 35.5q-2 42 51 77q99 64 218 170q6 6 15 5.5t15 -7t5.5 -15.5t-7.5 -14q-121 -109 -222 -175q-34 -21 -33 -39q1 -13 16 -28.5t45.5 -34t52 -30
t61.5 -31.5q63 -33 92 -49z" />
    <glyph glyph-name="equal" unicode="=" horiz-adv-x="548" 
d="M94 403q-8 0 -14.5 5.5t-6.5 13.5q-1 9 4.5 15.5t14.5 7.5q24 2 277 1h85q9 0 15.5 -5.5t6.5 -14.5t-6 -15.5t-14 -6.5h-87q-251 1 -273 -1h-2zM477 241q8 1 14.5 -5t7 -15t-5.5 -15.5t-15 -6.5h-98q-282 1 -307 -1h-2q-5 0 -10 2.5t-7.5 7t-3.5 9.5q-1 9 5 15.5t14 7.5
q27 2 312 1h96z" />
    <glyph glyph-name="greater" unicode="&#x3e;" horiz-adv-x="450" 
d="M400 360q3 -28 -23 -49q-158 -125 -286 -201q-5 -3 -11 -3q-12 0 -18 10q-4 8 -2 16.5t10 12.5q125 75 281 198q8 7 7 11q-1 11 -17 25t-47.5 32t-53 29.5t-57.5 29.5q-94 47 -124 68q-7 5 -8.5 13.5t3.5 15.5t13.5 8.5t15.5 -3.5q28 -19 118 -64q35 -17 52 -26t44 -24
t41.5 -25t30 -23.5t23 -26t8.5 -24.5z" />
    <glyph glyph-name="question" unicode="?" horiz-adv-x="366" 
d="M257 769q88 -75 45 -297q-18 -90 -71 -218q-23 -56 -33 -85.5t-17 -76.5t-2 -95q1 -9 -4.5 -16t-14.5 -8h-2q-8 0 -14 5.5t-7 13.5q-6 53 2 105.5t18.5 83.5t34.5 89q51 124 68 211q12 60 13.5 108t-6.5 77t-17 45t-21 26q-35 30 -85 12q-29 -11 -49.5 -35t-25.5 -52
q-1 -9 -8 -14t-16 -4t-14 8.5t-4 15.5q7 40 34.5 72.5t67.5 47.5q73 27 128 -19zM156 -107q27 10 41 -14q12 -21 -4 -35q-11 -9 -32 -8q-17 2 -23 14t-0.5 25.5t18.5 17.5z" />
    <glyph glyph-name="at" unicode="@" horiz-adv-x="828" 
d="M547.5 636.5q99.5 -32.5 157.5 -117t56 -194.5q-1 -116 -40 -195t-95 -80h-2q-45 0 -76 54.5t-43 155.5q-55 -76 -98 -124q-42 -45 -76 -31q-40 16 -39 96q1 33 9 67t27.5 66t47.5 42q52 18 106 -45q5 -7 4.5 -16t-7 -14.5t-15.5 -5t-14 7.5q-36 41 -60 33
q-22 -8 -38 -48t-17 -88q-1 -17 1.5 -30.5t5.5 -19t5 -6.5q6 -3 28 21q44 47 108 137q16 22 22 29q9 12 23 7.5t15 -18.5q7 -121 36 -183q21 -45 45 -45h1q14 0 30 16t30 44.5t23.5 74.5t10.5 99q1 63 -21 118t-64.5 94.5t-98.5 57.5q-36 12 -75 13t-80.5 -10t-82.5 -40.5
t-73 -76.5q-53 -75 -75 -165t-2.5 -180.5t84.5 -149.5q58 -54 130 -51t141 62q7 6 15.5 5t14.5 -7.5t5 -15t-7 -14.5q-85 -72 -176 -72q-84 0 -152 61q-46 42 -73.5 104.5t-32.5 134.5q-11 164 93 313q64 91 161.5 126.5t197 3z" />
    <glyph glyph-name="A" unicode="A" horiz-adv-x="985" 
d="M988.5 190q8.5 -2 12.5 -10t2 -16q-39 -142 -102 -230.5t-125 -88.5h-5q-80 5 -98 150q-2 18 -2 45t2 66t4.5 72.5t7.5 89t8.5 88t9.5 94.5q22 213 26 288q-8 -29 -28 -100q-98 -358 -165 -530q-28 -74 -61 -126.5t-65 -79.5t-59 -38.5t-54 -12.5q-37 -2 -73 15.5
t-67 52.5t-56 85q-37 77 -51 175t-1 199q30 244 196 438q82 97 173 134.5t152 17.5q54 -17 58 -65q1 -9 -5 -15.5t-14.5 -7.5t-15 4.5t-7.5 14.5q-2 20 -29 29q-17 3 -38 4t-50 -8.5t-59 -24.5t-65.5 -44t-67.5 -67q-157 -184 -186 -415q-12 -96 1 -187.5t47 -163.5
q31 -63 72 -97t85 -32q55 3 107 62t94 168q66 170 164 526q45 165 56 182q15 22 34 15q6 -2 9.5 -5t6.5 -11.5t4.5 -20.5t1.5 -33.5t-2 -48.5t-5.5 -69.5t-8.5 -92.5t-12 -119q-38 -376 -30 -446q7 -52 22 -82t37 -31q41 -3 96.5 77.5t91.5 210.5q3 9 10.5 13t16 2z" />
    <glyph glyph-name="A" unicode="&#xc5;" horiz-adv-x="985" 
d="M988.5 190q8.5 -2 12.5 -10t2 -16q-39 -142 -102 -230.5t-125 -88.5h-5q-80 5 -98 150q-2 18 -2 45t2 66t4.5 72.5t7.5 89t8.5 88t9.5 94.5q22 213 26 288q-8 -29 -28 -100q-98 -358 -165 -530q-28 -74 -61 -126.5t-65 -79.5t-59 -38.5t-54 -12.5q-37 -2 -73 15.5
t-67 52.5t-56 85q-37 77 -51 175t-1 199q30 244 196 438q82 97 173 134.5t152 17.5q54 -17 58 -65q1 -9 -5 -15.5t-14.5 -7.5t-15 4.5t-7.5 14.5q-2 20 -29 29q-17 3 -38 4t-50 -8.5t-59 -24.5t-65.5 -44t-67.5 -67q-157 -184 -186 -415q-12 -96 1 -187.5t47 -163.5
q31 -63 72 -97t85 -32q55 3 107 62t94 168q66 170 164 526q45 165 56 182q15 22 34 15q6 -2 9.5 -5t6.5 -11.5t4.5 -20.5t1.5 -33.5t-2 -48.5t-5.5 -69.5t-8.5 -92.5t-12 -119q-38 -376 -30 -446q7 -52 22 -82t37 -31q41 -3 96.5 77.5t91.5 210.5q3 9 10.5 13t16 2z" />
    <glyph glyph-name="A" unicode="&#xc3;" horiz-adv-x="985" 
d="M988.5 190q8.5 -2 12.5 -10t2 -16q-39 -142 -102 -230.5t-125 -88.5h-5q-80 5 -98 150q-2 18 -2 45t2 66t4.5 72.5t7.5 89t8.5 88t9.5 94.5q22 213 26 288q-8 -29 -28 -100q-98 -358 -165 -530q-28 -74 -61 -126.5t-65 -79.5t-59 -38.5t-54 -12.5q-37 -2 -73 15.5
t-67 52.5t-56 85q-37 77 -51 175t-1 199q30 244 196 438q82 97 173 134.5t152 17.5q54 -17 58 -65q1 -9 -5 -15.5t-14.5 -7.5t-15 4.5t-7.5 14.5q-2 20 -29 29q-17 3 -38 4t-50 -8.5t-59 -24.5t-65.5 -44t-67.5 -67q-157 -184 -186 -415q-12 -96 1 -187.5t47 -163.5
q31 -63 72 -97t85 -32q55 3 107 62t94 168q66 170 164 526q45 165 56 182q15 22 34 15q6 -2 9.5 -5t6.5 -11.5t4.5 -20.5t1.5 -33.5t-2 -48.5t-5.5 -69.5t-8.5 -92.5t-12 -119q-38 -376 -30 -446q7 -52 22 -82t37 -31q41 -3 96.5 77.5t91.5 210.5q3 9 10.5 13t16 2z" />
    <glyph glyph-name="A" unicode="&#xc2;" horiz-adv-x="985" 
d="M988.5 190q8.5 -2 12.5 -10t2 -16q-39 -142 -102 -230.5t-125 -88.5h-5q-80 5 -98 150q-2 18 -2 45t2 66t4.5 72.5t7.5 89t8.5 88t9.5 94.5q22 213 26 288q-8 -29 -28 -100q-98 -358 -165 -530q-28 -74 -61 -126.5t-65 -79.5t-59 -38.5t-54 -12.5q-37 -2 -73 15.5
t-67 52.5t-56 85q-37 77 -51 175t-1 199q30 244 196 438q82 97 173 134.5t152 17.5q54 -17 58 -65q1 -9 -5 -15.5t-14.5 -7.5t-15 4.5t-7.5 14.5q-2 20 -29 29q-17 3 -38 4t-50 -8.5t-59 -24.5t-65.5 -44t-67.5 -67q-157 -184 -186 -415q-12 -96 1 -187.5t47 -163.5
q31 -63 72 -97t85 -32q55 3 107 62t94 168q66 170 164 526q45 165 56 182q15 22 34 15q6 -2 9.5 -5t6.5 -11.5t4.5 -20.5t1.5 -33.5t-2 -48.5t-5.5 -69.5t-8.5 -92.5t-12 -119q-38 -376 -30 -446q7 -52 22 -82t37 -31q41 -3 96.5 77.5t91.5 210.5q3 9 10.5 13t16 2z" />
    <glyph glyph-name="A" unicode="&#xc1;" horiz-adv-x="985" 
d="M988.5 190q8.5 -2 12.5 -10t2 -16q-39 -142 -102 -230.5t-125 -88.5h-5q-80 5 -98 150q-2 18 -2 45t2 66t4.5 72.5t7.5 89t8.5 88t9.5 94.5q22 213 26 288q-8 -29 -28 -100q-98 -358 -165 -530q-28 -74 -61 -126.5t-65 -79.5t-59 -38.5t-54 -12.5q-37 -2 -73 15.5
t-67 52.5t-56 85q-37 77 -51 175t-1 199q30 244 196 438q82 97 173 134.5t152 17.5q54 -17 58 -65q1 -9 -5 -15.5t-14.5 -7.5t-15 4.5t-7.5 14.5q-2 20 -29 29q-17 3 -38 4t-50 -8.5t-59 -24.5t-65.5 -44t-67.5 -67q-157 -184 -186 -415q-12 -96 1 -187.5t47 -163.5
q31 -63 72 -97t85 -32q55 3 107 62t94 168q66 170 164 526q45 165 56 182q15 22 34 15q6 -2 9.5 -5t6.5 -11.5t4.5 -20.5t1.5 -33.5t-2 -48.5t-5.5 -69.5t-8.5 -92.5t-12 -119q-38 -376 -30 -446q7 -52 22 -82t37 -31q41 -3 96.5 77.5t91.5 210.5q3 9 10.5 13t16 2z" />
    <glyph glyph-name="A" unicode="&#xc0;" horiz-adv-x="985" 
d="M988.5 190q8.5 -2 12.5 -10t2 -16q-39 -142 -102 -230.5t-125 -88.5h-5q-80 5 -98 150q-2 18 -2 45t2 66t4.5 72.5t7.5 89t8.5 88t9.5 94.5q22 213 26 288q-8 -29 -28 -100q-98 -358 -165 -530q-28 -74 -61 -126.5t-65 -79.5t-59 -38.5t-54 -12.5q-37 -2 -73 15.5
t-67 52.5t-56 85q-37 77 -51 175t-1 199q30 244 196 438q82 97 173 134.5t152 17.5q54 -17 58 -65q1 -9 -5 -15.5t-14.5 -7.5t-15 4.5t-7.5 14.5q-2 20 -29 29q-17 3 -38 4t-50 -8.5t-59 -24.5t-65.5 -44t-67.5 -67q-157 -184 -186 -415q-12 -96 1 -187.5t47 -163.5
q31 -63 72 -97t85 -32q55 3 107 62t94 168q66 170 164 526q45 165 56 182q15 22 34 15q6 -2 9.5 -5t6.5 -11.5t4.5 -20.5t1.5 -33.5t-2 -48.5t-5.5 -69.5t-8.5 -92.5t-12 -119q-38 -376 -30 -446q7 -52 22 -82t37 -31q41 -3 96.5 77.5t91.5 210.5q3 9 10.5 13t16 2z" />
    <glyph glyph-name="B" unicode="B" horiz-adv-x="967" 
d="M817 484q48 -60 50.5 -155t-41.5 -198q-30 -67 -77.5 -129t-115 -117.5t-161 -91.5t-198.5 -44h-2q-8 0 -14 5.5t-7 13.5q-1 9 5 15.5t15 7.5q99 7 186 41t150 85.5t108 109.5t72 121q39 91 38 175t-41 134q-65 81 -209 52q-21 -5 -41 -10q-49 -69 -119 -139
q-87 -86 -129 -65q-24 12 -20 43q4 25 25.5 56t56.5 59q66 53 159 82q113 163 76 270q-13 38 -46.5 62t-82.5 30q-94 12 -202 -39q-32 -161 -54 -330.5t-32 -339t6.5 -300t62.5 -180.5q28 -31 68 -26q6 1 11 -1.5t8.5 -7t4.5 -9.5q1 -9 -4.5 -16t-14.5 -8q-8 -1 -16 -1
q-52 0 -88 40q-105 115 -78 554q17 281 78 599q-90 -53 -174 -139t-148 -186q-5 -7 -13.5 -9t-16 2.5t-9 13.5t2.5 16q141 218 319 328q24 14 49 27q6 27 11 49q1 9 8.5 13.5t16 3t13.5 -9t3 -16.5l-4 -18q107 43 197 32q30 -3 56.5 -13t47.5 -25.5t36.5 -36.5t23.5 -46
q39 -111 -55 -268q168 34 249 -66zM385 390q40 41 74 81q-96 -44 -138 -108q-10 -17 -12 -29q27 8 76 56z" />
    <glyph glyph-name="C" unicode="C" horiz-adv-x="846" 
d="M859.5 83.5q7.5 -3.5 10.5 -12t-1 -16.5q-95 -199 -247 -288q-98 -58 -202 -58q-43 0 -85 11q-140 36 -217.5 172t-66.5 327q14 233 126 402q96 145 239 211q82 38 157.5 38.5t123.5 -35.5q70 -53 54 -156q-1 -8 -8.5 -13.5t-16 -4t-13.5 8.5t-4 16q12 78 -37 115
q-39 29 -103.5 27t-134.5 -35q-132 -60 -221 -195q-106 -160 -119 -382q-11 -186 65 -311q69 -114 187 -144q126 -33 254 42q142 83 231 271q4 8 12.5 10.5t16 -1z" />
    <glyph glyph-name="C" unicode="&#xc7;" horiz-adv-x="846" 
d="M859.5 83.5q7.5 -3.5 10.5 -12t-1 -16.5q-95 -199 -247 -288q-98 -58 -202 -58q-43 0 -85 11q-140 36 -217.5 172t-66.5 327q14 233 126 402q96 145 239 211q82 38 157.5 38.5t123.5 -35.5q70 -53 54 -156q-1 -8 -8.5 -13.5t-16 -4t-13.5 8.5t-4 16q12 78 -37 115
q-39 29 -103.5 27t-134.5 -35q-132 -60 -221 -195q-106 -160 -119 -382q-11 -186 65 -311q69 -114 187 -144q126 -33 254 42q142 83 231 271q4 8 12.5 10.5t16 -1z" />
    <glyph glyph-name="D" unicode="D" horiz-adv-x="1178" 
d="M1104 548q17 -174 -50 -353q-75 -203 -225 -325t-340 -135h-2q-8 0 -14 5.5t-7 14.5q0 8 5.5 14.5t14.5 7.5q177 12 317.5 127t210.5 305q64 172 47 338t-109 256q-73 72 -183 82t-250 -43q-35 -13 -70 -31q-22 -126 -39.5 -256t-27 -269t-7.5 -254.5t20.5 -206.5
t55.5 -131q28 -31 69 -26q8 1 15 -4.5t8 -13.5q1 -6 -1 -11t-6.5 -8.5t-10.5 -4.5q-9 -1 -17 -1q-51 0 -88 40q-106 115 -84 554q13 264 66 565q-165 -101 -314 -292q-5 -7 -14 -8.5t-16 4t-8 14.5t4 15q169 217 357 321q8 43 16 82q2 9 9.5 13.5t16 3t13 -9t3.5 -15.5
q-5 -24 -10 -50q23 11 45 20q47 17 91 28.5t81.5 15.5t71 3.5t63 -7t54.5 -15t46.5 -21t38.5 -25.5t32 -28q104 -103 122 -285z" />
    <glyph glyph-name="E" unicode="E" horiz-adv-x="839" 
d="M765 115q7 -5 9 -13.5t-2 -15.5q-182 -285 -350 -398q-98 -66 -181 -66q-43 0 -79 18q-82 40 -105 149.5t23 236.5q69 191 340 457q29 28 28 37q-3 7 -61.5 31.5t-94.5 43.5q-49 26 -46 89q2 65 58 137t127 101q103 44 181 -26q7 -6 7 -15t-5.5 -15.5t-14.5 -6.5t-15 5
q-58 52 -136 19q-56 -23 -107 -84.5t-53 -116.5q-2 -36 24 -49q34 -18 91 -42q31 -13 44.5 -19.5t26 -18t15.5 -25.5q6 -31 -39 -75q-128 -125 -213 -239t-117 -202q-40 -110 -22.5 -206t83.5 -128q26 -13 59.5 -13t74 14t88.5 47.5t100 83.5t112 126.5t121 172.5
q5 7 13.5 9t15.5 -3z" />
    <glyph glyph-name="E" unicode="&#xcb;" horiz-adv-x="839" 
d="M765 115q7 -5 9 -13.5t-2 -15.5q-182 -285 -350 -398q-98 -66 -181 -66q-43 0 -79 18q-82 40 -105 149.5t23 236.5q69 191 340 457q29 28 28 37q-3 7 -61.5 31.5t-94.5 43.5q-49 26 -46 89q2 65 58 137t127 101q103 44 181 -26q7 -6 7 -15t-5.5 -15.5t-14.5 -6.5t-15 5
q-58 52 -136 19q-56 -23 -107 -84.5t-53 -116.5q-2 -36 24 -49q34 -18 91 -42q31 -13 44.5 -19.5t26 -18t15.5 -25.5q6 -31 -39 -75q-128 -125 -213 -239t-117 -202q-40 -110 -22.5 -206t83.5 -128q26 -13 59.5 -13t74 14t88.5 47.5t100 83.5t112 126.5t121 172.5
q5 7 13.5 9t15.5 -3z" />
    <glyph glyph-name="E" unicode="&#xca;" horiz-adv-x="839" 
d="M765 115q7 -5 9 -13.5t-2 -15.5q-182 -285 -350 -398q-98 -66 -181 -66q-43 0 -79 18q-82 40 -105 149.5t23 236.5q69 191 340 457q29 28 28 37q-3 7 -61.5 31.5t-94.5 43.5q-49 26 -46 89q2 65 58 137t127 101q103 44 181 -26q7 -6 7 -15t-5.5 -15.5t-14.5 -6.5t-15 5
q-58 52 -136 19q-56 -23 -107 -84.5t-53 -116.5q-2 -36 24 -49q34 -18 91 -42q31 -13 44.5 -19.5t26 -18t15.5 -25.5q6 -31 -39 -75q-128 -125 -213 -239t-117 -202q-40 -110 -22.5 -206t83.5 -128q26 -13 59.5 -13t74 14t88.5 47.5t100 83.5t112 126.5t121 172.5
q5 7 13.5 9t15.5 -3z" />
    <glyph glyph-name="E" unicode="&#xc9;" horiz-adv-x="839" 
d="M765 115q7 -5 9 -13.5t-2 -15.5q-182 -285 -350 -398q-98 -66 -181 -66q-43 0 -79 18q-82 40 -105 149.5t23 236.5q69 191 340 457q29 28 28 37q-3 7 -61.5 31.5t-94.5 43.5q-49 26 -46 89q2 65 58 137t127 101q103 44 181 -26q7 -6 7 -15t-5.5 -15.5t-14.5 -6.5t-15 5
q-58 52 -136 19q-56 -23 -107 -84.5t-53 -116.5q-2 -36 24 -49q34 -18 91 -42q31 -13 44.5 -19.5t26 -18t15.5 -25.5q6 -31 -39 -75q-128 -125 -213 -239t-117 -202q-40 -110 -22.5 -206t83.5 -128q26 -13 59.5 -13t74 14t88.5 47.5t100 83.5t112 126.5t121 172.5
q5 7 13.5 9t15.5 -3z" />
    <glyph glyph-name="E" unicode="&#xc8;" horiz-adv-x="839" 
d="M765 115q7 -5 9 -13.5t-2 -15.5q-182 -285 -350 -398q-98 -66 -181 -66q-43 0 -79 18q-82 40 -105 149.5t23 236.5q69 191 340 457q29 28 28 37q-3 7 -61.5 31.5t-94.5 43.5q-49 26 -46 89q2 65 58 137t127 101q103 44 181 -26q7 -6 7 -15t-5.5 -15.5t-14.5 -6.5t-15 5
q-58 52 -136 19q-56 -23 -107 -84.5t-53 -116.5q-2 -36 24 -49q34 -18 91 -42q31 -13 44.5 -19.5t26 -18t15.5 -25.5q6 -31 -39 -75q-128 -125 -213 -239t-117 -202q-40 -110 -22.5 -206t83.5 -128q26 -13 59.5 -13t74 14t88.5 47.5t100 83.5t112 126.5t121 172.5
q5 7 13.5 9t15.5 -3z" />
    <glyph glyph-name="F" unicode="F" horiz-adv-x="708" 
d="M1217 846q30 -36 -7 -82q-5 -6 -14 -7t-16 4.5t-7.5 14t4.5 15.5q15 19 8 28q-24 29 -147 35q-126 7 -300 -16q-136 -17 -266 -48q-82 -353 -108 -648q109 34 203 32q9 0 15 -6.5t6 -15.5q0 -5 -3 -10t-8 -7.5t-10 -2.5q-96 2 -206 -36q-23 -331 53 -418q26 -30 66 -25
q9 1 16 -4.5t8 -14t-4.5 -15.5t-14.5 -8q-8 -1 -16 -1q-52 0 -87 40q-85 98 -65 430q-25 -10 -48 -21q-4 -3 -9 -3q-13 0 -19 12q-4 8 -1 16.5t11 12.5q33 16 70 30q3 38 7 78q28 268 98 573q-210 -54 -345 -128q-4 -2 -10 -2q-12 0 -18 11q-5 7 -2.5 15.5t10.5 12.5
q146 81 376 138q10 43 20 81q2 9 9.5 13t16 2t13 -9.5t2.5 -16.5q-7 -28 -15 -59q123 28 250 44q79 10 153 14.5t143 2.5t119 -15t69 -36z" />
    <glyph glyph-name="G" unicode="G" horiz-adv-x="851" 
d="M800.5 113q1.5 -9 -4 -15.5t-14.5 -8.5q-118 -15 -218 -39q-34 -165 -93 -290q-51 -106 -115.5 -164t-131.5 -58h-7q-29 1 -55 14t-45.5 36t-30.5 53q-8 22 -10.5 46t1.5 52.5t14.5 56.5t32 59t51.5 58q119 109 353 171q14 74 21 148q7 80 5 135.5t-8.5 85t-14.5 36.5
q-5 -3 -12 -12q-260 -322 -402 -322q-14 0 -26 3q-60 16 -73 94q-9 55 10 133.5t60.5 162.5t113.5 168t161 142q48 32 95 36.5t77 -19.5q72 -59 6 -230q-3 -8 -11 -11.5t-16.5 -0.5t-12 11t0.5 17q17 44 23.5 79t3 55t-8.5 30.5t-12 16.5q-19 15 -52.5 10t-69.5 -29
q-58 -38 -120 -104t-112.5 -142.5t-77.5 -162.5t-16 -155q8 -51 41 -60q54 -14 156 66.5t229 238.5q34 42 67 21q20 -12 31 -51t12 -90.5t-0.5 -87.5t-4.5 -69q-6 -66 -18 -132q95 22 204 36q8 2 15 -3.5t8.5 -14.5zM432 -221q54 111 86 259q-208 -59 -314 -156
q-32 -29 -52.5 -61t-28 -62t-6.5 -55.5t9 -48t21.5 -39t32 -26t39.5 -10.5q9 0 18.5 1t23.5 5.5t28.5 12.5t32.5 23.5t35.5 36t37 51.5t37.5 69z" />
    <glyph glyph-name="H" unicode="H" horiz-adv-x="1048" 
d="M988 374q8 -2 12.5 -9.5t2.5 -16t-9 -13t-16 -2.5q-74 17 -217 -2q-12 -185 -8.5 -350.5t25.5 -207.5q4 -8 1.5 -16.5t-10.5 -12.5q-4 -2 -9 -2q-13 0 -19 11q-25 49 -30 217.5t7 354.5q-210 -35 -424 -116q-40 -466 -14 -736q1 -6 -1.5 -11t-7 -8.5t-10.5 -3.5
q-1 -1 -2 -1q-8 0 -14 5.5t-7 14.5q-26 266 13 723q-123 -49 -203 -101q-104 -67 -115 -121q-3 -17 -20 -17q-2 0 -5 1q-8 1 -13 8.5t-3 16.5q14 71 133 148q89 57 230 112q33 372 92 681q1 8 8.5 13t16 3.5t13.5 -9t3 -15.5q-56 -297 -89 -656q109 40 226 70q103 27 195 41
q11 170 28.5 317t35.5 210q2 9 9.5 13t16 2t13 -10t1.5 -16q-17 -62 -33.5 -203t-26.5 -306q146 18 224 0z" />
    <glyph glyph-name="I" unicode="I" horiz-adv-x="394" 
d="M340 -333q8 0 14 -7t5 -15q-1 -9 -7 -14.5t-14 -5.5h-2q-46 4 -77 44q-32 43 -45.5 129t-11 186t18.5 235t35 250t46 256q7 38 10 52q14 74 8 118.5t-30 49.5q-22 4 -58 -19t-71.5 -61.5t-65.5 -92t-40 -103.5q-26 -135 115 -162q8 -2 13 -9.5t3 -15.5q-1 -6 -4.5 -10
t-9 -6t-11.5 -1q-57 12 -94 40.5t-50.5 72t-3.5 99.5q10 52 41 109t75 106q40 45 78 68t57 26t34 0q93 -17 56 -217q-3 -13 -10 -51q-166 -872 -51 -1023q19 -25 47 -28z" />
    <glyph glyph-name="I" unicode="&#xcf;" horiz-adv-x="394" 
d="M340 -333q8 0 14 -7t5 -15q-1 -9 -7 -14.5t-14 -5.5h-2q-46 4 -77 44q-32 43 -45.5 129t-11 186t18.5 235t35 250t46 256q7 38 10 52q14 74 8 118.5t-30 49.5q-22 4 -58 -19t-71.5 -61.5t-65.5 -92t-40 -103.5q-26 -135 115 -162q8 -2 13 -9.5t3 -15.5q-1 -6 -4.5 -10
t-9 -6t-11.5 -1q-57 12 -94 40.5t-50.5 72t-3.5 99.5q10 52 41 109t75 106q40 45 78 68t57 26t34 0q93 -17 56 -217q-3 -13 -10 -51q-166 -872 -51 -1023q19 -25 47 -28z" />
    <glyph glyph-name="I" unicode="&#xce;" horiz-adv-x="394" 
d="M340 -333q8 0 14 -7t5 -15q-1 -9 -7 -14.5t-14 -5.5h-2q-46 4 -77 44q-32 43 -45.5 129t-11 186t18.5 235t35 250t46 256q7 38 10 52q14 74 8 118.5t-30 49.5q-22 4 -58 -19t-71.5 -61.5t-65.5 -92t-40 -103.5q-26 -135 115 -162q8 -2 13 -9.5t3 -15.5q-1 -6 -4.5 -10
t-9 -6t-11.5 -1q-57 12 -94 40.5t-50.5 72t-3.5 99.5q10 52 41 109t75 106q40 45 78 68t57 26t34 0q93 -17 56 -217q-3 -13 -10 -51q-166 -872 -51 -1023q19 -25 47 -28z" />
    <glyph glyph-name="I" unicode="&#xcd;" horiz-adv-x="394" 
d="M340 -333q8 0 14 -7t5 -15q-1 -9 -7 -14.5t-14 -5.5h-2q-46 4 -77 44q-32 43 -45.5 129t-11 186t18.5 235t35 250t46 256q7 38 10 52q14 74 8 118.5t-30 49.5q-22 4 -58 -19t-71.5 -61.5t-65.5 -92t-40 -103.5q-26 -135 115 -162q8 -2 13 -9.5t3 -15.5q-1 -6 -4.5 -10
t-9 -6t-11.5 -1q-57 12 -94 40.5t-50.5 72t-3.5 99.5q10 52 41 109t75 106q40 45 78 68t57 26t34 0q93 -17 56 -217q-3 -13 -10 -51q-166 -872 -51 -1023q19 -25 47 -28z" />
    <glyph glyph-name="I" unicode="&#xcc;" horiz-adv-x="394" 
d="M340 -333q8 0 14 -7t5 -15q-1 -9 -7 -14.5t-14 -5.5h-2q-46 4 -77 44q-32 43 -45.5 129t-11 186t18.5 235t35 250t46 256q7 38 10 52q14 74 8 118.5t-30 49.5q-22 4 -58 -19t-71.5 -61.5t-65.5 -92t-40 -103.5q-26 -135 115 -162q8 -2 13 -9.5t3 -15.5q-1 -6 -4.5 -10
t-9 -6t-11.5 -1q-57 12 -94 40.5t-50.5 72t-3.5 99.5q10 52 41 109t75 106q40 45 78 68t57 26t34 0q93 -17 56 -217q-3 -13 -10 -51q-166 -872 -51 -1023q19 -25 47 -28z" />
    <glyph glyph-name="J" unicode="J" horiz-adv-x="732" 
d="M243 -580q-30 -8 -60 -8q-59 0 -111 33t-85 93q-66 119 -26 273q46 176 222 331q136 119 339 185q-1 103 -10 217q-5 72 -14.5 133t-26.5 107t-38 52q-30 8 -83 -71q-38 -57 -60.5 -129.5t-18.5 -101.5q11 8 28 27q5 6 14 7t15.5 -5t7 -14.5t-4.5 -15.5q-53 -61 -85 -37
q-18 15 -17 50.5t14 80.5t32.5 88.5t39.5 72.5q70 104 129 89q51 -14 79 -115q22 -81 32 -215q7 -108 9 -207q120 34 261 50q9 1 15.5 -4t7.5 -14t-4 -16t-14 -8q-144 -16 -266 -52q1 -348 -75 -573q-21 -61 -47.5 -112t-57.5 -89.5t-67 -64t-74 -37.5zM449 -263
q73 214 73 545q-186 -62 -311 -172q-166 -146 -209 -309q-36 -138 22 -243q34 -62 90.5 -88.5t116.5 -8.5q67 20 123.5 91t94.5 185z" />
    <glyph glyph-name="K" unicode="K" horiz-adv-x="725" 
d="M988.5 -332q5.5 -7 5 -15.5t-7.5 -14.5q-41 -33 -98 -33q-29 0 -64.5 10t-67 23.5t-75 40t-74 46.5t-79 57t-75 58t-77.5 62q-74 58 -109 85q7 -304 52 -429q3 -9 -0.5 -16.5t-11.5 -10.5q-4 -2 -8 -2q-14 0 -19 14q-50 137 -55 476q-37 28 -66 46q-76 -33 -139 -46
q-66 -13 -82 16q-15 24 11 54t73 47.5t89 0.5q23 -8 51 -25q31 15 63 32q5 396 62 781q2 9 9 14t15.5 4t14 -8.5t3.5 -15.5q-55 -369 -62 -750q75 45 142 103q275 237 368 624q3 8 10 12.5t16 2.5t13.5 -9.5t2.5 -15.5q-97 -400 -383 -646q-80 -70 -170 -121v-78
q44 -32 136 -106q41 -32 62 -49t61 -48t64.5 -48t61.5 -42.5t62.5 -39t57.5 -30t56 -22t49.5 -8.5t45.5 3t37 20q7 6 15.5 5t14 -8zM11 61q46 9 100 30q-8 4 -15 7q-36 14 -84 -12q-23 -13 -34 -29q12 -1 33 4zM204 86q9 -7 20 -14v24q-11 -6 -20 -10z" />
    <glyph glyph-name="L" unicode="L" horiz-adv-x="587" 
d="M719 -104.5q6 -6.5 5.5 -15t-7.5 -14.5q-46 -40 -96 -78t-119 -83.5t-140 -73t-129 -27.5q-45 0 -80 19q-129 67 -97 365q14 128 60 411q39 246 49 338q13 131 -1 157q-1 0 -3 -2q-8 -4 -16.5 -2.5t-13 9t-3 16t9.5 13.5q27 17 48 3q18 -11 24.5 -42.5t1 -103.5
t-17.5 -155.5t-37 -237.5q-45 -282 -59 -409q-29 -269 75 -323q71 -37 208 26t308 212q7 6 15.5 5t14.5 -7.5z" />
    <glyph glyph-name="M" unicode="M" horiz-adv-x="1108" 
d="M1119.5 101q7.5 -4 10 -12.5t-2.5 -16.5q-53 -94 -95 -154.5t-71.5 -86t-48 -32.5t-35.5 -2q-44 12 -59.5 98.5t-9.5 282.5q3 117 -1.5 214t-14.5 158t-23 103.5t-25 60t-23 18.5q-5 0 -11 -4.5t-14.5 -14.5t-18.5 -30t-19 -47q-43 -120 -65 -338q-13 -127 -29 -369
q-6 -97 -8 -128q-3 -26 -4 -38q-4 -31 -24 -31h-1q-10 0 -15.5 7t-6.5 14t-2 21q-2 23 -4 73q-4 95 -9 325q-7 322 -22 425q-9 66 -21 114.5t-21 71.5t-19 36.5t-14 16t-7 2.5t-6.5 -1.5t-12 -9.5t-18 -21.5t-23.5 -42t-28 -67.5q-53 -145 -89 -368q-20 -122 -42 -361
q-17 -172 -28 -258q-5 -40 -10 -61t-12.5 -32t-19.5 -11h-2q-9 1 -14.5 6.5t-9.5 18t-6 29t-4 44.5q-5 78 -4 204q1 80 28 356q30 296 35 418q8 190 -16 213q-7 -2 -17 -13q-6 -7 -15 -7t-15.5 6t-6.5 14.5t6 15.5q35 37 65 23q11 -5 18.5 -16t15 -38t8.5 -72.5t0 -120.5
q-5 -124 -36 -427q-27 -275 -28 -353q-1 -92 2 -160q9 75 23 224q23 241 43 365q6 34 13.5 73t22 107.5t33 127.5t41 115t51 89t58.5 33q11 0 20 -3.5t20.5 -13t22 -29.5t21.5 -49t21 -75.5t19 -106.5q15 -106 22 -430q2 -59 2 -72q8 115 17 201q22 223 67 348
q45 128 106 124q38 -2 65.5 -55t41 -140.5t18 -188.5t1.5 -213q-2 -85 -1 -146t7 -103q10 -84 32 -90q3 -1 7.5 -0.5t13 5.5t19.5 14.5t27 29t35 46t45 68t55 92.5q5 8 13.5 10t16 -2z" />
    <glyph glyph-name="N" unicode="N" horiz-adv-x="887" 
d="M898 123.5q8 -3.5 10.5 -12t-0.5 -16.5q-45 -91 -83.5 -157t-65.5 -101t-51 -54t-39 -22.5t-30 0.5q-30 8 -49.5 49t-26 101t-9 132.5t1.5 141.5q9 324 -6 500q-4 46 -10 81.5t-11 52t-10 27t-7 12.5t-4 2q-1 0 -3.5 -1.5t-11 -10.5t-17.5 -24q-65 -105 -130 -303
t-110 -398t-77 -401q-4 -25 -15 -40t-27 -17h-4q-27 0 -41 34q-24 52 -10 245l1 10q6 85 24 293q28 320 33 450q8 196 -15 226q-7 -4 -17 -17q-6 -6 -14.5 -7t-15.5 4.5t-8 14t5 15.5q34 43 65 31q25 -11 36.5 -65.5t6.5 -192.5q-4 -132 -34 -463q-18 -206 -24 -292v-10
q-14 -182 5 -225q1 -3 2 -4q3 6 5 16q49 306 122 583q97 369 201 535q41 66 81 54q29 -8 46 -59t26 -154q15 -178 5 -503q-6 -182 10 -281q14 -94 41 -101q6 -1 14.5 1.5t27.5 20t41.5 48t59 93.5t77.5 149q4 8 12.5 10.5t16.5 -1z" />
    <glyph glyph-name="N" unicode="&#xd1;" horiz-adv-x="887" 
d="M898 123.5q8 -3.5 10.5 -12t-0.5 -16.5q-45 -91 -83.5 -157t-65.5 -101t-51 -54t-39 -22.5t-30 0.5q-30 8 -49.5 49t-26 101t-9 132.5t1.5 141.5q9 324 -6 500q-4 46 -10 81.5t-11 52t-10 27t-7 12.5t-4 2q-1 0 -3.5 -1.5t-11 -10.5t-17.5 -24q-65 -105 -130 -303
t-110 -398t-77 -401q-4 -25 -15 -40t-27 -17h-4q-27 0 -41 34q-24 52 -10 245l1 10q6 85 24 293q28 320 33 450q8 196 -15 226q-7 -4 -17 -17q-6 -6 -14.5 -7t-15.5 4.5t-8 14t5 15.5q34 43 65 31q25 -11 36.5 -65.5t6.5 -192.5q-4 -132 -34 -463q-18 -206 -24 -292v-10
q-14 -182 5 -225q1 -3 2 -4q3 6 5 16q49 306 122 583q97 369 201 535q41 66 81 54q29 -8 46 -59t26 -154q15 -178 5 -503q-6 -182 10 -281q14 -94 41 -101q6 -1 14.5 1.5t27.5 20t41.5 48t59 93.5t77.5 149q4 8 12.5 10.5t16.5 -1z" />
    <glyph glyph-name="O" unicode="O" horiz-adv-x="760" 
d="M543 863q93 -81 124 -243t-4 -376q-30 -179 -97.5 -299t-156.5 -153q-30 -11 -59 -11q-58 0 -107 41q-84 69 -113 231q-33 176 10 418q19 108 54 168.5t79 62.5q26 1 46 -17.5t30 -52.5q1 -4 0.5 -8t-2.5 -7.5t-5.5 -6.5t-7.5 -4q-8 -2 -16 2t-10 13q-3 9 -6.5 16
t-7.5 12t-8.5 8t-9.5 3h-1q-8 -1 -19 -10.5t-24.5 -30t-27 -61t-22.5 -94.5q-22 -124 -23.5 -230t14 -179.5t40.5 -123.5t57 -77q57 -47 124 -23q44 17 83 60.5t66.5 103t47 124t30.5 132.5q34 203 6 354.5t-112 225.5q-89 78 -210 41q-55 -18 -109.5 -64t-94.5 -104.5
t-66.5 -123.5t-30.5 -120q-9 -101 64 -156q7 -5 8 -14t-4.5 -16t-14 -8t-15.5 4q-91 70 -81 193q7 83 53 176.5t121.5 170.5t156.5 102q70 21 134.5 8.5t116.5 -57.5z" />
    <glyph glyph-name="O" unicode="&#xd8;" horiz-adv-x="760" 
d="M543 863q93 -81 124 -243t-4 -376q-30 -179 -97.5 -299t-156.5 -153q-30 -11 -59 -11q-58 0 -107 41q-84 69 -113 231q-33 176 10 418q19 108 54 168.5t79 62.5q26 1 46 -17.5t30 -52.5q1 -4 0.5 -8t-2.5 -7.5t-5.5 -6.5t-7.5 -4q-8 -2 -16 2t-10 13q-3 9 -6.5 16
t-7.5 12t-8.5 8t-9.5 3h-1q-8 -1 -19 -10.5t-24.5 -30t-27 -61t-22.5 -94.5q-22 -124 -23.5 -230t14 -179.5t40.5 -123.5t57 -77q57 -47 124 -23q44 17 83 60.5t66.5 103t47 124t30.5 132.5q34 203 6 354.5t-112 225.5q-89 78 -210 41q-55 -18 -109.5 -64t-94.5 -104.5
t-66.5 -123.5t-30.5 -120q-9 -101 64 -156q7 -5 8 -14t-4.5 -16t-14 -8t-15.5 4q-91 70 -81 193q7 83 53 176.5t121.5 170.5t156.5 102q70 21 134.5 8.5t116.5 -57.5z" />
    <glyph glyph-name="O" unicode="&#xd5;" horiz-adv-x="760" 
d="M543 863q93 -81 124 -243t-4 -376q-30 -179 -97.5 -299t-156.5 -153q-30 -11 -59 -11q-58 0 -107 41q-84 69 -113 231q-33 176 10 418q19 108 54 168.5t79 62.5q26 1 46 -17.5t30 -52.5q1 -4 0.5 -8t-2.5 -7.5t-5.5 -6.5t-7.5 -4q-8 -2 -16 2t-10 13q-3 9 -6.5 16
t-7.5 12t-8.5 8t-9.5 3h-1q-8 -1 -19 -10.5t-24.5 -30t-27 -61t-22.5 -94.5q-22 -124 -23.5 -230t14 -179.5t40.5 -123.5t57 -77q57 -47 124 -23q44 17 83 60.5t66.5 103t47 124t30.5 132.5q34 203 6 354.5t-112 225.5q-89 78 -210 41q-55 -18 -109.5 -64t-94.5 -104.5
t-66.5 -123.5t-30.5 -120q-9 -101 64 -156q7 -5 8 -14t-4.5 -16t-14 -8t-15.5 4q-91 70 -81 193q7 83 53 176.5t121.5 170.5t156.5 102q70 21 134.5 8.5t116.5 -57.5z" />
    <glyph glyph-name="O" unicode="&#xd4;" horiz-adv-x="760" 
d="M543 863q93 -81 124 -243t-4 -376q-30 -179 -97.5 -299t-156.5 -153q-30 -11 -59 -11q-58 0 -107 41q-84 69 -113 231q-33 176 10 418q19 108 54 168.5t79 62.5q26 1 46 -17.5t30 -52.5q1 -4 0.5 -8t-2.5 -7.5t-5.5 -6.5t-7.5 -4q-8 -2 -16 2t-10 13q-3 9 -6.5 16
t-7.5 12t-8.5 8t-9.5 3h-1q-8 -1 -19 -10.5t-24.5 -30t-27 -61t-22.5 -94.5q-22 -124 -23.5 -230t14 -179.5t40.5 -123.5t57 -77q57 -47 124 -23q44 17 83 60.5t66.5 103t47 124t30.5 132.5q34 203 6 354.5t-112 225.5q-89 78 -210 41q-55 -18 -109.5 -64t-94.5 -104.5
t-66.5 -123.5t-30.5 -120q-9 -101 64 -156q7 -5 8 -14t-4.5 -16t-14 -8t-15.5 4q-91 70 -81 193q7 83 53 176.5t121.5 170.5t156.5 102q70 21 134.5 8.5t116.5 -57.5z" />
    <glyph glyph-name="O" unicode="&#xd3;" horiz-adv-x="760" 
d="M543 863q93 -81 124 -243t-4 -376q-30 -179 -97.5 -299t-156.5 -153q-30 -11 -59 -11q-58 0 -107 41q-84 69 -113 231q-33 176 10 418q19 108 54 168.5t79 62.5q26 1 46 -17.5t30 -52.5q1 -4 0.5 -8t-2.5 -7.5t-5.5 -6.5t-7.5 -4q-8 -2 -16 2t-10 13q-3 9 -6.5 16
t-7.5 12t-8.5 8t-9.5 3h-1q-8 -1 -19 -10.5t-24.5 -30t-27 -61t-22.5 -94.5q-22 -124 -23.5 -230t14 -179.5t40.5 -123.5t57 -77q57 -47 124 -23q44 17 83 60.5t66.5 103t47 124t30.5 132.5q34 203 6 354.5t-112 225.5q-89 78 -210 41q-55 -18 -109.5 -64t-94.5 -104.5
t-66.5 -123.5t-30.5 -120q-9 -101 64 -156q7 -5 8 -14t-4.5 -16t-14 -8t-15.5 4q-91 70 -81 193q7 83 53 176.5t121.5 170.5t156.5 102q70 21 134.5 8.5t116.5 -57.5z" />
    <glyph glyph-name="O" unicode="&#xd2;" horiz-adv-x="760" 
d="M543 863q93 -81 124 -243t-4 -376q-30 -179 -97.5 -299t-156.5 -153q-30 -11 -59 -11q-58 0 -107 41q-84 69 -113 231q-33 176 10 418q19 108 54 168.5t79 62.5q26 1 46 -17.5t30 -52.5q1 -4 0.5 -8t-2.5 -7.5t-5.5 -6.5t-7.5 -4q-8 -2 -16 2t-10 13q-3 9 -6.5 16
t-7.5 12t-8.5 8t-9.5 3h-1q-8 -1 -19 -10.5t-24.5 -30t-27 -61t-22.5 -94.5q-22 -124 -23.5 -230t14 -179.5t40.5 -123.5t57 -77q57 -47 124 -23q44 17 83 60.5t66.5 103t47 124t30.5 132.5q34 203 6 354.5t-112 225.5q-89 78 -210 41q-55 -18 -109.5 -64t-94.5 -104.5
t-66.5 -123.5t-30.5 -120q-9 -101 64 -156q7 -5 8 -14t-4.5 -16t-14 -8t-15.5 4q-91 70 -81 193q7 83 53 176.5t121.5 170.5t156.5 102q70 21 134.5 8.5t116.5 -57.5z" />
    <glyph glyph-name="P" unicode="P" horiz-adv-x="660" 
d="M663 740q9 -92 -23 -200t-93 -196t-132 -124q-44 -23 -87 -23q-67 0 -127 53q-7 6 -7.5 14.5t5.5 15t14.5 7t15.5 -4.5q79 -70 167 -24q63 32 118.5 113.5t85 181t21.5 182.5q-12 115 -96 138q-139 38 -334 -119q-11 -9 -24 -19q-10 -163 -7 -553q3 -342 -7 -486.5
t-53 -172.5q-11 -7 -24 -7q-10 0 -21 5q-8 4 -11 12t0.5 16t12 11t16.5 0q3 -2 4 -1q29 18 38 198q6 115 3 425q-3 358 5 513q-79 -73 -174 -186q-5 -7 -14 -8t-15.5 5t-7.5 14.5t5 15.5q113 135 209 219q6 86 17 149q1 9 8 14t15.5 3.5t14 -8.5t3.5 -16q-7 -46 -12 -104
q208 163 364 120q54 -14 87 -59t40 -114z" />
    <glyph glyph-name="Q" unicode="Q" horiz-adv-x="849" 
d="M780 -284q6 -7 5 -16.5t-9 -15.5q-41 -33 -95 -33q-80 0 -216 82q-10 -6 -19 -9q-32 -12 -64 -12q-63 0 -116 45q-16 13 -30 29q-26 -11 -51 -30.5t-42 -38t-29 -35.5q-5 -8 -14.5 -10t-17 3t-9.5 14.5t3 17.5q18 28 54 61.5t78 55.5q-45 73 -65 183q-35 192 11 455
q15 80 35 155t44.5 137t53.5 99.5t57 37.5h1q10 0 16.5 -7t5.5 -17q0 -9 -6.5 -15.5t-16.5 -6.5q-4 -1 -12 -8.5t-22.5 -31.5t-29.5 -58q-49 -115 -80 -293q-29 -152 -26 -274.5t22.5 -203t55.5 -134.5q70 20 133 -9q21 -10 75 -43q4 -3 6 -4q58 37 105 119q73 123 105 318
q37 220 7 385t-121 244q-97 85 -229 45q-29 -9 -65 -28.5t-72 -45.5t-63.5 -59t-34.5 -64q-11 -49 36 -91q7 -7 7.5 -16.5t-6 -16.5t-16 -7.5t-16.5 6.5q-66 60 -49.5 135t112.5 148q78 59 153 83q76 23 146.5 9t126.5 -63q101 -88 134.5 -263.5t-4.5 -407.5
q-14 -81 -35 -152t-48 -128.5t-60 -102t-70 -73.5q35 -20 64 -33.5t62 -23t61.5 -5.5t51.5 22q7 6 16.5 4.5t15.5 -8.5zM295 -208q56 -46 121 -29q-34 20 -51 28q-37 18 -80 11z" />
    <glyph glyph-name="R" unicode="R" horiz-adv-x="714" 
d="M940 -190.5q8 -4.5 10 -13t-3 -16.5q-45 -78 -116 -82q-5 -1 -9 -1q-39 0 -84.5 23.5t-88 58t-95.5 91.5t-94 106.5t-97 120.5q-57 71 -104 113q3 -332 -7.5 -474t-52.5 -170q-11 -7 -24 -7q-10 0 -21 5q-8 4 -11 12t0.5 16t12 11t16.5 0q3 -2 4 -1q28 18 37 198
q6 115 4 424q0 6 -1 19q-3 4 -3 10q-1 8 3 14q-2 322 6 478q-23 -26 -41 -54q-81 -118 -102 -269t20 -317q1 -5 -0.5 -10.5t-5.5 -9.5t-9.5 -5.5t-11 0t-9.5 6t-5 9.5q-44 174 -21 334.5t109 285.5q35 52 80 95q6 78 15 137q1 6 4.5 10.5t8.5 6.5t11 1q9 -2 14 -9t4 -16
q-7 -40 -11 -90q111 87 234 102q116 15 165 -67q36 -63 29 -158t-45.5 -198.5t-96.5 -187.5q-100 -145 -198 -145q-10 0 -21 2q-5 1 -9 2q32 -34 66 -77q53 -67 92.5 -114.5t90.5 -103.5t91.5 -89.5t82.5 -56t75 -19.5q48 3 83 62q4 7 12.5 9.5t16.5 -2zM259 266
q34 -16 88 -26q25 -5 54 8.5t60 43t62 73.5q84 122 120 270q37 154 -8 228q-35 58 -124 47q-131 -16 -244 -119q-11 -166 -8 -525z" />
    <glyph glyph-name="S" unicode="S" horiz-adv-x="792" 
d="M788 96.5q5 -7.5 3 -16t-10 -12.5q-142 -89 -249 -172q47 -77 42 -148q-9 -127 -190 -251q-46 -31 -89 -31q-22 0 -40 9q-40 20 -42 70q-4 90 115 222q60 67 148 138q-24 32 -62 72.5t-67 67.5t-85 78q-24 21 -36 32q-163 149 -195 291q-34 150 75 302q67 92 154 135
t163 22q17 -5 32.5 -13.5t35 -26.5t34 -42t25.5 -63.5t14 -88.5q1 -9 -5 -15.5t-14.5 -7t-15 5.5t-7.5 15q-5 80 -33.5 130.5t-77.5 64.5q-62 18 -137.5 -21.5t-133.5 -119.5q-98 -136 -68 -268q29 -128 183 -269q12 -11 35 -32q57 -51 86.5 -78.5t68.5 -69t64 -75.5
q107 84 250 172q7 5 15.5 3t13.5 -9.5zM532 -249q4 56 -33 118q-83 -67 -140 -131q-44 -49 -69 -92t-30 -63t-5 -36q2 -26 19 -34q15 -8 38.5 -2.5t47.5 21.5q165 112 172 219z" />
    <glyph glyph-name="T" unicode="T" horiz-adv-x="504" 
d="M936 874q34 -37 -13 -90q-6 -7 -14.5 -7.5t-15 5.5t-7 14.5t5.5 15.5q21 24 13 33q-25 27 -157 24q-130 -4 -309 -38q-30 -6 -63 -13q-73 -431 -76 -774q-1 -119 8.5 -201.5t20.5 -113t22 -35.5q6 -3 23 17q5 7 14 8t15.5 -4.5t7.5 -14.5t-4 -16q-27 -33 -55 -33
q-10 0 -19 5q-78 35 -75 388q2 339 74 764q-105 -25 -197.5 -54.5t-164 -62t-114.5 -64.5q-5 -4 -12 -4q-11 0 -17 8q-6 7 -4.5 15.5t8.5 14.5q76 57 214 106.5t296 85.5q7 14 22 11q5 -1 9 -4q30 7 59 12q182 35 316 39q151 4 189 -37z" />
    <glyph glyph-name="U" unicode="U" horiz-adv-x="911" 
d="M925 128q8 -4 10.5 -12t-0.5 -16q-141 -292 -228 -292q-6 0 -12 1q-70 14 -82 201q-9 150 10 526q8 172 9 230l-1 -1q-59 -186 -140 -460q-27 -93 -39.5 -134.5t-32 -102t-31.5 -86.5t-29 -58t-33.5 -48t-36.5 -27q-40 -20 -77 -11t-67 47q-50 63 -75.5 194.5
t-17.5 289.5q8 174 54.5 319t123.5 234q5 7 14 7.5t15.5 -5t7.5 -14t-5 -15.5q-72 -85 -116 -223t-52 -305q-7 -148 16 -273.5t68 -181.5q41 -51 91 -25q46 24 79.5 109.5t102.5 320.5q80 275 140 461q16 49 27.5 66.5t28.5 14.5t22.5 -26t4.5 -85q-1 -55 -9 -214
q-19 -374 -10 -521q3 -42 8.5 -73.5t11 -47.5t12 -26t10 -12.5t6.5 -2.5q5 -1 12 1t24 16t37 40t52 80.5t68 129.5q4 8 12.5 11t16.5 -1z" />
    <glyph glyph-name="U" unicode="&#xdb;" horiz-adv-x="911" 
d="M925 128q8 -4 10.5 -12t-0.5 -16q-141 -292 -228 -292q-6 0 -12 1q-70 14 -82 201q-9 150 10 526q8 172 9 230l-1 -1q-59 -186 -140 -460q-27 -93 -39.5 -134.5t-32 -102t-31.5 -86.5t-29 -58t-33.5 -48t-36.5 -27q-40 -20 -77 -11t-67 47q-50 63 -75.5 194.5
t-17.5 289.5q8 174 54.5 319t123.5 234q5 7 14 7.5t15.5 -5t7.5 -14t-5 -15.5q-72 -85 -116 -223t-52 -305q-7 -148 16 -273.5t68 -181.5q41 -51 91 -25q46 24 79.5 109.5t102.5 320.5q80 275 140 461q16 49 27.5 66.5t28.5 14.5t22.5 -26t4.5 -85q-1 -55 -9 -214
q-19 -374 -10 -521q3 -42 8.5 -73.5t11 -47.5t12 -26t10 -12.5t6.5 -2.5q5 -1 12 1t24 16t37 40t52 80.5t68 129.5q4 8 12.5 11t16.5 -1z" />
    <glyph glyph-name="U" unicode="&#xda;" horiz-adv-x="911" 
d="M925 128q8 -4 10.5 -12t-0.5 -16q-141 -292 -228 -292q-6 0 -12 1q-70 14 -82 201q-9 150 10 526q8 172 9 230l-1 -1q-59 -186 -140 -460q-27 -93 -39.5 -134.5t-32 -102t-31.5 -86.5t-29 -58t-33.5 -48t-36.5 -27q-40 -20 -77 -11t-67 47q-50 63 -75.5 194.5
t-17.5 289.5q8 174 54.5 319t123.5 234q5 7 14 7.5t15.5 -5t7.5 -14t-5 -15.5q-72 -85 -116 -223t-52 -305q-7 -148 16 -273.5t68 -181.5q41 -51 91 -25q46 24 79.5 109.5t102.5 320.5q80 275 140 461q16 49 27.5 66.5t28.5 14.5t22.5 -26t4.5 -85q-1 -55 -9 -214
q-19 -374 -10 -521q3 -42 8.5 -73.5t11 -47.5t12 -26t10 -12.5t6.5 -2.5q5 -1 12 1t24 16t37 40t52 80.5t68 129.5q4 8 12.5 11t16.5 -1z" />
    <glyph glyph-name="U" unicode="&#xd9;" horiz-adv-x="911" 
d="M925 128q8 -4 10.5 -12t-0.5 -16q-141 -292 -228 -292q-6 0 -12 1q-70 14 -82 201q-9 150 10 526q8 172 9 230l-1 -1q-59 -186 -140 -460q-27 -93 -39.5 -134.5t-32 -102t-31.5 -86.5t-29 -58t-33.5 -48t-36.5 -27q-40 -20 -77 -11t-67 47q-50 63 -75.5 194.5
t-17.5 289.5q8 174 54.5 319t123.5 234q5 7 14 7.5t15.5 -5t7.5 -14t-5 -15.5q-72 -85 -116 -223t-52 -305q-7 -148 16 -273.5t68 -181.5q41 -51 91 -25q46 24 79.5 109.5t102.5 320.5q80 275 140 461q16 49 27.5 66.5t28.5 14.5t22.5 -26t4.5 -85q-1 -55 -9 -214
q-19 -374 -10 -521q3 -42 8.5 -73.5t11 -47.5t12 -26t10 -12.5t6.5 -2.5q5 -1 12 1t24 16t37 40t52 80.5t68 129.5q4 8 12.5 11t16.5 -1z" />
    <glyph glyph-name="V" unicode="V" horiz-adv-x="668" 
d="M620 895q6 -1 10 -4.5t6 -8.5t1 -11q-34 -218 -68.5 -395t-63.5 -297.5t-58.5 -211t-53 -142.5t-48 -83t-42.5 -41t-37 -10h-4q-94 6 -154 283q-49 228 -57 500q-4 134 6 217q6 54 18.5 80t33.5 29q4 0 7 -0.5t6 -2t5 -4t3.5 -5.5t2.5 -7q1 -8 -3.5 -14.5t-12.5 -8.5
q-9 -10 -16 -58t-8.5 -134.5t6.5 -208.5q6 -72 14.5 -146.5t21 -149.5t30.5 -142t38 -113q17 -37 34 -56t32 -17q7 1 15 6t21.5 21t28 41.5t34 72.5t39.5 109q93 293 189 895q1 8 8 13.5t16 3.5z" />
    <glyph glyph-name="W" unicode="W" horiz-adv-x="823" 
d="M660 829q98 -462 35 -819q-31 -178 -81 -272.5t-114 -94.5h-4q-66 4 -112.5 111t-56.5 282q-6 95 -4 199q-96 -384 -182 -408q-27 -7 -47.5 15t-31.5 73t-11.5 115t1.5 107.5t5 83.5q30 338 153 695q2 8 10 12t16.5 1t12 -11t1.5 -16q-121 -352 -151 -685
q-11 -153 -3 -238.5t28 -107.5q3 -3 5 -3q4 1 8 4t14.5 16.5t22 34t28 62t34 95.5t40 139t44.5 187q7 32 16 46.5t24 12.5q8 -2 14 -9t5 -20q-22 -210 -10 -398q10 -161 48 -255.5t81 -97.5h2q18 0 37 18t40 55.5t41 104.5t36 155q61 348 -35 802q-2 9 3 16t13.5 9t16 -2.5
t8.5 -13.5z" />
    <glyph glyph-name="X" unicode="X" horiz-adv-x="807" 
d="M969 948q9 0 15.5 -6t6.5 -14q1 -18 -15 -22q-10 -6 -32.5 -35.5t-63 -87.5t-69 -100.5t-83.5 -123.5q-100 -149 -178.5 -262.5t-147.5 -208.5q85 -220 179 -341t167 -135q53 -10 82 41q5 8 13.5 10.5t16 -2t10 -13t-2.5 -16.5q-36 -64 -102 -64q-12 0 -25 3
q-73 14 -153 102.5t-153 235.5q-32 64 -61 138q-133 -179 -227.5 -278.5t-150.5 -107.5h-10q-22 0 -38 13q-7 6 -7.5 14.5t5 15.5t14.5 7.5t16 -5.5q5 -4 14 -3q78 11 304 308q28 37 62 83q-119 319 -180 751q-2 9 3.5 16t14 8.5t15.5 -4t9 -14.5q58 -411 167 -716
q107 149 309 448q84 125 129 190.5t77 108t45.5 54t24.5 12.5z" />
    <glyph glyph-name="Y" unicode="Y" horiz-adv-x="797" 
d="M765 395q4 -9 1 -18t-12 -13q-72 -34 -135 -73q1 -307 -50 -505q-32 -119 -80.5 -189t-108.5 -82q-11 -2 -22 -2q-30 0 -57 15t-48.5 44t-34.5 68q-26 79 -12.5 176.5t64.5 190.5q95 174 302 309q-2 131 -13 278q-6 84 -18 111q-25 -24 -108 -221q-69 -163 -107 -237
q-23 -44 -45.5 -75t-41.5 -46.5t-37.5 -22t-32.5 -5.5t-28 7q-43 20 -67 95t-24.5 180.5t28 243.5t84.5 272q3 9 12 13t18 0t13 -13t0 -18q-106 -257 -108 -494q0 -100 18.5 -162t45.5 -74q23 -11 56 21.5t67 98.5q37 73 105 234q65 152 96 205t64 47q25 -4 38 -39.5
t19 -117.5q10 -133 12 -252q55 33 116 61q9 5 18 1.5t13 -12.5zM523 -202q47 180 49 462q-177 -123 -261 -276q-46 -84 -58.5 -171.5t10.5 -157.5q16 -49 45.5 -75t62.5 -19q45 9 85 72t67 165z" />
    <glyph glyph-name="Y" unicode="&#xdd;" horiz-adv-x="797" 
d="M765 395q4 -9 1 -18t-12 -13q-72 -34 -135 -73q1 -307 -50 -505q-32 -119 -80.5 -189t-108.5 -82q-11 -2 -22 -2q-30 0 -57 15t-48.5 44t-34.5 68q-26 79 -12.5 176.5t64.5 190.5q95 174 302 309q-2 131 -13 278q-6 84 -18 111q-25 -24 -108 -221q-69 -163 -107 -237
q-23 -44 -45.5 -75t-41.5 -46.5t-37.5 -22t-32.5 -5.5t-28 7q-43 20 -67 95t-24.5 180.5t28 243.5t84.5 272q3 9 12 13t18 0t13 -13t0 -18q-106 -257 -108 -494q0 -100 18.5 -162t45.5 -74q23 -11 56 21.5t67 98.5q37 73 105 234q65 152 96 205t64 47q25 -4 38 -39.5
t19 -117.5q10 -133 12 -252q55 33 116 61q9 5 18 1.5t13 -12.5zM523 -202q47 180 49 462q-177 -123 -261 -276q-46 -84 -58.5 -171.5t10.5 -157.5q16 -49 45.5 -75t62.5 -19q45 9 85 72t67 165z" />
    <glyph glyph-name="Z" unicode="Z" horiz-adv-x="708" 
d="M675.5 235q1.5 -10 -4.5 -18t-16 -10q-67 -10 -130 -29q10 -50 8 -103q-3 -73 -27.5 -147t-63.5 -136.5t-84 -113.5t-94 -92q-86 -71 -155 -71q-29 0 -54 15q-26 15 -41 44.5t-18 69.5t6 88q16 81 64 162.5t120 148.5q117 109 281 167q-30 93 -109 169q-65 63 -93 104.5
t-29 75.5q0 20 11 41t22.5 34.5t36.5 38.5q68 69 105 125q29 45 6 62q-20 15 -65.5 15t-97 -12.5t-104.5 -41t-86 -66.5q-6 -7 -16 -8t-17.5 5.5t-8 16.5t5.5 18q31 35 76.5 63.5t94.5 45t96.5 23.5t87.5 1.5t63 -22.5q7 -5 12.5 -11t11 -17.5t6 -24.5t-5 -32.5t-19.5 -40.5
q-39 -60 -111 -133q-31 -31 -43.5 -47.5t-12.5 -32.5q1 -42 108 -146q86 -83 121 -188q65 19 135 30q10 1 18 -4.5t9.5 -15.5zM485 77q2 44 -6 86q-152 -54 -260 -155q-67 -62 -111.5 -137t-58.5 -149q-11 -54 -2.5 -95t33.5 -56t65 -1t88 53q46 38 88 86t78.5 106t59.5 126
t26 136z" />
    <glyph glyph-name="bracketleft" unicode="[" horiz-adv-x="338" 
d="M286.5 -203q3.5 -8 0.5 -16t-11 -12q-41 -19 -104 -19q-28 0 -45 6q-9 4 -14 12t-12.5 53t-15.5 133q-12 155 -22 395q-9 219 -12 413t4 278q1 15 4 27.5t7.5 22t8.5 17t11.5 13t13 9.5t16 6.5t17 4t19.5 3t21 1.5t23 1q20 1 32 1q9 1 15.5 -5t7 -15t-5.5 -15.5t-15 -6.5
q-12 -1 -32 -1q-22 -1 -31 -1.5t-22.5 -2t-18.5 -4.5t-11.5 -7t-9 -11.5t-5 -17t-3.5 -23.5q-6 -56 -4 -242.5t11 -417.5q10 -248 22 -399.5t22 -182.5q20 -4 56 0.5t54 12.5q8 4 16.5 1t12 -11z" />
    <glyph glyph-name="backslash" unicode="\" horiz-adv-x="493" 
d="M440 -15q4 -7 2 -15.5t-10 -13.5q-5 -3 -11 -3q-11 0 -18 10q-81 133 -218 374q-198 347 -367 624q-4 7 -2 15.5t9.5 13t16 2.5t12.5 -9q169 -278 367 -625q138 -240 219 -373z" />
    <glyph glyph-name="bracketright" unicode="]" horiz-adv-x="367" 
d="M297 962q19 -201 20 -506t-7 -545q-2 -84 -42.5 -121.5t-137.5 -44.5h-1q-8 0 -14.5 5.5t-6.5 14.5q-1 9 5 15.5t14 6.5q58 5 88.5 20t41 38.5t11.5 65.5q8 240 6.5 543.5t-19.5 503.5q-12 128 -46 152q-31 23 -133 -1q-9 -2 -16.5 3t-9 13.5t3 16t12.5 9.5
q53 14 97 13.5t71 -19.5q29 -21 42.5 -64.5t20.5 -118.5z" />
    <glyph glyph-name="asciicircum" unicode="^" horiz-adv-x="407" 
d="M355 390q4 -8 1 -16.5t-11 -12t-16 -1t-12 10.5q-24 50 -55.5 108.5t-40.5 67.5q-4 4 -10 2q-17 -4 -42.5 -38.5t-45 -72.5t-32.5 -71q-5 -13 -20 -13q-9 0 -15 6t-6 15q0 7 17 42.5t26 53.5q52 95 96 115q33 16 60 -7q26 -22 106 -189z" />
    <glyph glyph-name="underscore" unicode="_" horiz-adv-x="629" 
d="M557 53q9 0 15 -6t6.5 -14.5t-5.5 -15t-15 -6.5h-117q-338 1 -368 -1h-2q-8 0 -14 5.5t-7 13.5q-1 9 5 15.5t15 7.5q32 2 371 1h116z" />
    <glyph glyph-name="grave" unicode="`" horiz-adv-x="230" 
d="M176 642q5 -8 4 -16.5t-8 -13.5q-6 -4 -13 -4q-11 0 -17 8l-88 120q-5 7 -3.5 16t8.5 14t15.5 3.5t13.5 -8.5z" />
    <glyph glyph-name="a" unicode="a" horiz-adv-x="398" 
d="M446 254q6 -7 5 -15.5t-8 -14.5q-31 -26 -109 -138q-36 -52 -52 -72t-29 -26q-8 -4 -16 -4q-13 0 -22 8q-25 20 -21 96q3 57 19 134q-2 -2 -4 -5q-33 -38 -94 -122q-36 -50 -50 -67q-37 -45 -69 -27q-28 16 -28.5 77t21.5 120q19 50 49.5 81t63.5 31q41 1 57 -41
q2 -6 1.5 -11t-4 -9.5t-9.5 -6.5q-8 -4 -16 -0.5t-11 12.5q-6 14 -17 14q-16 -1 -37.5 -22t-36.5 -62q-12 -34 -16.5 -66.5t-2.5 -51.5t6 -27q7 4 16 15q14 17 49 66q62 86 96 125q44 49 70 36q21 -11 12 -49q-13 -55 -18.5 -100t-5 -68t4.5 -34q12 12 59 80q81 116 117 147
q7 5 15.5 4.5t14.5 -7.5z" />
    <glyph glyph-name="a" unicode="&#xe5;" horiz-adv-x="398" 
d="M446 254q6 -7 5 -15.5t-8 -14.5q-31 -26 -109 -138q-36 -52 -52 -72t-29 -26q-8 -4 -16 -4q-13 0 -22 8q-25 20 -21 96q3 57 19 134q-2 -2 -4 -5q-33 -38 -94 -122q-36 -50 -50 -67q-37 -45 -69 -27q-28 16 -28.5 77t21.5 120q19 50 49.5 81t63.5 31q41 1 57 -41
q2 -6 1.5 -11t-4 -9.5t-9.5 -6.5q-8 -4 -16 -0.5t-11 12.5q-6 14 -17 14q-16 -1 -37.5 -22t-36.5 -62q-12 -34 -16.5 -66.5t-2.5 -51.5t6 -27q7 4 16 15q14 17 49 66q62 86 96 125q44 49 70 36q21 -11 12 -49q-13 -55 -18.5 -100t-5 -68t4.5 -34q12 12 59 80q81 116 117 147
q7 5 15.5 4.5t14.5 -7.5z" />
    <glyph glyph-name="a" unicode="&#xe3;" horiz-adv-x="398" 
d="M446 254q6 -7 5 -15.5t-8 -14.5q-31 -26 -109 -138q-36 -52 -52 -72t-29 -26q-8 -4 -16 -4q-13 0 -22 8q-25 20 -21 96q3 57 19 134q-2 -2 -4 -5q-33 -38 -94 -122q-36 -50 -50 -67q-37 -45 -69 -27q-28 16 -28.5 77t21.5 120q19 50 49.5 81t63.5 31q41 1 57 -41
q2 -6 1.5 -11t-4 -9.5t-9.5 -6.5q-8 -4 -16 -0.5t-11 12.5q-6 14 -17 14q-16 -1 -37.5 -22t-36.5 -62q-12 -34 -16.5 -66.5t-2.5 -51.5t6 -27q7 4 16 15q14 17 49 66q62 86 96 125q44 49 70 36q21 -11 12 -49q-13 -55 -18.5 -100t-5 -68t4.5 -34q12 12 59 80q81 116 117 147
q7 5 15.5 4.5t14.5 -7.5z" />
    <glyph glyph-name="a" unicode="&#xe2;" horiz-adv-x="398" 
d="M446 254q6 -7 5 -15.5t-8 -14.5q-31 -26 -109 -138q-36 -52 -52 -72t-29 -26q-8 -4 -16 -4q-13 0 -22 8q-25 20 -21 96q3 57 19 134q-2 -2 -4 -5q-33 -38 -94 -122q-36 -50 -50 -67q-37 -45 -69 -27q-28 16 -28.5 77t21.5 120q19 50 49.5 81t63.5 31q41 1 57 -41
q2 -6 1.5 -11t-4 -9.5t-9.5 -6.5q-8 -4 -16 -0.5t-11 12.5q-6 14 -17 14q-16 -1 -37.5 -22t-36.5 -62q-12 -34 -16.5 -66.5t-2.5 -51.5t6 -27q7 4 16 15q14 17 49 66q62 86 96 125q44 49 70 36q21 -11 12 -49q-13 -55 -18.5 -100t-5 -68t4.5 -34q12 12 59 80q81 116 117 147
q7 5 15.5 4.5t14.5 -7.5z" />
    <glyph glyph-name="a" unicode="&#xe1;" horiz-adv-x="398" 
d="M446 254q6 -7 5 -15.5t-8 -14.5q-31 -26 -109 -138q-36 -52 -52 -72t-29 -26q-8 -4 -16 -4q-13 0 -22 8q-25 20 -21 96q3 57 19 134q-2 -2 -4 -5q-33 -38 -94 -122q-36 -50 -50 -67q-37 -45 -69 -27q-28 16 -28.5 77t21.5 120q19 50 49.5 81t63.5 31q41 1 57 -41
q2 -6 1.5 -11t-4 -9.5t-9.5 -6.5q-8 -4 -16 -0.5t-11 12.5q-6 14 -17 14q-16 -1 -37.5 -22t-36.5 -62q-12 -34 -16.5 -66.5t-2.5 -51.5t6 -27q7 4 16 15q14 17 49 66q62 86 96 125q44 49 70 36q21 -11 12 -49q-13 -55 -18.5 -100t-5 -68t4.5 -34q12 12 59 80q81 116 117 147
q7 5 15.5 4.5t14.5 -7.5z" />
    <glyph glyph-name="a" unicode="&#xe0;" horiz-adv-x="398" 
d="M446 254q6 -7 5 -15.5t-8 -14.5q-31 -26 -109 -138q-36 -52 -52 -72t-29 -26q-8 -4 -16 -4q-13 0 -22 8q-25 20 -21 96q3 57 19 134q-2 -2 -4 -5q-33 -38 -94 -122q-36 -50 -50 -67q-37 -45 -69 -27q-28 16 -28.5 77t21.5 120q19 50 49.5 81t63.5 31q41 1 57 -41
q2 -6 1.5 -11t-4 -9.5t-9.5 -6.5q-8 -4 -16 -0.5t-11 12.5q-6 14 -17 14q-16 -1 -37.5 -22t-36.5 -62q-12 -34 -16.5 -66.5t-2.5 -51.5t6 -27q7 4 16 15q14 17 49 66q62 86 96 125q44 49 70 36q21 -11 12 -49q-13 -55 -18.5 -100t-5 -68t4.5 -34q12 12 59 80q81 116 117 147
q7 5 15.5 4.5t14.5 -7.5z" />
    <glyph glyph-name="b" unicode="b" horiz-adv-x="426" 
d="M473.5 254q5.5 -7 5 -15.5t-7.5 -14.5q-40 -34 -103 -101q-54 -57 -87 -86q-20 -63 -84 -102q-32 -19 -50 -19q-15 0 -22 11q-8 11 -3 24t21 29t46 37q28 20 55 43q10 43 -7 86q-11 30 -31 48.5t-37 15.5q-28 -6 -42 -61.5t-14 -126.5q1 -37 -17 -47q-13 -7 -26 2
q-28 19 -45.5 132.5t-2.5 259.5q12 128 42 242t69 192.5t82.5 129t85.5 65.5q44 16 72 -13q55 -54 -7 -223q-17 -47 -43.5 -99t-57 -99t-63.5 -79.5t-59 -36.5q-27 -3 -44 19q-5 7 -3.5 15.5t8.5 13.5t15.5 4t13.5 -8q2 -2 4 -2q29 4 89 90.5t100 196.5q18 49 25 88.5
t4 60.5t-12 29q-9 10 -28 3q-17 -6 -38.5 -25t-47 -51t-50.5 -82t-47.5 -111t-40.5 -145.5t-27 -178.5q-16 -164 9 -288q12 160 89 174q33 6 65 -19t50 -71q11 -28 12 -58q17 16 48 49q65 69 107 104q7 6 15.5 5.5t14 -7.5z" />
    <glyph glyph-name="c" unicode="c" horiz-adv-x="301" 
d="M340 260.5q8 -2.5 12 -10.5t1 -16q-36 -109 -99.5 -170t-128.5 -73q-16 -3 -30 -3q-59 0 -93 41q-55 67 -5 192q18 44 50.5 70t67.5 13q26 -10 36.5 -37t-1.5 -71q-3 -9 -11 -12.5t-16.5 -1t-12 10.5t-0.5 16q7 23 4 37t-13 18q-14 5 -32.5 -10.5t-31.5 -48.5
q-41 -101 -2 -149q27 -34 82 -23q47 8 88 44t67 79t41 91q3 8 11 12t16 1.5z" />
    <glyph glyph-name="c" unicode="&#xe7;" horiz-adv-x="301" 
d="M340 260.5q8 -2.5 12 -10.5t1 -16q-36 -109 -99.5 -170t-128.5 -73q-16 -3 -30 -3q-59 0 -93 41q-55 67 -5 192q18 44 50.5 70t67.5 13q26 -10 36.5 -37t-1.5 -71q-3 -9 -11 -12.5t-16.5 -1t-12 10.5t-0.5 16q7 23 4 37t-13 18q-14 5 -32.5 -10.5t-31.5 -48.5
q-41 -101 -2 -149q27 -34 82 -23q47 8 88 44t67 79t41 91q3 8 11 12t16 1.5z" />
    <glyph glyph-name="d" unicode="d" horiz-adv-x="396" 
d="M413 475q-13 -71 -51 -164.5t-90 -178.5l-14 -22q0 -142 8 -271q5 -86 14 -149.5t16 -90t13 -35.5q15 0 20 -14q3 -8 -0.5 -16t-11.5 -11q-5 -2 -11 -2q-11 0 -20 6q-44 33 -62 305q-7 104 -8 219q-100 -128 -173 -89q-50 28 -55 120q-4 86 34 165q22 46 54.5 75.5
t62.5 22.5q44 -9 46 -83q0 -9 -6 -15.5t-15 -6.5q-5 0 -10 2.5t-8 7.5t-3 10q-1 41 -12 44q-6 1 -17 -6.5t-26.5 -25.5t-27.5 -43q-32 -71 -29.5 -142t33.5 -88q21 -11 60.5 18t91.5 106q0 111 6 207q12 200 50.5 341t87.5 163q22 10 41 -4q20 -15 28 -56t5.5 -96.5
t-8 -103.5t-13.5 -99zM264 328q-4 -63 -5 -134q90 161 112 288q16 97 20 170t-1 104t-13 39q-6 -3 -13.5 -13t-20.5 -37.5t-25 -67.5q-42 -139 -54 -349z" />
    <glyph glyph-name="e" unicode="e" horiz-adv-x="302" 
d="M352 250.5q4 -7.5 1.5 -16t-10.5 -12.5q-17 -10 -34 -22.5t-36 -30.5t-31 -30t-32 -34q-21 -22 -32 -33t-29 -28t-30.5 -24.5t-28.5 -14t-30 -6.5h-5q-45 3 -66 47q-12 24 -14 60t3 67t13 55q1 1 1 2q0 4 3 8q4 9 7 14q22 31 42.5 49.5t36.5 22.5t26 3.5t18 -5.5
q17 -8 23.5 -26.5t-0.5 -38.5q-11 -34 -45 -46.5t-76 -8.5q-9 -33 -10.5 -69t10.5 -69q10 -21 31 -22q15 -1 37 14t38 30.5t46 47.5q29 31 45.5 47.5t45 40t53.5 37.5q8 4 16.5 1.5t12.5 -10zM106 285q-3 1 -9.5 -0.5t-20 -12t-28.5 -29.5h2q49 0 58 27q4 12 -2 15z" />
    <glyph glyph-name="e" unicode="&#xeb;" horiz-adv-x="302" 
d="M352 250.5q4 -7.5 1.5 -16t-10.5 -12.5q-17 -10 -34 -22.5t-36 -30.5t-31 -30t-32 -34q-21 -22 -32 -33t-29 -28t-30.5 -24.5t-28.5 -14t-30 -6.5h-5q-45 3 -66 47q-12 24 -14 60t3 67t13 55q1 1 1 2q0 4 3 8q4 9 7 14q22 31 42.5 49.5t36.5 22.5t26 3.5t18 -5.5
q17 -8 23.5 -26.5t-0.5 -38.5q-11 -34 -45 -46.5t-76 -8.5q-9 -33 -10.5 -69t10.5 -69q10 -21 31 -22q15 -1 37 14t38 30.5t46 47.5q29 31 45.5 47.5t45 40t53.5 37.5q8 4 16.5 1.5t12.5 -10zM106 285q-3 1 -9.5 -0.5t-20 -12t-28.5 -29.5h2q49 0 58 27q4 12 -2 15z" />
    <glyph glyph-name="e" unicode="&#xea;" horiz-adv-x="302" 
d="M352 250.5q4 -7.5 1.5 -16t-10.5 -12.5q-17 -10 -34 -22.5t-36 -30.5t-31 -30t-32 -34q-21 -22 -32 -33t-29 -28t-30.5 -24.5t-28.5 -14t-30 -6.5h-5q-45 3 -66 47q-12 24 -14 60t3 67t13 55q1 1 1 2q0 4 3 8q4 9 7 14q22 31 42.5 49.5t36.5 22.5t26 3.5t18 -5.5
q17 -8 23.5 -26.5t-0.5 -38.5q-11 -34 -45 -46.5t-76 -8.5q-9 -33 -10.5 -69t10.5 -69q10 -21 31 -22q15 -1 37 14t38 30.5t46 47.5q29 31 45.5 47.5t45 40t53.5 37.5q8 4 16.5 1.5t12.5 -10zM106 285q-3 1 -9.5 -0.5t-20 -12t-28.5 -29.5h2q49 0 58 27q4 12 -2 15z" />
    <glyph glyph-name="e" unicode="&#xe9;" horiz-adv-x="302" 
d="M352 250.5q4 -7.5 1.5 -16t-10.5 -12.5q-17 -10 -34 -22.5t-36 -30.5t-31 -30t-32 -34q-21 -22 -32 -33t-29 -28t-30.5 -24.5t-28.5 -14t-30 -6.5h-5q-45 3 -66 47q-12 24 -14 60t3 67t13 55q1 1 1 2q0 4 3 8q4 9 7 14q22 31 42.5 49.5t36.5 22.5t26 3.5t18 -5.5
q17 -8 23.5 -26.5t-0.5 -38.5q-11 -34 -45 -46.5t-76 -8.5q-9 -33 -10.5 -69t10.5 -69q10 -21 31 -22q15 -1 37 14t38 30.5t46 47.5q29 31 45.5 47.5t45 40t53.5 37.5q8 4 16.5 1.5t12.5 -10zM106 285q-3 1 -9.5 -0.5t-20 -12t-28.5 -29.5h2q49 0 58 27q4 12 -2 15z" />
    <glyph glyph-name="e" unicode="&#xe8;" horiz-adv-x="302" 
d="M352 250.5q4 -7.5 1.5 -16t-10.5 -12.5q-17 -10 -34 -22.5t-36 -30.5t-31 -30t-32 -34q-21 -22 -32 -33t-29 -28t-30.5 -24.5t-28.5 -14t-30 -6.5h-5q-45 3 -66 47q-12 24 -14 60t3 67t13 55q1 1 1 2q0 4 3 8q4 9 7 14q22 31 42.5 49.5t36.5 22.5t26 3.5t18 -5.5
q17 -8 23.5 -26.5t-0.5 -38.5q-11 -34 -45 -46.5t-76 -8.5q-9 -33 -10.5 -69t10.5 -69q10 -21 31 -22q15 -1 37 14t38 30.5t46 47.5q29 31 45.5 47.5t45 40t53.5 37.5q8 4 16.5 1.5t12.5 -10zM106 285q-3 1 -9.5 -0.5t-20 -12t-28.5 -29.5h2q49 0 58 27q4 12 -2 15z" />
    <glyph glyph-name="f" unicode="f" horiz-adv-x="314" 
d="M368.5 254.5q5.5 -6.5 5 -15.5t-6.5 -14q-143 -127 -230 -171l10 -14q79 -128 72 -339q-2 -85 -20 -158.5t-44 -107.5q-20 -27 -45 -27q-7 0 -13 2q-8 2 -14.5 6t-20 24t-24 52.5t-21.5 98t-18 153.5q-10 126 -3 264q-55 -7 -67 21q-8 17 3 35t36 31q16 8 35 12
q26 285 99 484q13 36 27.5 60t28 33.5t23 12t19.5 1.5q18 -4 28.5 -21.5t10.5 -44.5q0 -9 -6.5 -15t-14.5 -6h-1q-8 0 -14.5 6.5t-5.5 15.5q0 17 -5 23q-4 -1 -10.5 -6.5t-18 -25t-21.5 -47.5q-71 -192 -97 -468q34 -3 61 -24q86 42 233 171q6 6 15 5.5t14.5 -7zM-2 51
q1 5 1 11q-14 -5 -24 -13q9 -1 23 2zM42 67q0 -3 -1 -6l12 4q-6 1 -11 2zM122 -539q22 29 37 96.5t18 147.5t-13.5 167t-52.5 146q-7 10 -14 18l-14 -6q-24 -8 -45 -14q-7 -141 3 -269q8 -103 22 -173.5t25.5 -95.5t20.5 -28q4 -1 13 11z" />
    <glyph glyph-name="g" unicode="g" horiz-adv-x="442" 
d="M491 253q5 -7 3.5 -16t-8.5 -14q-123 -88 -224 -188q15 -289 -54 -536q-50 -178 -113 -277t-128 -101h-2q-30 0 -54.5 22t-37.5 63q-16 45 -17 107.5t19.5 154t64.5 187.5q95 209 279 396q-2 34 -5 65q-6 51 -15 68q-13 -12 -49 -77q-15 -29 -23 -41q-18 -32 -37.5 -50
t-35.5 -22t-27 -3.5t-20 5.5q-37 17 -47.5 74t12.5 120q17 50 59 87.5t79 35.5q41 -2 53 -46q2 -9 -2 -16.5t-12.5 -10t-16 2t-10.5 13.5q-4 14 -14 15h-1q-22 0 -52 -29t-44 -66q-17 -55 -11 -94t25 -48q12 -6 30 8.5t36 44.5q7 12 22 40q16 29 24.5 43t21 31.5t24.5 23.5
t25 3q19 -3 30.5 -28.5t17.5 -78.5q1 -15 3 -31q92 88 202 168q7 5 16 3.5t14 -8.5zM167 -489q62 220 55 482q-159 -170 -244 -356q-41 -90 -60.5 -176.5t-19 -144t14.5 -97.5q19 -56 53 -55q11 0 23 6t26 19t28.5 32t30.5 47t31 63t31.5 81t30.5 99z" />
    <glyph glyph-name="h" unicode="h" horiz-adv-x="463" 
d="M509.5 259q6.5 -6 6.5 -15t-6 -15q-34 -36 -85 -95q-60 -67 -84.5 -87.5t-47.5 -14.5q-22 5 -34 34t-30 104q-8 36 -22 35q-20 -1 -49.5 -37t-55 -95t-32.5 -115q-3 -27 -18 -33q-4 -2 -9 -2q-8 0 -14 6q-14 11 -25 72q-11 58 -17 136q-16 205 10 370q21 128 53.5 231.5
t69 168t73 102.5t70.5 51q49 18 85 -13q34 -29 42 -97t-11 -162q-29 -139 -93 -236q-61 -93 -126 -109q-50 -13 -82 26q-5 7 -4.5 15.5t7.5 14t15.5 5t14.5 -7.5q15 -18 39 -12q49 12 101 91q59 91 86 221q17 98 11 149t-28 70q-17 15 -42 5q-66 -24 -134.5 -161
t-104.5 -358q-13 -80 -15 -175t3 -167t15 -130q24 83 71 149.5t91 69.5q20 1 38.5 -13.5t27.5 -55.5q23 -96 33 -106q14 4 90 89q52 59 86 96q6 6 15 6.5t15.5 -5.5z" />
    <glyph glyph-name="i" unicode="i" horiz-adv-x="269" 
d="M310 257.5q6 -6.5 5.5 -15t-6.5 -14.5q-29 -26 -80 -103q-62 -91 -101 -123q-26 -21 -52 -21q-16 0 -31 8q-39 25 -48 105.5t16 190.5q2 9 9.5 13.5t16 2.5t13.5 -9t3 -16q-16 -69 -17 -125.5t7.5 -86.5t22.5 -39q12 -7 33 10q35 28 92 114q54 80 87 110q7 6 15.5 5.5
t14.5 -7zM60 395q-10 0 -17.5 7.5t-7.5 18.5q0 7 3.5 13t9 9.5t12.5 3.5q11 0 19 -7.5t8 -18.5t-8 -18.5t-19 -7.5z" />
    <glyph glyph-name="i" unicode="&#xef;" horiz-adv-x="269" 
d="M310 257.5q6 -6.5 5.5 -15t-6.5 -14.5q-29 -26 -80 -103q-62 -91 -101 -123q-26 -21 -52 -21q-16 0 -31 8q-39 25 -48 105.5t16 190.5q2 9 9.5 13.5t16 2.5t13.5 -9t3 -16q-16 -69 -17 -125.5t7.5 -86.5t22.5 -39q12 -7 33 10q35 28 92 114q54 80 87 110q7 6 15.5 5.5
t14.5 -7zM60 395q-10 0 -17.5 7.5t-7.5 18.5q0 7 3.5 13t9 9.5t12.5 3.5q11 0 19 -7.5t8 -18.5t-8 -18.5t-19 -7.5z" />
    <glyph glyph-name="i" unicode="&#xee;" horiz-adv-x="269" 
d="M310 257.5q6 -6.5 5.5 -15t-6.5 -14.5q-29 -26 -80 -103q-62 -91 -101 -123q-26 -21 -52 -21q-16 0 -31 8q-39 25 -48 105.5t16 190.5q2 9 9.5 13.5t16 2.5t13.5 -9t3 -16q-16 -69 -17 -125.5t7.5 -86.5t22.5 -39q12 -7 33 10q35 28 92 114q54 80 87 110q7 6 15.5 5.5
t14.5 -7zM60 395q-10 0 -17.5 7.5t-7.5 18.5q0 7 3.5 13t9 9.5t12.5 3.5q11 0 19 -7.5t8 -18.5t-8 -18.5t-19 -7.5z" />
    <glyph glyph-name="i" unicode="&#xed;" horiz-adv-x="269" 
d="M310 257.5q6 -6.5 5.5 -15t-6.5 -14.5q-29 -26 -80 -103q-62 -91 -101 -123q-26 -21 -52 -21q-16 0 -31 8q-39 25 -48 105.5t16 190.5q2 9 9.5 13.5t16 2.5t13.5 -9t3 -16q-16 -69 -17 -125.5t7.5 -86.5t22.5 -39q12 -7 33 10q35 28 92 114q54 80 87 110q7 6 15.5 5.5
t14.5 -7zM60 395q-10 0 -17.5 7.5t-7.5 18.5q0 7 3.5 13t9 9.5t12.5 3.5q11 0 19 -7.5t8 -18.5t-8 -18.5t-19 -7.5z" />
    <glyph glyph-name="i" unicode="&#xec;" horiz-adv-x="269" 
d="M310 257.5q6 -6.5 5.5 -15t-6.5 -14.5q-29 -26 -80 -103q-62 -91 -101 -123q-26 -21 -52 -21q-16 0 -31 8q-39 25 -48 105.5t16 190.5q2 9 9.5 13.5t16 2.5t13.5 -9t3 -16q-16 -69 -17 -125.5t7.5 -86.5t22.5 -39q12 -7 33 10q35 28 92 114q54 80 87 110q7 6 15.5 5.5
t14.5 -7zM60 395q-10 0 -17.5 7.5t-7.5 18.5q0 7 3.5 13t9 9.5t12.5 3.5q11 0 19 -7.5t8 -18.5t-8 -18.5t-19 -7.5z" />
    <glyph glyph-name="j" unicode="j" horiz-adv-x="321" 
d="M366.5 259q6.5 -6 7 -15t-5.5 -15q-131 -139 -233 -273q23 -146 20.5 -302.5t-33.5 -257.5q-34 -113 -93 -183t-124 -74q-4 -1 -8 -1q-65 0 -96 66q-8 16 -13 36t-6.5 53.5t4 72.5t22 95t43.5 118q79 178 239 388q-32 196 -90 297q-4 8 -2 16.5t10 13t16 2t13 -10.5
q55 -96 88 -272q95 120 212 245q6 6 14.5 6.5t15 -5.5zM82 -592q27 89 31 227.5t-15 272.5q-138 -187 -208 -346q-33 -74 -49.5 -136t-16.5 -102t3.5 -63t11.5 -39q21 -44 63 -41q46 3 96.5 62t83.5 165zM-30.5 395q-10.5 0 -18 7.5t-7.5 18.5q0 6 3.5 12t9.5 9.5t12 3.5
q11 0 18.5 -7.5t7.5 -17.5q0 -11 -7.5 -18.5t-18 -7.5z" />
    <glyph glyph-name="k" unicode="k" horiz-adv-x="388" 
d="M439.5 259.5q6.5 -5.5 7.5 -14t-4 -15.5q-57 -70 -114 -197q-14 -31 -21.5 -45.5t-19.5 -33.5t-24.5 -28.5t-27.5 -12.5q-47 -10 -123 59q-12 10 -30 22q-6 -91 2 -167q2 -24 -8 -32q-6 -4 -12 -4q-5 0 -10 3q-5 2 -7 4.5t-5.5 16.5t-6 36t-7.5 70q-13 133 -17 256
q-1 30 -2 58q-3 8 0 17q0 257 69 500q44 153 98.5 234.5t104.5 69.5q44 -11 54 -85t-15 -196q-35 -170 -143 -362q-76 -137 -125 -179q0 -27 1 -55q1 -29 3 -58q9 47 21 71q38 78 86 71q18 -3 30.5 -18.5t16.5 -38.5q6 -44 -19.5 -93t-82.5 -85q19 -14 32 -25q60 -54 86 -48
q10 2 21.5 17t19 30.5t22.5 48.5q19 41 31 65t36.5 65t52.5 76q5 7 14 7.5t15.5 -5zM120 740q-63 -218 -67 -443q61 79 130 215.5t97 271.5q15 75 16 130t-6.5 76.5t-17.5 24.5h-3q-6 0 -15 -6t-20.5 -18.5t-25.5 -34.5t-28 -51t-30 -71.5t-30 -93.5zM116 174
q-15 -32 -26 -108q47 31 65 68.5t14 64.5q-3 21 -12 22q-4 0 -9 -3t-14 -14.5t-18 -29.5z" />
    <glyph glyph-name="l" unicode="l" horiz-adv-x="363" 
d="M370.5 176q7.5 -4 10 -12.5t-1.5 -16.5q-135 -246 -232 -246q-14 0 -28 6q-93 36 -102 295q-9 234 47 463q39 163 102 241t121 66q48 -10 72 -79t2 -199q-12 -77 -38 -142t-56.5 -105.5t-57.5 -65.5t-50 -36q-29 -13 -47 -3q-7 5 -9 13.5t2 15.5q9 16 26 9q7 1 20 9.5
t31 24.5t38 42.5t39 60t35.5 82t25.5 102.5q15 106 2 164.5t-44 64.5q-16 4 -37.5 -11t-45.5 -46t-48.5 -88t-41.5 -130q-55 -224 -46 -452q3 -95 22 -169.5t53 -87.5q6 -2 12 -2t17 3.5t23 11.5t29 24.5t35.5 40t42 60.5t49.5 84q4 7 12.5 9.5t16 -1.5z" />
    <glyph glyph-name="m" unicode="m" horiz-adv-x="539" 
d="M585.5 258.5q6.5 -6.5 6.5 -15t-7 -14.5q-18 -19 -74 -94q-70 -94 -102 -126t-57 -23q-26 9 -26 56q1 8 6 46q21 143 10 170q-2 -2 -5 -4q-25 -19 -82 -152v-1q-29 -68 -42 -88.5t-33 -15.5q-18 4 -22.5 31.5t0.5 105.5q3 58 -4 79q-19 -13 -49 -71.5t-46 -118.5
q-5 -19 -7.5 -27.5t-7 -19t-10 -14t-12.5 -3.5h-5q-16 3 -19.5 20.5t-1.5 68.5q1 67 11 226q1 9 7.5 14.5t15.5 5t14.5 -7t5.5 -15.5q-7 -110 -10 -173q16 42 34 76.5t42.5 60.5t46.5 23q26 -5 33 -38.5t4 -87.5q-2 -33 -2 -57q6 14 18 43q20 46 31 71t30 56t34 43
q29 22 52 9q23 -14 24.5 -67.5t-13.5 -147.5q-5 -35 -5 -41v-11q25 19 108 131q58 77 78 97q7 7 15.5 7t15 -6.5z" />
    <glyph glyph-name="n" unicode="n" horiz-adv-x="419" 
d="M465.5 258.5q6.5 -6.5 6.5 -15t-6 -14.5q-32 -32 -88 -110q-55 -77 -83 -103q-28 -25 -51 -15q-15 6 -22.5 27t-9.5 41.5t-3 64.5q-4 98 -15 109q-5 -1 -11 -5t-18.5 -17.5t-26.5 -34.5t-33.5 -60t-40.5 -91v-1q-12 -29 -16 -38q-12 -25 -28 -25q-2 0 -5 1q-15 3 -18 18
t-1 53q1 35 9 167l5 64q0 9 6.5 14.5t15.5 5t14.5 -7t5.5 -15.5l-4 -64q-6 -87 -8 -119q19 43 36.5 76.5t32.5 54t26.5 34t22 20t15.5 8.5t11 3q20 5 35 -6q18 -14 23.5 -45.5t8.5 -97.5q3 -76 9 -92q3 2 6 5q25 22 77 95q59 81 93 115q6 7 14.5 7t15 -6.5z" />
    <glyph glyph-name="n" unicode="&#xf1;" horiz-adv-x="419" 
d="M465.5 258.5q6.5 -6.5 6.5 -15t-6 -14.5q-32 -32 -88 -110q-55 -77 -83 -103q-28 -25 -51 -15q-15 6 -22.5 27t-9.5 41.5t-3 64.5q-4 98 -15 109q-5 -1 -11 -5t-18.5 -17.5t-26.5 -34.5t-33.5 -60t-40.5 -91v-1q-12 -29 -16 -38q-12 -25 -28 -25q-2 0 -5 1q-15 3 -18 18
t-1 53q1 35 9 167l5 64q0 9 6.5 14.5t15.5 5t14.5 -7t5.5 -15.5l-4 -64q-6 -87 -8 -119q19 43 36.5 76.5t32.5 54t26.5 34t22 20t15.5 8.5t11 3q20 5 35 -6q18 -14 23.5 -45.5t8.5 -97.5q3 -76 9 -92q3 2 6 5q25 22 77 95q59 81 93 115q6 7 14.5 7t15 -6.5z" />
    <glyph glyph-name="o" unicode="o" horiz-adv-x="313" 
d="M359.5 261.5q7.5 -4.5 9.5 -13t-2 -15.5q-46 -79 -147 -95q-21 -4 -44 -4q-1 -35 -14 -70.5t-30 -53.5q-27 -28 -61 -28q-16 0 -31 7q-33 16 -48.5 60t-8.5 106q10 88 53 117q23 16 50 9q8 -2 12.5 -10t2 -16.5t-10 -12.5t-15.5 -2t-15 -3q-12 -8 -22 -32.5t-13 -54.5
q-5 -52 5 -83t28 -40q22 -10 43 12q12 13 22.5 42t10.5 56q-18 3 -27 8q-40 23 -39 54q1 21 20 31q25 12 56 -12q20 -14 28 -42q16 0 31.5 2t34 7t34.5 13.5t32 23t26 32.5q5 8 13.5 10t16 -2.5z" />
    <glyph glyph-name="o" unicode="&#xf8;" horiz-adv-x="313" 
d="M359.5 261.5q7.5 -4.5 9.5 -13t-2 -15.5q-46 -79 -147 -95q-21 -4 -44 -4q-1 -35 -14 -70.5t-30 -53.5q-27 -28 -61 -28q-16 0 -31 7q-33 16 -48.5 60t-8.5 106q10 88 53 117q23 16 50 9q8 -2 12.5 -10t2 -16.5t-10 -12.5t-15.5 -2t-15 -3q-12 -8 -22 -32.5t-13 -54.5
q-5 -52 5 -83t28 -40q22 -10 43 12q12 13 22.5 42t10.5 56q-18 3 -27 8q-40 23 -39 54q1 21 20 31q25 12 56 -12q20 -14 28 -42q16 0 31.5 2t34 7t34.5 13.5t32 23t26 32.5q5 8 13.5 10t16 -2.5z" />
    <glyph glyph-name="o" unicode="&#xf5;" horiz-adv-x="313" 
d="M359.5 261.5q7.5 -4.5 9.5 -13t-2 -15.5q-46 -79 -147 -95q-21 -4 -44 -4q-1 -35 -14 -70.5t-30 -53.5q-27 -28 -61 -28q-16 0 -31 7q-33 16 -48.5 60t-8.5 106q10 88 53 117q23 16 50 9q8 -2 12.5 -10t2 -16.5t-10 -12.5t-15.5 -2t-15 -3q-12 -8 -22 -32.5t-13 -54.5
q-5 -52 5 -83t28 -40q22 -10 43 12q12 13 22.5 42t10.5 56q-18 3 -27 8q-40 23 -39 54q1 21 20 31q25 12 56 -12q20 -14 28 -42q16 0 31.5 2t34 7t34.5 13.5t32 23t26 32.5q5 8 13.5 10t16 -2.5z" />
    <glyph glyph-name="o" unicode="&#xf4;" horiz-adv-x="313" 
d="M359.5 261.5q7.5 -4.5 9.5 -13t-2 -15.5q-46 -79 -147 -95q-21 -4 -44 -4q-1 -35 -14 -70.5t-30 -53.5q-27 -28 -61 -28q-16 0 -31 7q-33 16 -48.5 60t-8.5 106q10 88 53 117q23 16 50 9q8 -2 12.5 -10t2 -16.5t-10 -12.5t-15.5 -2t-15 -3q-12 -8 -22 -32.5t-13 -54.5
q-5 -52 5 -83t28 -40q22 -10 43 12q12 13 22.5 42t10.5 56q-18 3 -27 8q-40 23 -39 54q1 21 20 31q25 12 56 -12q20 -14 28 -42q16 0 31.5 2t34 7t34.5 13.5t32 23t26 32.5q5 8 13.5 10t16 -2.5z" />
    <glyph glyph-name="o" unicode="&#xf3;" horiz-adv-x="313" 
d="M359.5 261.5q7.5 -4.5 9.5 -13t-2 -15.5q-46 -79 -147 -95q-21 -4 -44 -4q-1 -35 -14 -70.5t-30 -53.5q-27 -28 -61 -28q-16 0 -31 7q-33 16 -48.5 60t-8.5 106q10 88 53 117q23 16 50 9q8 -2 12.5 -10t2 -16.5t-10 -12.5t-15.5 -2t-15 -3q-12 -8 -22 -32.5t-13 -54.5
q-5 -52 5 -83t28 -40q22 -10 43 12q12 13 22.5 42t10.5 56q-18 3 -27 8q-40 23 -39 54q1 21 20 31q25 12 56 -12q20 -14 28 -42q16 0 31.5 2t34 7t34.5 13.5t32 23t26 32.5q5 8 13.5 10t16 -2.5z" />
    <glyph glyph-name="o" unicode="&#xf2;" horiz-adv-x="313" 
d="M359.5 261.5q7.5 -4.5 9.5 -13t-2 -15.5q-46 -79 -147 -95q-21 -4 -44 -4q-1 -35 -14 -70.5t-30 -53.5q-27 -28 -61 -28q-16 0 -31 7q-33 16 -48.5 60t-8.5 106q10 88 53 117q23 16 50 9q8 -2 12.5 -10t2 -16.5t-10 -12.5t-15.5 -2t-15 -3q-12 -8 -22 -32.5t-13 -54.5
q-5 -52 5 -83t28 -40q22 -10 43 12q12 13 22.5 42t10.5 56q-18 3 -27 8q-40 23 -39 54q1 21 20 31q25 12 56 -12q20 -14 28 -42q16 0 31.5 2t34 7t34.5 13.5t32 23t26 32.5q5 8 13.5 10t16 -2.5z" />
    <glyph glyph-name="p" unicode="p" horiz-adv-x="531" 
d="M577 248.5q2 -8.5 -2.5 -16t-13.5 -9.5q-121 -30 -212 -64q-16 -92 -91 -149q-32 -26 -70 -33t-63 8q-30 17 -25 50q11 77 210 155q2 24 -4 46q-12 44 -40 48q-22 4 -51 -21t-58 -72q-60 -97 -115 -248q1 -77 5 -201q2 -89 2 -110q0 -150 -20 -242.5t-57 -110.5
q-9 -4 -18 -4q-14 0 -26 9q-35 28 -42 121t18 208q37 175 96 337q-5 302 20 351q4 8 12 10.5t16 -1.5t10.5 -12t-1.5 -16q-15 -31 -16 -227q41 95 80 158q76 124 151 113q27 -4 46.5 -25t28.5 -54q5 -20 6 -42q87 31 198 59q9 2 16.5 -2.5t9.5 -13zM-46 -682q3 2 7.5 8
t13.5 28.5t15.5 53.5t11.5 90t5 134q0 20 -2 109q-2 45 -3 83q-34 -113 -57 -220q-17 -81 -17.5 -149.5t8 -100t18.5 -36.5zM233 43q49 39 68 97q-79 -33 -117.5 -62.5t-41.5 -48.5q-1 -5 4 -8q8 -7 35 -2t52 24z" />
    <glyph glyph-name="q" unicode="q" horiz-adv-x="479" 
d="M236 -681q-19 -27 -44 -27q-4 0 -9 1q-54 11 -89 177q-32 154 -8 346q-51 -18 -67 8q-9 15 0.5 33.5t32.5 32.5t49 16q20 104 57 207q-35 -51 -73 -88q-49 -49 -90 -19q-32 23 -34.5 80t25.5 115q26 52 63.5 82t73.5 28q40 -3 54 -42q3 -8 -1 -16t-12.5 -11t-16.5 1
t-10 12q-5 13 -17 14q-20 1 -47.5 -22.5t-48.5 -64.5q-22 -49 -21 -89.5t17 -51.5q12 -9 36 14q29 30 55.5 65.5t69.5 105.5q11 18 19 28.5t22.5 20.5t26.5 3q21 -11 4 -49q-77 -161 -110 -328l10 -4q50 30 95 69t87.5 88.5t67.5 81t65 86.5q16 22 25 34q5 7 13.5 8.5t16 -4
t8.5 -14t-4 -15.5q-7 -10 -25 -34q-40 -54 -64.5 -85.5t-66.5 -81t-87 -89t-94 -71.5q12 -13 23 -29q37 -60 54.5 -141t16 -155t-14 -135.5t-33.5 -90.5zM152 -152q-10 -7 -20 -12q-29 -198 4 -357q4 -22 9 -41t9.5 -33t8.5 -25t7.5 -18t7 -12.5t6 -8.5t4.5 -4.5t3 -2
l1 -0.5q7 1 18 25q15 32 23 87.5t7.5 120t-16.5 133t-47 118.5q-11 18 -25 30z" />
    <glyph glyph-name="r" unicode="r" horiz-adv-x="281" 
d="M330 255.5q5 -7.5 3.5 -16t-8.5 -13.5q-13 -9 -73 -113q-33 -57 -52.5 -88.5t-41 -58t-38.5 -34.5q-11 -6 -21 -6q-11 0 -20 7q-13 10 -15 33.5t2 49.5t14 76q15 72 13 83q-5 30 -62 35q-40 3 -61 33q-16 24 -16.5 59t6.5 51q10 29 28 40.5t37 7.5q25 -5 40 -29.5
t12 -54.5q-3 -37 -26 -67q74 -12 84 -67q4 -20 -13 -99q-19 -89 -17 -112q27 19 110 163l37.5 63t25.5 38.5t23 24.5q7 5 15.5 3.5t13.5 -9zM35 320q1 16 -5 27t-13 13h-1q-9 0 -15 -20q-6 -16 -5 -38t9 -35q1 -1 2 -3q5 4 9.5 9.5t8 13t6.5 16t4 17.5z" />
    <glyph glyph-name="s" unicode="s" horiz-adv-x="394" 
d="M442 257q6 -7 5 -15.5t-8 -14.5l-16 -14q-60 -50 -91.5 -77.5t-77.5 -73t-82 -90.5q49 -128 26 -221q-10 -41 -33.5 -66.5t-55.5 -30.5q-7 -2 -14 -2q-44 0 -69 38q-5 6 -8 14t-6.5 21t-3 29t4.5 35t14.5 43t26.5 50q33 52 69 98q-10 24 -32 73q-20 43 -30 66.5t-21 58.5
t-15 63q-3 10 -1.5 27.5t5.5 34.5t17.5 34t34.5 27q29 13 62.5 7.5t50.5 -25.5q6 -7 5.5 -15.5t-7 -14.5t-15.5 -5.5t-14 7.5q-8 9 -26.5 12t-38.5 -5q-38 -17 -31 -78q3 -26 14 -58.5t20.5 -54.5t28.5 -64q16 -35 24 -53q22 26 46.5 51.5t44.5 45t50 46t48 41.5t52 45
l17 14q7 5 15.5 4.5t14.5 -7.5zM157 -239q18 72 -16 172q-26 -35 -51 -74q-26 -40 -34 -74.5t-4.5 -48t9.5 -23.5q15 -22 41 -18q19 4 33.5 21t21.5 45z" />
    <glyph glyph-name="t" unicode="t" horiz-adv-x="185" 
d="M810 794q21 -18 11 -44q-1 -4 -4 -7t-7 -5t-8 -2t-8 1q-8 3 -11.5 10.5t-1.5 15.5q-28 19 -167 12q-145 -7 -356 -41q-80 -13 -158 -29q-27 -138 -38 -306q-16 -237 -2 -473q10 -182 30 -238q7 0 12 -4q8 -5 9.5 -13.5t-3.5 -15.5q-10 -15 -25 -15q-4 0 -8 2
q-6 2 -9.5 4.5t-11 18t-13 41t-12 76.5t-10.5 122q-16 246 1 498q10 157 35 294q-328 -67 -436 -127q-4 -3 -10 -3q-12 0 -18 11q-5 8 -2.5 16.5t10.5 12.5q116 65 465 135q44 205 102 241q23 15 47 5q8 -3 11.5 -11.5t0 -16.5t-11.5 -11.5t-16 0.5q-4 1 -9 -2
q-41 -26 -79 -196q67 13 132 24q73 12 146 21.5t167 18.5t163.5 4.5t92.5 -24.5z" />
    <glyph glyph-name="u" unicode="u" horiz-adv-x="455" 
d="M496.5 257q5.5 -7 4.5 -15.5t-8 -14.5q-32 -26 -112 -129q-25 -33 -37.5 -48t-25 -28t-20.5 -16q-20 -9 -37 1q-19 13 -24.5 47.5t-5.5 108.5q0 41 -4 64q-12 -18 -41 -77q-56 -110 -87 -147q-21 -24 -46 -24q-15 0 -28 9q-25 18 -37 65t-3 113t44 126q4 7 12.5 9.5
t16 -2t10 -13t-1.5 -15.5q-31 -53 -39 -109.5t0 -92.5t23 -46q6 -5 16 8q28 33 82 138q19 37 27.5 53t21 34t22 22.5t21.5 2.5q18 -5 25.5 -30.5t7.5 -87.5q1 -99 10 -117q12 9 65 78q82 106 118 136q7 5 16 4.5t14.5 -7.5z" />
    <glyph glyph-name="u" unicode="&#xfb;" horiz-adv-x="455" 
d="M496.5 257q5.5 -7 4.5 -15.5t-8 -14.5q-32 -26 -112 -129q-25 -33 -37.5 -48t-25 -28t-20.5 -16q-20 -9 -37 1q-19 13 -24.5 47.5t-5.5 108.5q0 41 -4 64q-12 -18 -41 -77q-56 -110 -87 -147q-21 -24 -46 -24q-15 0 -28 9q-25 18 -37 65t-3 113t44 126q4 7 12.5 9.5
t16 -2t10 -13t-1.5 -15.5q-31 -53 -39 -109.5t0 -92.5t23 -46q6 -5 16 8q28 33 82 138q19 37 27.5 53t21 34t22 22.5t21.5 2.5q18 -5 25.5 -30.5t7.5 -87.5q1 -99 10 -117q12 9 65 78q82 106 118 136q7 5 16 4.5t14.5 -7.5z" />
    <glyph glyph-name="u" unicode="&#xfa;" horiz-adv-x="455" 
d="M496.5 257q5.5 -7 4.5 -15.5t-8 -14.5q-32 -26 -112 -129q-25 -33 -37.5 -48t-25 -28t-20.5 -16q-20 -9 -37 1q-19 13 -24.5 47.5t-5.5 108.5q0 41 -4 64q-12 -18 -41 -77q-56 -110 -87 -147q-21 -24 -46 -24q-15 0 -28 9q-25 18 -37 65t-3 113t44 126q4 7 12.5 9.5
t16 -2t10 -13t-1.5 -15.5q-31 -53 -39 -109.5t0 -92.5t23 -46q6 -5 16 8q28 33 82 138q19 37 27.5 53t21 34t22 22.5t21.5 2.5q18 -5 25.5 -30.5t7.5 -87.5q1 -99 10 -117q12 9 65 78q82 106 118 136q7 5 16 4.5t14.5 -7.5z" />
    <glyph glyph-name="u" unicode="&#xf9;" horiz-adv-x="455" 
d="M496.5 257q5.5 -7 4.5 -15.5t-8 -14.5q-32 -26 -112 -129q-25 -33 -37.5 -48t-25 -28t-20.5 -16q-20 -9 -37 1q-19 13 -24.5 47.5t-5.5 108.5q0 41 -4 64q-12 -18 -41 -77q-56 -110 -87 -147q-21 -24 -46 -24q-15 0 -28 9q-25 18 -37 65t-3 113t44 126q4 7 12.5 9.5
t16 -2t10 -13t-1.5 -15.5q-31 -53 -39 -109.5t0 -92.5t23 -46q6 -5 16 8q28 33 82 138q19 37 27.5 53t21 34t22 22.5t21.5 2.5q18 -5 25.5 -30.5t7.5 -87.5q1 -99 10 -117q12 9 65 78q82 106 118 136q7 5 16 4.5t14.5 -7.5z" />
    <glyph glyph-name="v" unicode="v" horiz-adv-x="495" 
d="M533 260.5q7 -5.5 8 -14.5t-4 -16q-45 -58 -110.5 -64t-143.5 41q-14 -64 -29.5 -115.5t-30.5 -84.5t-29.5 -56t-28.5 -34.5t-25 -16.5t-22 -5q-3 0 -5 1q-26 2 -45 27.5t-30 61.5t-18 85t-9 89.5t-2 84.5q0 5 2.5 10t7.5 8t11 3q9 0 15 -6t6 -15q0 -70 5.5 -126
t13 -88.5t17 -54t17 -29.5t13.5 -8h1q9 0 20 10t24.5 33.5t27.5 58t29.5 88t28.5 117.5q2 12 12.5 16t19.5 -2q147 -101 223 -3q6 7 14.5 8.5t15.5 -4z" />
    <glyph glyph-name="w" unicode="w" horiz-adv-x="492" 
d="M537 260.5q7 -5.5 8 -14.5t-5 -16q-41 -53 -99.5 -62.5t-127.5 25.5q15 -54 14 -106q-1 -79 -32 -120q-21 -28 -50 -28q-5 0 -10 1q-58 10 -100 135q-8 24 -13 35q-7 -8 -29 -38q-11 -17 -18 -26q-42 -57 -80 -34q-33 20 -27 90t46 151q4 8 12.5 11t16.5 -1t10.5 -12.5
t-1.5 -16.5q-24 -49 -34.5 -92.5t-9 -65.5t8.5 -28q9 3 23 23q7 9 19 25q19 26 27.5 37t20 18.5t22.5 5.5q16 -2 25.5 -18t21.5 -51q9 -27 18.5 -47.5t17 -31t14.5 -17.5t10.5 -8.5t5.5 -2.5q10 -1 19 12q20 25 23 71t-6 90t-25 78q-7 15 5.5 25.5t25.5 1.5q146 -101 223 -3
q5 7 14 8.5t16 -4z" />
    <glyph glyph-name="x" unicode="x" horiz-adv-x="320" 
d="M322.5 361q3.5 -8 0.5 -16t-11 -12q-51 -24 -105 -86.5t-122 -160.5q12 -34 28.5 -60.5t32 -40.5t30.5 -19q19 -7 26 7q4 8 12.5 10.5t16 -2t10.5 -13t-2 -15.5q-17 -32 -51 -32q-13 0 -26 5q-29 10 -57 40.5t-49 77.5q-70 -101 -107.5 -143.5t-71.5 -46.5h-6
q-20 0 -35 14q-6 6 -6.5 15t5.5 15.5t15 6.5t15 -6q4 -3 8 -3q11 2 28 16.5t41 46t40 53.5t45 64q1 2 12 17q-41 138 -7 320q1 8 8.5 13t16 3.5t13.5 -8.5t3 -16q-27 -150 -3 -266q63 89 117 148t107 84q8 4 16.5 1t12 -11z" />
    <glyph glyph-name="y" unicode="y" horiz-adv-x="518" 
d="M559.5 256q5.5 -7 4 -16t-8.5 -14q-123 -88 -224 -188q15 -288 -54 -535q-50 -179 -113 -278t-128 -101h-2q-30 0 -54.5 22.5t-37.5 62.5q-16 45 -17 107.5t19.5 154t64.5 187.5q95 209 279 396q-2 34 -6 65q-7 65 -18 81q-1 -1 -2 -1q-23 -16 -69 -78q-54 -74 -89 -97
q-46 -32 -82 0q-34 31 -33.5 100t34.5 133q4 8 12.5 10.5t16 -2t10 -12.5t-1.5 -16q-19 -37 -25.5 -76.5t-1.5 -66.5t17 -38q12 -10 31 3q28 19 78 87t80 88q22 15 42 6q12 -6 20 -19.5t13.5 -37t9.5 -59.5q2 -15 3 -31q93 88 203 168q7 5 15.5 3.5t14 -8.5zM236 -486
q62 220 55 482q-159 -170 -244 -355q-41 -91 -60.5 -177.5t-19 -144t14.5 -97.5q19 -56 53 -55q42 1 97.5 86.5t103.5 260.5z" />
    <glyph glyph-name="y" unicode="&#xff;" horiz-adv-x="518" 
d="M559.5 256q5.5 -7 4 -16t-8.5 -14q-123 -88 -224 -188q15 -288 -54 -535q-50 -179 -113 -278t-128 -101h-2q-30 0 -54.5 22.5t-37.5 62.5q-16 45 -17 107.5t19.5 154t64.5 187.5q95 209 279 396q-2 34 -6 65q-7 65 -18 81q-1 -1 -2 -1q-23 -16 -69 -78q-54 -74 -89 -97
q-46 -32 -82 0q-34 31 -33.5 100t34.5 133q4 8 12.5 10.5t16 -2t10 -12.5t-1.5 -16q-19 -37 -25.5 -76.5t-1.5 -66.5t17 -38q12 -10 31 3q28 19 78 87t80 88q22 15 42 6q12 -6 20 -19.5t13.5 -37t9.5 -59.5q2 -15 3 -31q93 88 203 168q7 5 15.5 3.5t14 -8.5zM236 -486
q62 220 55 482q-159 -170 -244 -355q-41 -91 -60.5 -177.5t-19 -144t14.5 -97.5q19 -56 53 -55q42 1 97.5 86.5t103.5 260.5z" />
    <glyph glyph-name="y" unicode="&#xfd;" horiz-adv-x="518" 
d="M559.5 256q5.5 -7 4 -16t-8.5 -14q-123 -88 -224 -188q15 -288 -54 -535q-50 -179 -113 -278t-128 -101h-2q-30 0 -54.5 22.5t-37.5 62.5q-16 45 -17 107.5t19.5 154t64.5 187.5q95 209 279 396q-2 34 -6 65q-7 65 -18 81q-1 -1 -2 -1q-23 -16 -69 -78q-54 -74 -89 -97
q-46 -32 -82 0q-34 31 -33.5 100t34.5 133q4 8 12.5 10.5t16 -2t10 -12.5t-1.5 -16q-19 -37 -25.5 -76.5t-1.5 -66.5t17 -38q12 -10 31 3q28 19 78 87t80 88q22 15 42 6q12 -6 20 -19.5t13.5 -37t9.5 -59.5q2 -15 3 -31q93 88 203 168q7 5 15.5 3.5t14 -8.5zM236 -486
q62 220 55 482q-159 -170 -244 -355q-41 -91 -60.5 -177.5t-19 -144t14.5 -97.5q19 -56 53 -55q42 1 97.5 86.5t103.5 260.5z" />
    <glyph glyph-name="z" unicode="z" horiz-adv-x="507" 
d="M559.5 259.5q6.5 -5.5 7 -14.5t-5.5 -15q-152 -175 -269 -322q105 -106 67 -259q-17 -70 -63.5 -142.5t-102.5 -125.5t-114 -89t-100 -41q-7 -1 -13 -1q-42 0 -59 32q-64 120 328 621q-9 7 -18 13q-93 65 -97 119q-2 21 9 42t23 33.5t37 36.5q23 21 35 33.5t29 35.5
t27 45q15 35 -4 47q-32 21 -110.5 -3t-124.5 -77q-6 -6 -14.5 -6.5t-15 5t-7.5 14t5 15.5q54 63 147 91t143 -3q7 -4 13 -11t12 -18.5t5 -30t-10 -40.5q-11 -26 -30.5 -52t-33 -39.5t-37.5 -36.5q-21 -19 -30.5 -29t-18 -23.5t-7.5 -24.5q2 -35 79 -88q11 -7 20 -15
q119 151 269 321q5 7 14 7.5t15.5 -5zM318 -341q32 127 -52 216q-144 -185 -227 -321q-32 -52 -53.5 -95.5t-31 -69.5t-12.5 -46t-1.5 -28t3.5 -13q7 -12 30 -9q35 4 87.5 37t102.5 83q39 38 70.5 80t52.5 84t31 82z" />
    <glyph glyph-name="braceleft" unicode="{" horiz-adv-x="355" 
d="M302 -253.5q4 -7.5 2 -16t-10 -13.5q-47 -26 -86 -26q-23 0 -42 9q-51 23 -65 97q-12 60 -18 228q-2 55 -3 82q-3 58 -21 149q-6 28 -7.5 39t-0.5 21.5t6 16.5q46 51 78 134t39 173.5t-20 171.5q-46 134 -53.5 212.5t22.5 118.5q41 53 161 44q9 0 14.5 -7t5 -15.5
t-7 -14.5t-15.5 -5q-97 7 -124 -28q-44 -57 37 -291q22 -62 23.5 -136.5t-14.5 -144t-45 -131.5t-66 -105q1 -8 8 -45q19 -94 22 -155q1 -27 3 -82q6 -165 17 -222q11 -52 42 -67q33 -15 89 16q8 5 16.5 2.5t12.5 -10z" />
    <glyph glyph-name="verticalbar" unicode="|" horiz-adv-x="151" 
d="M101 1108q-9 -317 -6 -713q2 -279 -3 -433q0 -5 -3 -10t-7.5 -7.5t-10.5 -2.5h-1q-8 0 -14 6.5t-6 15.5q5 153 3 431q-3 397 6 714q0 9 6.5 15t15 6t15 -6.5t5.5 -15.5z" />
    <glyph glyph-name="braceright" unicode="}" horiz-adv-x="471" 
d="M321 512q17 -44 20 -69q4 -33 5 -92t-5.5 -142t-20 -162.5t-43 -156t-69.5 -120.5q-56 -61 -130 -61h-8q-8 1 -14 7.5t-6 15t6.5 14.5t15.5 6q59 -3 105 47q35 38 61 106t39.5 142t20.5 151.5t6.5 139t-5.5 100.5q-3 20 -17 59q-17 44 -17 65q0 15 28 113q57 198 74 298
q29 167 -11 194q-30 21 -121 -48q-7 -5 -16 -4t-14 8t-4 16t8 14q116 87 171 49q21 -14 31 -42t9.5 -70.5t-6 -87t-19.5 -106t-27.5 -112.5t-33.5 -120q-26 -93 -26 -102q0 -13 13 -50z" />
    <glyph glyph-name="nonbreakingspace" unicode="&#xa0;" horiz-adv-x="314" 
 />
    <glyph glyph-name="exclamdown" unicode="&#xa1;" horiz-adv-x="166" 
d="M105 311q-2 -111 0 -290q4 -280 -7 -491q0 -4 -2 -7.5t-4.5 -6.5t-6.5 -4.5t-8 -1.5h-1q-9 1 -15 7.5t-5 15.5q11 209 7 488q-2 179 0 290q0 9 6 15t15 6t15 -6.5t6 -14.5zM90 468q17 -1 23 -13.5t0.5 -25.5t-18.5 -17q-26 -10 -40 13q-13 21 4 35q10 9 31 8z" />
    <glyph glyph-name="sterling" unicode="&#xa3;" horiz-adv-x="615" 
d="M558.5 81q6.5 -6 7 -15t-5.5 -15q-64 -68 -180 -68q-10 0 -21 1q-54 3 -106 21.5t-86 47.5q-15 12 -29 19q-9 -8 -19 -12q-24 -10 -47 6q-17 12 -15 30t21 25q19 8 45 2q26 47 43 147q5 35 10 81q-14 -3 -28 -3q-42 0 -86 21q-8 3 -11 11.5t1 16.5t12 11t16 -1
q52 -24 100 -13q3 34 7 100q12 175 27 231q9 36 29 57t45 22q15 1 27.5 -5t22 -18.5t15.5 -29.5q3 -9 -0.5 -17t-12 -10.5t-16.5 1t-11 12.5q-9 26 -23 25q-9 0 -19 -12.5t-16 -34.5q-14 -53 -25 -224q-4 -52 -6 -81q7 3 19 9q22 10 34.5 15t33 10.5t40.5 3.5t41 -11
q8 -3 11.5 -11t0.5 -16t-11 -11.5t-17 -0.5q-15 6 -29 7.5t-29.5 -3t-26 -8.5t-30.5 -13q-26 -13 -41 -19q-6 -57 -13 -99q-16 -103 -44 -156q15 -9 31 -22q38 -32 100 -49t129 -7t106 51q6 6 14.5 6.5t15 -5.5z" />
    <glyph glyph-name="copyright" unicode="&#xa9;" horiz-adv-x="701" 
d="M606 562q47 -92 45.5 -195.5t-50.5 -179.5q-86 -132 -278 -132q-15 0 -30 1q-125 7 -191 103q-58 84 -51 207q3 70 28.5 135.5t67.5 116.5t104 80.5t133 25.5q45 -2 86.5 -22t76 -55.5t59.5 -84.5zM565 211q44 66 44.5 157.5t-41.5 174.5q-32 63 -81 99.5t-105 39.5h-1
h-13q-77 0 -140 -46.5t-97 -118.5t-38 -153q-2 -37 3 -72t19.5 -69.5t37.5 -61t60 -43.5t83 -20q190 -10 269 113zM450 354q7 -5 9 -13.5t-3 -15.5q-49 -74 -116 -74q-16 0 -30 5q-24 7 -40.5 24.5t-25.5 43t-8 56.5q1 36 11 65.5t24.5 47t25 26t19.5 14.5q44 23 77 1
q31 -19 29 -63q-1 -9 -7 -15t-15 -5.5t-15 7t-5 15.5q0 19 -9 26q-13 8 -35 -4q-23 -12 -39.5 -42t-18.5 -75q0 -20 5 -37t15.5 -28.5t24.5 -16.5q16 -5 33 -0.5t34 18t31 34.5q5 8 13.5 9.5t15.5 -3.5z" />
    <glyph glyph-name="softhyphen" unicode="&#xad;" 
 />
    <glyph glyph-name="plusminus" unicode="&#xb1;" horiz-adv-x="471" 
d="M400 450q9 0 15 -6.5t6 -15t-6 -15t-15 -6.5q-40 0 -124 -4q-8 -37 -19 -95q-8 -44 -10 -52t-6 -11q-6 -6 -15 -6t-15 7q-8 8 -5 19q0 4 10 51q10 54 16 85q-31 -2 -80 -5q-34 -1 -45 -2h-1q-8 0 -14 6t-7 14q0 9 5.5 15.5t14.5 6.5q13 1 45 3q58 3 90 5q21 105 23 112
q3 9 11 12.5t16.5 0.5t12 -10.5t1.5 -15.5q-3 -9 -20 -97q78 4 116 4zM373 136q9 0 15.5 -6t7 -14.5t-5.5 -15t-15 -7.5h-73q-210 1 -229 -1h-2q-8 0 -14 5.5t-7 13.5t4.5 15t14.5 8q21 2 233 2h71z" />
    <glyph glyph-name="questiondown" unicode="&#xbf;" horiz-adv-x="388" 
d="M320 -335q8 -2 13.5 -9t3.5 -16q-6 -39 -33.5 -71.5t-67.5 -47.5q-25 -10 -50 -10q-44 0 -77 29q-89 75 -45 295q18 90 70 217q23 56 33 85t17 76.5t2 95.5q-1 8 4.5 15t14 8t15.5 -4.5t8 -14.5q6 -52 -2 -104.5t-18.5 -83.5t-34.5 -89q-51 -124 -68 -209
q-9 -49 -11.5 -90t0.5 -67.5t10.5 -47.5t15 -31.5t16.5 -18.5q35 -30 85 -12q29 11 49.5 35t25.5 52q0 6 4 10t9 6.5t11 1.5zM209 412q-26 -10 -40 13q-13 21 3 35q11 9 31 8q18 -1 24 -13.5t0 -25.5t-18 -17z" />
    <glyph glyph-name="Adieresis" unicode="&#xc4;" horiz-adv-x="986" 
d="M989.5 190.5q8.5 -2.5 13 -10t1.5 -16.5q-39 -142 -102 -230.5t-125 -88.5h-5q-80 6 -98 151q-2 18 -2.5 44.5t2 66t5 73t7.5 88.5t8.5 87.5t9.5 95.5q22 214 26 288q-8 -29 -28 -102q-98 -357 -165 -529q-29 -74 -61.5 -126.5t-64.5 -79t-59 -38t-54 -13.5
q-57 -2 -108 38t-88 115q-37 77 -51 175t-1 199q30 244 196 438q83 97 173.5 134.5t151.5 17.5q54 -17 58 -65q0 -4 -1.5 -8t-4 -7t-6 -5t-8.5 -3q-8 0 -15 5.5t-7 14.5q-2 20 -29 28q-13 4 -30.5 4.5t-39.5 -3.5t-47 -15t-51.5 -27t-55.5 -41t-56 -57q-157 -184 -186 -416
q-12 -95 0.5 -187t47.5 -163q31 -64 72 -97.5t84 -31.5q56 2 108 61.5t94 167.5q66 170 163 525q46 167 57 183q15 23 34 16q12 -5 17 -16.5t4.5 -55t-6.5 -116.5t-21 -212q-39 -377 -30 -446q7 -53 22 -82.5t37 -31.5q26 -2 59.5 31.5t69 101.5t59.5 156q3 8 10.5 12.5
t16 2zM427 1112q-18 1 -21.5 14t5.5 27t23 19q29 10 39 -13q10 -22 -10 -38q-15 -10 -36 -9zM568 1112q-28 2 -22 27q7 25 29 33q29 10 39 -13q10 -22 -10 -38q-14 -10 -36 -9z" />
    <glyph glyph-name="Odieresis" unicode="&#xd6;" horiz-adv-x="760" 
d="M543 873q92 -81 123.5 -242.5t-4.5 -375.5q-30 -180 -97.5 -300t-156.5 -153q-29 -11 -59 -11q-58 0 -107 41q-83 70 -113 231q-32 176 11 419q19 108 54 168t79 63q25 1 45.5 -18t29.5 -52q1 -6 0 -11.5t-5 -9.5t-10 -6q-4 -1 -8 -0.5t-7.5 2.5t-6.5 5.5t-4 7.5
q-5 19 -13.5 29.5t-18.5 9.5q-9 0 -20 -10t-24 -30.5t-26.5 -61t-22.5 -94.5q-22 -124 -24 -229.5t14 -179.5t40.5 -123.5t57.5 -76.5q56 -48 123 -23q45 16 83.5 59.5t66 103t47 124t30.5 133.5q34 203 6.5 354.5t-111.5 224.5q-89 78 -211 41q-72 -23 -141 -94
t-111.5 -157.5t-48.5 -160.5q-8 -101 64 -156q7 -5 8.5 -13.5t-4 -15.5t-14 -8.5t-15.5 4.5q-91 69 -81 193q7 82 53 176t121 170.5t157 101.5q69 22 134 9t117 -58zM265 1036q-19 1 -22 14t6 27t23 19q31 10 40 -15q8 -22 -12 -37q-14 -9 -35 -8zM405 1036q-18 1 -21.5 14
t5.5 27t23 19q31 10 40 -15q9 -22 -12 -37q-13 -9 -35 -8z" />
    <glyph glyph-name="multiply" unicode="&#xd7;" horiz-adv-x="352" 
d="M300 230q4 -8 1 -16.5t-11 -11.5q-4 -3 -9 -3q-11 0 -17 9q-1 2 -22 26q-39 48 -68 83q-21 -22 -59 -62q-21 -22 -28 -30q-7 -7 -16 -7q-8 0 -14 6q-7 6 -7 15t6 15q8 9 28 30q39 41 63 66q-67 83 -71 89q-5 8 -2.5 16.5t10 13t16 2t12.5 -9.5q5 -8 64 -80q56 58 85 85
q6 6 14.5 5.5t15 -7t6 -15t-6.5 -14.5q-29 -27 -87 -87q28 -33 72 -87q24 -29 25 -31z" />
    <glyph glyph-name="Udieresis" unicode="&#xdc;" horiz-adv-x="911" 
d="M925 116q8 -4 10.5 -12.5t-0.5 -16.5q-141 -292 -228 -292q-6 0 -12 2q-70 13 -82 201q-9 149 10 526q8 172 9 229h-1q-59 -185 -139 -459q-73 -250 -110 -338.5t-94 -118.5q-39 -21 -76 -11.5t-67 47.5q-50 63 -75.5 194.5t-17.5 288.5q8 174 54.5 319t123.5 235
q5 6 14 7t15.5 -4.5t7 -14.5t-4.5 -16q-72 -84 -116 -222.5t-52 -305.5q-7 -148 16 -273.5t68 -181.5q41 -51 91 -25q46 24 79.5 110.5t102.5 321.5q80 273 140 460q16 48 27 65.5t28.5 14.5t23 -25.5t4.5 -84.5q-1 -54 -9 -214q-19 -374 -9 -522q2 -41 7.5 -72.5t11 -47.5
t12 -26.5t10 -12.5t6.5 -3q5 -1 12 1t24 16.5t37 40.5t52 80.5t68 129.5q4 8 12.5 11t16.5 -1zM390 1041q-18 1 -21.5 14t5.5 27t23 19q31 10 40 -15q8 -22 -12 -37q-14 -9 -35 -8zM531 1041q-18 1 -21.5 14t5.5 27t23 19q31 10 40 -15q8 -22 -12 -37q-14 -9 -35 -8z" />
    <glyph glyph-name="germandbls" unicode="&#xdf;" horiz-adv-x="622" 
d="M556 327q24 -44 12 -115t-44 -144t-77.5 -138t-87.5 -98q-77 -58 -129 -10q-6 6 -6.5 15t5.5 15t15 6.5t15 -5.5q25 -24 74 13q53 41 106 129t78 178.5t2 133.5q-25 46 -118 15q-56 -19 -98 -39q-28 -34 -55.5 -52t-44.5 -19h-1q-22 0 -25 21q-7 35 99 84q5 7 9 13
q75 104 99 275q13 86 -8.5 157t-56.5 81q-4 -1 -8.5 0.5t-12.5 -2.5t-16.5 -9t-19.5 -17.5t-22.5 -29.5t-25 -44.5t-27.5 -61.5q-20 -50 -42 -158t-36.5 -245t-16 -267t23.5 -234t77 -138q7 -5 9 -13.5t-3 -15.5q-6 -10 -18 -10q-6 0 -11 4q-22 13 -40 36.5t-36 65.5
t-28 101.5t-15 145t3 195.5q11 168 39.5 326.5t54.5 222.5q20 51 41.5 88.5t40 57.5t37.5 32t34 12t29 -2q38 -10 64 -56t32.5 -105.5t-0.5 -122.5q-21 -148 -80 -252q21 8 41 15q128 43 169 -35z" />
    <glyph glyph-name="adieresis" unicode="&#xe4;" horiz-adv-x="398" 
d="M445.5 256.5q5.5 -6.5 5 -15.5t-7.5 -14q-32 -27 -110 -139q-35 -51 -51.5 -71t-28.5 -26q-8 -4 -17 -4q-12 0 -21 8q-25 20 -21 96q3 57 19 134l-5 -5q-33 -39 -95 -125q-35 -48 -48 -65q-37 -44 -69 -26q-29 16 -29 77t22 119q18 51 49 81.5t64 31.5h1q40 0 56 -41
q3 -8 -0.5 -16t-11.5 -11.5t-16 0t-11 12.5q-6 13 -18 13q-16 0 -37 -21t-36 -63q-12 -33 -16.5 -65.5t-3 -52t6.5 -26.5q7 4 16 15q13 16 47 63q63 87 98 128q44 49 69 36q22 -11 13 -49q-13 -55 -18.5 -100t-5 -68t3.5 -34q13 12 60 79q81 117 117 147q7 6 15.5 5t14 -7.5
zM72 459q-18 1 -21.5 14t6 27t22.5 18q31 11 40 -14q9 -22 -11 -37q-14 -10 -36 -8zM213 459q-18 1 -21.5 14t5.5 27t23 18q31 11 40 -14q9 -22 -12 -37q-14 -9 -35 -8z" />
    <glyph glyph-name="odieresis" unicode="&#xf6;" horiz-adv-x="313" 
d="M359.5 261.5q7.5 -4.5 9.5 -13t-2 -15.5q-46 -79 -147 -95q-21 -4 -44 -4q0 -18 -4 -37t-10.5 -35t-14.5 -30t-16 -22q-26 -28 -60 -28q-16 0 -31 7q-33 16 -48.5 60t-8.5 106q9 87 53 117q23 16 49 9q9 -2 13.5 -9.5t2 -16t-10 -13t-16.5 -2.5q-7 2 -14 -3
q-12 -8 -22 -32.5t-13 -54.5q-6 -52 4.5 -83t28.5 -39q22 -10 43 11q12 13 22 42t11 56q-18 4 -27 8q-40 23 -39 54q1 22 20 31q25 12 57 -12q19 -14 27 -42q45 0 89 17.5t69 60.5q5 7 13.5 9.5t16 -2zM21 459q-18 1 -21.5 14t5.5 27t23 19q31 10 40 -15q9 -22 -12 -37
q-13 -10 -35 -8zM162 459q-18 1 -21.5 14t5.5 27t23 19q31 10 40 -15q8 -22 -12 -37q-13 -10 -35 -8z" />
    <glyph glyph-name="divide" unicode="&#xf7;" horiz-adv-x="445" 
d="M235 453q-18 1 -21.5 14t6 27t22.5 19q30 9 40 -13q10 -23 -11 -38q-13 -11 -36 -9zM191 233q30 10 40 -14q8 -23 -12 -37q-15 -10 -36 -9q-27 2 -21 27t29 33zM373 362q6 0 11 -2.5t8 -7.5t3 -11q0 -8 -6 -14.5t-14 -7.5h-73q-57 1 -137 1t-92 -2h-2q-8 0 -14 5.5
t-7 13.5q-1 9 4.5 15.5t14.5 7.5q21 3 233 2q67 -1 71 0z" />
    <glyph glyph-name="udieresis" unicode="&#xfc;" horiz-adv-x="455" 
d="M496.5 256q5.5 -7 4.5 -15.5t-8 -14.5q-33 -26 -112 -129q-25 -32 -37.5 -47.5t-25 -28t-20.5 -15.5q-20 -9 -36 1q-19 12 -24.5 47t-6.5 109q0 41 -3 64q-12 -19 -42 -77q-56 -110 -87 -147q-21 -24 -46 -24q-15 0 -28 9q-25 18 -37.5 65t-3 113t44.5 126q4 7 12.5 9.5
t16 -2t10 -13t-1.5 -16.5q-31 -52 -39 -108.5t0 -92.5t23 -47q6 -4 17 8q28 34 81 139q19 37 27.5 53t21 34t22 22.5t21.5 2.5q18 -5 25.5 -31t7.5 -87q1 -98 10 -117q12 9 64 77q83 107 119 136q7 6 16 5t14.5 -8zM68 459q-18 1 -21.5 14t5.5 27t23 19q31 10 40 -15
q9 -22 -11 -37q-14 -10 -36 -8zM209 459q-18 1 -21.5 14t5.5 27t23 19q31 10 40 -15q9 -22 -12 -37q-13 -10 -35 -8z" />
    <glyph glyph-name="Euro" unicode="&#x20ac;" horiz-adv-x="567" 
d="M395 694q-45 -34 -87.5 -97t-66.5 -139q80 2 129 2q8 0 14.5 -6.5t6.5 -15t-6.5 -15t-14.5 -6.5q-51 0 -141 -2q-12 -49 -13 -97q-1 -18 0 -36q124 2 144 8q15 11 27 -3q6 -6 6 -15t-7 -15q-5 -4 -12.5 -7t-46 -6t-107.5 -4q14 -86 63 -153q32 -43 94 -58t101 11
q8 5 16.5 3.5t13 -9t3 -16t-8.5 -13.5q-35 -23 -85 -23q-48 0 -94 21.5t-74 58.5q-57 78 -71 177h-26q-32 0 -67 1h-11q-6 0 -11 2.5t-7.5 7.5t-2.5 11q0 9 6 15t15 6h11q48 -1 89 0q-1 18 -1 37q2 47 12 95q-67 -2 -114 -2q-9 0 -15 6.5t-6 15t6 15t15 6.5q48 0 125 2
q26 86 73.5 158.5t100.5 112.5q70 52 131 36q9 -2 13 -9.5t2 -16t-9.5 -13t-16.5 -2.5q-41 11 -95 -29z" />
    <glyph glyph-name="notequal" unicode="&#x2260;" horiz-adv-x="781" 
d="M710 460q9 0 15 -6t6 -15t-6 -15t-15 -6q-63 0 -191 -2q-53 -1 -87 -1q-40 -55 -86 -116q140 -6 247 -22q9 -1 14 -8.5t4 -15.5t-7 -13t-14 -5h-3q-115 18 -272 23q-154 -203 -200 -254q-7 -6 -16 -6q-8 0 -14 5q-7 6 -7 15t6 15q42 45 179 226q-63 1 -176 1h-16
q-9 0 -15 6.5t-6 15t6 15t15 6.5h16q133 0 207 -2q44 59 85 113h-55q-108 0 -191 4q-9 0 -15 6.5t-5.5 15.5t7 15t15.5 5q107 -5 275 -3q107 149 118 175q3 8 11 11.5t16.5 0.5t11.5 -11.5t0 -16.5q-11 -28 -105 -158h56q128 2 192 2z" />
    <glyph glyph-name="lessequal" unicode="&#x2264;" horiz-adv-x="479" 
d="M273 240q-42 19 -62 28.5t-51 26t-45.5 29t-26.5 28.5t-13 33q-2 39 52 70q98 58 218 152q7 6 15.5 5t14 -8t4.5 -15.5t-8 -14.5q-122 -96 -223 -155q-32 -19 -31 -32q1 -11 16 -24.5t46 -30t52 -26.5t59 -28q63 -28 92 -43q8 -4 10.5 -12.5t-1.5 -16.5q-5 -11 -18 -11
q-5 0 -10 2q-28 14 -90 43zM407 78q9 1 15.5 -5t7 -15t-5.5 -15t-15 -7h-81q-234 1 -255 -1h-2q-8 0 -14 5.5t-7 13.5q0 4 1 8t3.5 7.5t6.5 5.5t8 2q23 2 259 2q74 -1 79 -1z" />
    <glyph glyph-name="greaterequal" unicode="&#x2265;" horiz-adv-x="479" 
d="M83 568q-8 5 -10 13.5t2.5 15.5t13 9t16.5 -2q27 -17 117 -57q53 -24 83.5 -38.5t60 -32t42.5 -33t15 -32.5q2 -27 -25 -46q-156 -111 -286 -179q-4 -3 -10 -3q-12 0 -18 12q-4 7 -1.5 15.5t9.5 12.5q128 68 282 177q6 4 6 7v1t-3 5t-7.5 8t-14.5 11t-23 15
q-35 20 -127 61t-122 60zM407 79q9 0 15.5 -6t7 -15t-5.5 -15t-15 -7h-81q-235 1 -255 -1h-2q-8 0 -14 5.5t-7 13.5q0 4 1 8t3.5 7.5t6.5 5.5t8 2q23 2 259 2q74 -1 79 0z" />
    </font>
</defs>
</svg>
